<?xml version="1.0" encoding="utf-8"?>
<!-- Generator: Adobe Illustrator 19.2.1, SVG Export Plug-In . SVG Version: 6.00 Build 0)  -->
<svg version="1.1" id="Layer_1" xmlns="http://www.w3.org/2000/svg" xmlns:xlink="http://www.w3.org/1999/xlink" x="0px" y="0px"
	 viewBox="0 0 100 100" style="enable-background:new 0 0 100 100;" xml:space="preserve">
<style type="text/css">
	.st0{fill:#FFFFFF;}
</style>
<title>circle-brush</title>
<path class="st0" d="M96.9,42.4c-0.2-1.9-0.4-3.7-0.8-5.5C94.4,21,87.9,10.6,77,6c-3.5-1.4-7.2-2.3-11-2.5C50-2.4,31.4-0.8,18.7,8.4
	c-8.8,6.3-13.9,15.6-15,27c-4.5,12.1-5.6,26,0.7,36.9c2.6,5.8,6.6,11,11.6,14.9c4.8,3.9,10.4,6.8,16.3,8.6c0.7,0.4,1.4,0.8,2.2,1.2
	c4.8,2.2,10.1,2.9,15.3,2.1c2.5,0.6,5,0.9,7.6,0.9c6.8,0.1,13.4-2.7,17.9-7.8c2.3-1.3,4.3-2.9,6-4.9c0.3-0.3,0.6-0.6,0.8-1
	c4.4-3.4,8.2-7.3,11.4-11.8C100.8,64.8,102,53.2,96.9,42.4z M96.6,46.4c-0.1-1.1-0.3-2.2-0.5-3.3c-0.1-0.7-0.3-1.4-0.5-2.1l0.3,0.6
	c0.2,0.3,0.3,0.7,0.5,1C96.5,43.8,96.6,45.1,96.6,46.4z M66.7,93.4l-0.6-0.1c0.4-0.3,0.9-0.6,1.4-0.9l0,0c0.7-0.1,1.4-0.3,2.2-0.5
	l0.6-0.2C69.2,92.4,68,93,66.7,93.4z M62.3,92.4H62c0.5-0.2,1.1-0.4,1.6-0.6v0c0.7-0.3,1.4-0.6,2.1-1L65,91.3
	C64.1,91.7,63.2,92.1,62.3,92.4z M30,91.2c3.3,1.7,6.7,3,10.3,3.9l0-0.1c0.9,0.6,1.9,1.2,2.9,1.7C38.8,96.5,34.7,94.9,30,91.2z
	 M41.4,97.1h-0.3L40.7,97L41.4,97.1z M23.5,86.7L23.5,86.7c-0.2-0.3-0.4-0.6-0.6-1l1.2,0.8l0.4,0.3c0.6,0.6,1.1,1.2,1.7,1.7
	C25.3,87.9,24.4,87.3,23.5,86.7z M24.5,88L24.5,88l-0.2-0.1L24.5,88z M14.2,77.5C11.3,73.4,8.8,69,7,64.3c-0.1-0.2-0.1-0.4-0.2-0.7
	c0-0.2-0.1-0.5-0.1-0.7c0-0.4-0.1-0.8-0.1-1.2c0.1-2.3,0.3-4.6,0.8-6.8c0,2,0.2,4,0.6,6c0.2,0.8,0.4,1.6,0.7,2.4c0,0.1,0,0.2,0,0.3
	c0.3,1.5,0.8,2.9,1.5,4.2c0.1,0.4,0.3,0.8,0.4,1.2c1.6,4.2,3.8,8.2,6.5,11.9C16,79.8,15,78.7,14.2,77.5z M14.8,79.1
	c-3.7-3.3-6.3-7.6-7.4-12.3c1.8,3.9,3.9,7.5,6.4,11C14.2,78.2,14.5,78.7,14.8,79.1z M5.7,47.4c-0.3,3.6-0.3,7.2,0,10.8
	c-0.1-1.2-0.2-2.3-0.3-3.3c-0.1-1.5-0.2-2.9-0.5-4.3c-0.3-1.8-0.6-3.6-0.7-5.3C4.4,44.6,4.7,43.8,5,43c0.6-1,1.2-2,1.9-3
	c-0.6,2.3-1,4.5-1.2,6.9C5.8,47,5.7,47.2,5.7,47.4L5.7,47.4z M49.8,6.4c1.3,0.2,2.5,0.6,3.7,1c-2,0.1-4,0.4-5.9,0.8L47,8.1L46.1,8
	C47.3,7.3,48.5,6.8,49.8,6.4z M48.5,5.6c1.1-0.2,2.2-0.3,3.3-0.3c-0.6,0.1-1.2,0.3-1.8,0.4h-0.5L48.5,5.6z M94,41
	c0.6,3.6,0.7,7.4,0.1,11c0-0.4,0-0.7-0.1-1.1c0.1-2.2,0.1-4.4-0.1-6.6c0-0.2,0-0.4,0-0.6c-0.1-2-0.3-4-0.6-6
	C93.6,39,93.9,40.1,94,41z M93.9,38l0.5,0.8c1.8,7.2,1.7,14.8-0.5,21.9c0.1-1.1,0.2-2.3,0.2-3.6c0.1-0.9,0.1-1.7,0.2-2.6
	c0.9-4.5,1-9.1,0.2-13.6C94.3,40.1,94.1,39.1,93.9,38z M81.2,76.9L81.2,76.9c-0.5,0.5-1.1,1-1.6,1.4c0.3-0.5,0.6-1.1,0.8-1.6v0
	c0.2-0.3,0.3-0.6,0.5-0.9v-0.1c0.5-0.6,1-1.1,1.5-1.7c0,0.3,0,0.6,0,0.9C82,75.5,81.6,76.2,81.2,76.9z M81.9,77.6L81.9,77.6
	l-0.2,0.2L81.9,77.6z M80,78.6L80,78.6l-0.3,0.3L80,78.6z M78.4,78.6L78.4,78.6c0.2-0.4,0.5-0.8,0.8-1.1l0.1-0.1
	C79,77.8,78.7,78.2,78.4,78.6z M79.2,79.3l-0.4,0.3l0.1-0.1L79.2,79.3L79.2,79.3z M77.8,78.1l-0.3,0.2l-0.2,0
	c0.1-0.2,0.2-0.4,0.2-0.6c0.3-0.5,0.7-0.9,1-1.4c-0.1,0.5-0.3,0.9-0.4,1.3L77.8,78.1z M78.1,79.1l-0.3,0.3
	C77.9,79.3,78,79.2,78.1,79.1L78.1,79.1z M71,89.1c-1.2,1.1-2.4,2.1-3.7,2.9C68.6,91.1,69.8,90.1,71,89.1z M67.1,91l0.2-0.2l0.4-0.2
	L67.1,91z M54,95.8h0.8L54.3,96h-1h-0.1L54,95.8z M54.1,95.3h-0.3l0.9-0.2L54.1,95.3z M51,95h-0.2c1.4-0.2,2.8-0.6,4.2-1
	c0.6-0.1,1.3-0.1,1.9-0.2C55,94.5,53,94.9,51,95z M51.2,96.5h0.7c-0.6,0.1-1.3,0.2-1.9,0.3h-0.3C50.2,96.7,50.7,96.6,51.2,96.5
	L51.2,96.5z M51.1,96c-1.7,0-3.4-0.2-5.1-0.4c0.8,0.1,1.7,0.1,2.5,0.1c0.8,0,1.6,0,2.3-0.1c0.5,0,0.9,0.1,1.4,0.1L51.1,96z
	 M39.1,93.6c-0.5-0.4-1-0.8-1.5-1.2c0.9,0.3,1.8,0.5,2.7,0.7c1.8,0.9,3.6,1.5,5.6,1.9c-1.3-0.1-2.5-0.3-3.7-0.6
	C41.1,94.3,40.1,93.9,39.1,93.6L39.1,93.6z M21,81.7L21,81.7c-0.1-0.2-0.3-0.5-0.5-0.8c-0.2-0.4-0.4-0.9-0.5-1.3
	c0.8,0.7,1.6,1.4,2.5,2.1c0.5,0.5,1.1,1,1.6,1.4l0.6,0.8L24,83.8C23,83.1,21.9,82.5,21,81.7z M21.4,84.1l-1.1-0.8l0.9,0.3L21.4,84.1
	z M19.4,78.1c0-0.1-0.1-0.3-0.1-0.4c-0.1-0.3-0.2-0.7-0.3-1c0.5,0.6,1.1,1.1,1.7,1.6c0.6,1,1.2,1.9,1.8,2.8
	C21.5,80.1,20.4,79.2,19.4,78.1z M10,62.4c-0.4-1.9-0.6-3.9-0.6-5.9c0.1,0.5,0.2,1,0.3,1.5c0.2,1.4,0.5,2.7,1,4
	c0.7,3.4,1.8,6.7,3.3,9.9c-0.8-1-1.5-2-2.1-3C11.1,66.8,10.4,64.7,10,62.4z M11.6,69.4c-0.4-0.6-0.7-1.2-1-1.8l-0.1-0.1
	c0.3,0.5,0.6,1,0.9,1.6L11.6,69.4z M8.9,57.6c0.1,1.7,0.3,3.3,0.6,4.9c0.3,1.4,0.6,2.7,1,4c-0.4-0.7-0.7-1.4-1-2.1
	c-0.2-0.9-0.4-1.8-0.6-2.7v0C8.8,60.3,8.8,59,8.9,57.6z M8.7,49.4c0,1.5,0.1,2.9,0.3,4.4c0,0.1,0,0.1,0,0.2
	c-0.3,1.5-0.5,3.1-0.6,4.6C8.1,56.4,8,54.2,8,52C8.2,51.1,8.5,50.3,8.7,49.4z M8,49.9c0-0.1,0-0.2,0-0.3c0.2-1.7,0.6-3.5,1-5.2
	c-0.1,1.1-0.2,2.2-0.2,3.3C8.5,48.5,8.2,49.2,8,49.9z M10.2,40c0.4-1.2,0.8-2.3,1.3-3.5c-0.2,1.4-0.3,2.8-0.4,4.2
	c-0.1,0.7-0.3,1.3-0.4,2c-0.5,1.1-0.9,2.2-1.3,3.3C9.5,44,9.8,42,10.2,40z M9.4,40.9c0.2-0.6,0.3-1.2,0.5-1.8
	c-0.1,0.3-0.1,0.6-0.2,0.9v0C9.6,40.4,9.5,40.6,9.4,40.9z M11.9,53.5c0,1.3,0.1,2.5,0.2,3.8c-0.1-0.6-0.3-1.1-0.4-1.7
	c-0.3-1.9-0.4-3.9-0.2-5.9l0,0v0.2C11.7,51.1,11.8,52.3,11.9,53.5z M13.5,34.3c-0.4,1.3-0.7,2.5-1,3.8c-0.3,0.6-0.5,1.3-0.7,1.9
	C12.3,38.1,12.8,36.2,13.5,34.3z M12,37.1c0.1-1.1,0.4-2.2,0.7-3.3v0l0.8-1C12.9,34.3,12.4,35.7,12,37.1z M24.9,18.5l0.2-0.1
	c-0.2,0.3-0.5,0.5-0.7,0.8c-1.9,1.4-3.6,3-5.1,4.9l0.2-0.5C21,21.7,22.8,20,24.9,18.5z M20.1,22.2l0.2-0.5l0,0l0.9-0.7
	C20.8,21.4,20.5,21.8,20.1,22.2z M27.9,18.7L27.9,18.7c-0.8,0.8-1.7,1.7-2.5,2.7l-0.6,0.3l0.3-0.5l0.2-0.4
	C26.2,20,27,19.3,27.9,18.7z M25.6,19.1l0.4-0.4l0,0L25.8,19L25.6,19.1z M26,19.5l0.1-0.1l0.2-0.1L26,19.5z M26.3,13.2
	c-0.4,0.2-0.8,0.5-1.2,0.7l0.6-0.6l1.2-0.5L26.3,13.2z M26.8,13.5c-0.4,0.3-0.8,0.7-1.1,1l-0.5,0.3c0.4-0.4,0.9-0.8,1.4-1.2
	L26.8,13.5z M26.8,12.3c0.7-0.6,1.5-1.2,2.3-1.7c1-0.6,2.1-1,3.2-1.3l-0.8,0.5c-0.9,0.5-1.8,0.9-2.6,1.5L26.8,12.3z M36.3,8.9
	L36.3,8.9h0.6c-0.5,0.2-0.9,0.4-1.4,0.6c-0.7,0.3-1.4,0.5-2.1,0.8c-0.7,0.3-1.6,0.5-2.4,0.8L30,11.5l0.4-0.3
	C32.2,10.4,34.2,9.7,36.3,8.9z M33.3,9.5c0.4-0.2,0.8-0.4,1.3-0.5l0.2,0L33.3,9.5z M46.7,12.2h0.5l0.3,0.2c-0.4,0.2-0.9,0.3-1.3,0.5
	c-0.6,0.2-1.2,0.3-1.7,0.5c-0.7-0.1-1.5-0.3-2.2-0.3l1-0.4C44.4,12.4,45.5,12.3,46.7,12.2z M44.1,11.1l0.5-0.1h0.1l-0.5,0.1H44.1z
	 M45.5,10.8h0.5l-0.3,0.1L45.5,10.8z M48.3,11.2c0.6,0.1,1.1,0.2,1.7,0.4l-0.2,0.1h-0.4c-0.5,0-1,0-1.5,0l-1.1-0.2l-0.1,0l0.3-0.1
	L48.3,11.2z M47.2,10.5l0.7-0.1l-0.4,0.1L47.2,10.5z M48.7,10.6l0.2-0.1l0.2,0.1H48.7z M56.7,8.7L57.4,9c-0.4,0-1-0.1-1.4-0.2
	L56.7,8.7z M56.3,7.9l1,0.1l-0.6,0.1L56.3,7.9z M56.9,10.8l0.3,0.1l0.5,0.2c-0.6,0.1-1.2,0.1-1.8,0.2L55.2,11
	C55.8,10.9,56.3,10.9,56.9,10.8z M85,23.2c-0.8-0.7-1.7-1.3-2.6-2c-0.7-0.7-1.4-1.3-2.3-1.8c-0.2-0.2-0.4-0.5-0.6-0.7
	c-0.7-0.8-1.3-1.7-2-2.4c0.6,0.1,1.1,0.2,1.6,0.3c0.8,0.7,1.5,1.5,2.3,2.2l-0.1,0C82.8,20.2,84,21.7,85,23.2z M89.8,32.7
	c0.7,0.7,1.3,1.5,2,2.3c-0.1,1.4-0.3,2.7-0.5,4.1C90.5,37,89.7,35,88.7,33c0-0.5,0-0.9,0-1.4C89.1,32,89.4,32.4,89.8,32.7z
	 M88.7,30.9c0-0.1,0-0.3,0-0.4l0.4,0.7L88.7,30.9z M92.7,56.9c0,0.3-0.1,0.5-0.1,0.7c0.1-1.5,0.1-3.1,0-4.6v-0.1
	C92.8,54.2,92.8,55.5,92.7,56.9L92.7,56.9z M92.7,50.8c0-2.6-0.4-5.1-1.3-7.6c0.5,1.1,0.8,2.2,1.2,3.3c0.4,1.6,0.6,3.2,0.8,4.8v0.1
	c-0.1,0.7-0.1,1.5-0.2,2.2C93.1,52.6,92.9,51.7,92.7,50.8z M82.9,72.6c0-0.2,0-0.4,0-0.6c0.8-1.4,1.5-2.9,2.2-4.4
	c-0.1,0.9-0.3,1.8-0.4,2.7C84.1,71.2,83.5,71.9,82.9,72.6z M84.1,72c-0.4,0.7-0.8,1.4-1.1,2c0-0.2,0-0.4,0-0.6
	C83.4,72.9,83.8,72.5,84.1,72z M81.4,67.4c0.1-0.2,0.2-0.5,0.3-0.7l0.1,0.3L81.4,67.4z M82.1,69.4L82.1,69.4l0,0.2l-0.1,0.1
	l-0.4,0.6C81.9,70,82,69.7,82.1,69.4z M79.4,69.6L79.4,69.6L79.4,69.6C79.4,69.6,79.4,69.6,79.4,69.6L79.4,69.6z M75.5,70.5
	c0,0.2,0,0.3,0,0.5c-0.5,0.6-1.1,1.2-1.7,1.8l0.1-0.2C74.5,71.8,75,71.2,75.5,70.5z M75,69.5l0.4-0.7V69l-0.1,0.1L75,69.5z
	 M74.4,72.8c-0.3,0.5-0.6,0.9-1,1.3v0l-0.2,0.1l0.2-0.5C73.8,73.5,74.1,73.2,74.4,72.8z M74.3,74.3l0.6-0.4
	c-0.5,0.8-1.1,1.5-1.7,2.2l-0.4-0.3C73.3,75.3,73.8,74.8,74.3,74.3z M72.8,76.5l-0.3,0.3l-0.3,0.3c0.1-0.3,0.2-0.5,0.3-0.8
	L72.8,76.5z M72.4,79c0.7-0.5,1.4-1,2-1.5L74.1,78c-0.7,0.8-1.3,1.5-2,2.2c0-0.3,0-0.6,0-1L72.4,79z M74.4,75.7
	c-0.2,0.3-0.4,0.5-0.6,0.8v0l-0.1-0.1c0.3-0.3,0.6-0.6,0.9-1C74.5,75.5,74.4,75.6,74.4,75.7z M76.3,74.1c-0.3,0.6-0.6,1.2-0.9,1.7
	l-0.1,0.1c-0.3,0.2-0.6,0.4-0.8,0.6C75.2,75.7,75.8,74.9,76.3,74.1z M75.6,74.3L75.6,74.3c0.3-0.4,0.6-0.8,0.8-1.1L75.6,74.3z
	 M77,66.5c-0.4,0.6-0.8,1.2-1.2,1.8v-0.3c0.2-0.3,0.3-0.6,0.5-0.9c0.2-0.3,0.5-0.7,0.7-1V66.5z M77.2,68c0,0.1,0,0.3,0,0.4
	c-0.2,0.3-0.4,0.7-0.6,1c-0.2,0.3-0.4,0.6-0.6,0.8c0-0.2,0-0.3,0-0.5C76.4,69.2,76.8,68.6,77.2,68z M76.3,71
	c0.3-0.4,0.5-0.8,0.8-1.3l0.2-0.3c0,0.1,0,0.2,0,0.2C76.9,70.2,76.6,70.6,76.3,71z M71.5,72.4v-0.1c0.2-0.2,0.5-0.5,0.7-0.7
	L71.5,72.4z M73.3,84.7c-0.7,0.7-1.5,1.4-2.2,2.1c0.4-0.4,0.7-0.9,1-1.4L73.3,84.7z M72.8,83.1l0.5-0.3L72.8,83.1L72.8,83.1z
	 M69.6,82.6c0.3-0.5,0.6-1.1,0.9-1.6l1.1-1.1c0,0.3,0,0.7-0.1,1v0C70.9,81.4,70.3,82,69.6,82.6z M64,86.3c-1.5,0.4-3,0.7-4.6,1
	c0.3-0.2,0.7-0.4,1-0.6c1.2-0.6,2.4-1.2,3.6-1.9c0.4,0.1,0.9,0.3,1.3,0.4L64,86.3z M44.8,92.4L44.8,92.4c-1-0.3-1.9-0.6-2.8-1.1
	c1.4-0.1,2.9-0.3,4.3-0.7c1.7,0.8,3.6,1.2,5.5,1.2c0.5,0,0.9,0.1,1.4,0.1h0.3c-0.5,0.1-1,0.3-1.5,0.4C49.6,92.6,47.2,92.6,44.8,92.4
	z M43,93.1L43,93.1c-0.5-0.2-1.1-0.4-1.6-0.7c0.9,0.2,1.8,0.3,2.8,0.4l0.7,0.1l0.8,0.2c-0.4,0-0.8,0-1.2,0S43.5,93.1,43,93.1z
	 M45.3,94.5c-1-0.3-2-0.6-3-1l0.4,0.1C43.6,93.9,44.4,94.2,45.3,94.5z M39.3,91.5h0.3l0,0c0.5,0,0.9,0,1.3,0l0.6,0.3
	c0.3,0.2,0.7,0.3,1,0.4C41.4,92,40.4,91.8,39.3,91.5z M40.8,92.8l-0.3-0.1l-0.9-0.5L40.8,92.8z M34.7,88.9l-0.4-0.4
	c1,0.3,1.9,0.6,2.9,0.8l0.5,0.3c-0.6,0-1.3-0.1-2-0.1L34.7,88.9z M30.3,87.4c-0.2-0.2-0.3-0.4-0.6-0.6c0.4,0.1,0.8,0.2,1.2,0.3
	c0.8,0.6,1.6,1.2,2.4,1.7l0.3,0.4l-0.6-0.1C32.2,88.6,31.3,88,30.3,87.4z M31.9,89.6l-0.5-0.1c-0.3-0.2-0.7-0.5-1-0.8l0.8,0.3
	L31.9,89.6z M23.6,78l0.5,0l0.4,0.4l0.1,0.3C24.3,78.5,24,78.3,23.6,78z M24.3,79.4l-0.3-0.1l-0.2-0.2L24.3,79.4z M20.1,72.2
	l0.6,0.6l0.3,0.3l0.2,0.3c0.3,0.5,0.7,0.9,1,1.4l-0.8-0.5c-0.4-0.4-0.7-0.8-1-1.1l0,0C20.4,72.8,20.2,72.5,20.1,72.2z M19.2,66.7
	l0.1,0.3c0,0.4,0,0.7,0,1l-0.1-0.2v0C19.3,67.5,19.2,67.1,19.2,66.7z M17.8,68.7c-0.2-0.6-0.3-1.2-0.4-1.9c0-0.2-0.1-0.4-0.1-0.5
	c0.3,0.6,0.6,1.2,0.8,1.8c0.2,0.6,0.3,1.2,0.6,1.8C18.4,69.5,18.1,69.1,17.8,68.7z M18.6,74.4l-0.3-0.3l-0.1-0.4L18.6,74.4z
	 M15.7,54.1c0,2.9,0.2,5.7,0.5,8.6c-0.4-1-0.7-1.9-1.1-2.9c-0.1-0.4-0.1-0.8-0.2-1.2C15.1,57,15.4,55.5,15.7,54.1z M15.7,34.8
	L15.6,35c0-0.1,0-0.2,0-0.2l0.1-0.2V34.8z M16.5,37.6l0.3-0.5c0,0.2-0.1,0.4-0.1,0.6c-0.3,0.7-0.5,1.4-0.8,2.1c0-0.2,0-0.4,0-0.6
	C16.1,38.7,16.3,38.1,16.5,37.6L16.5,37.6z M16.2,69.9c-0.3-0.5-0.6-1-0.9-1.5c0-0.2-0.1-0.4-0.1-0.6c0.2,0.4,0.4,0.7,0.5,1.1v0
	C15.9,69.2,16,69.5,16.2,69.9z M16,70.5l0.4,0.6c0,0.3,0.1,0.6,0.2,0.9c-0.3-0.4-0.6-0.8-0.9-1.2c0-0.2-0.1-0.5-0.2-0.8l0,0L16,70.5
	z M15.9,62.9c0.2,0.5,0.4,1.1,0.7,1.6c0,0.5,0.1,0.9,0.2,1.3l0,0v0.1C16.4,64.9,16.1,63.9,15.9,62.9z M16.5,59.6
	c0,0.3,0.1,0.6,0.1,0.9c0,0.2,0,0.4,0,0.5C16.6,60.6,16.5,60.1,16.5,59.6z M16.7,53.2c0-0.1,0-0.3,0-0.4c0.1,0.6,0.2,1.1,0.2,1.7
	c0,0.3,0,0.5-0.1,0.8C16.8,54.5,16.7,53.9,16.7,53.2z M16.2,40.8L16,41.4c0-0.1,0-0.1,0-0.2L16.2,40.8z M15.5,63.6
	c-0.3-0.9-0.5-1.8-0.7-2.6c0-0.2,0-0.3,0-0.5C15,61.6,15.3,62.6,15.5,63.6z M15,64.5l-0.2-0.3l0-0.1c0-0.1,0-0.2,0-0.3
	C14.9,64,15,64.3,15,64.5z M14.9,69.4l0.1,0.4c-0.2-0.4-0.5-0.8-0.7-1.1C14.5,68.9,14.7,69.1,14.9,69.4z M12.3,64.7
	c-0.5-1.2-1-2.5-1.3-3.8c-0.2-0.7-0.3-1.5-0.4-2.2c-0.1-1.2-0.2-2.5-0.3-3.7c0.5,4,1.6,7.9,3.4,11.5c0.3,0.6,0.6,1.1,0.8,1.6
	C13.7,67,13,65.9,12.3,64.7z M13,67.3c0.7,1.3,1.5,2.6,2.3,3.8c0.3,1.1,0.6,2.3,1,3.4l-0.1-0.2c-1.8-2.8-3.3-5.9-4.3-9.2
	C12.3,65.9,12.7,66.6,13,67.3z M16.2,72.3L16.2,72.3c0.3,0.3,0.6,0.7,0.9,1.1c0.3,0.8,0.7,1.6,1.1,2.3c-0.4-0.2-0.7-0.4-1.1-0.7
	C16.8,74.1,16.4,73.2,16.2,72.3z M17.2,46.2c0,0.5,0.1,0.9,0.2,1.4l-0.1-0.4c0-0.3,0-0.6,0-0.9V46.2z M17.1,60.5c0-0.1,0-0.3,0-0.4
	c0.2,0.7,0.4,1.4,0.6,2.1c0,0.2,0,0.3,0,0.5c-0.1,0.2-0.1,0.3-0.2,0.5C17.3,62.2,17.2,61.3,17.1,60.5z M17.5,65.6l-0.1-0.3v-0.1
	L17.5,65.6z M17.1,64.3c0-0.2,0-0.4,0-0.6l0.1,0.4L17.1,64.3z M17.5,72.6c0,0.3,0.1,0.5,0.2,0.8l-0.2-0.3c-0.1-0.3-0.2-0.7-0.3-1
	L17.5,72.6z M17.5,49.7c0-0.2-0.1-0.5-0.1-0.7l0.1,0.3L17.5,49.7z M17.4,58.1L17.3,58c-0.1-0.2-0.1-0.4-0.2-0.6c0-0.3,0-0.7,0.1-1.1
	l0.1,0.3C17.3,57.2,17.4,57.6,17.4,58.1z M17.2,51.5c0,0.2-0.1,0.5-0.1,0.7c-0.1-0.6-0.1-1.2-0.2-1.9C17,50.8,17.1,51.1,17.2,51.5z
	 M18.6,67.9c-0.4-1.3-0.7-2.5-0.9-3.7l0.1-0.4c0.1,0.6,0.2,1.2,0.3,1.8c0.2,0.8,0.4,1.6,0.7,2.4c0,0.2,0,0.3,0.1,0.5L18.6,67.9z
	 M18.7,32.5L18.7,32.5c-0.2,0.5-0.4,0.9-0.5,1.3l-0.4,0.6v-0.1C18.1,33.7,18.4,33.1,18.7,32.5z M18.4,32.1V32l0.2-0.3L18.4,32.1z
	 M18.3,35.3c0.3-0.6,0.6-1.2,0.9-1.7v0c-0.3,0.9-0.5,1.8-0.8,2.8c-0.3,0.5-0.5,1-0.7,1.5C17.9,37,18.1,36.2,18.3,35.3z M30.2,19.3
	L30.2,19.3l0.3-0.1l-0.6,1c-0.9,0.6-1.7,1.2-2.5,1.8C28.2,21,29.1,20.1,30.2,19.3z M30.5,12.4c0.9-0.5,1.7-1,2.6-1.4
	c-0.4,0.3-0.8,0.6-1.1,0.9C31.5,12,31,12.2,30.5,12.4z M32,12.7l-0.8,0.6l-0.3,0.2c0.3-0.2,0.5-0.5,0.8-0.7L32,12.7z M34,12.5
	c0.6-0.3,0.8-0.4,1.2-0.6c0.5-0.1,1.1-0.2,1.6-0.3l-0.2,0.2c-1.4,0.5-2.8,1-4.2,1.6C32.9,13.1,33.4,12.7,34,12.5z M33.3,11.5
	c0.5-0.3,1-0.6,1.5-0.9l0.5-0.1c-0.5,0.3-0.9,0.6-1.4,0.9l0,0L33.3,11.5z M42.7,15.6l-0.5-0.1l1-0.2L42.7,15.6z M43,16.2l-0.4,0.1
	l0.2-0.1L43,16.2z M42.8,17.3c0.9,0.1,1.8,0.3,2.6,0.4l-0.8,0c-0.8,0-1.6,0-2.5,0.1L42.8,17.3z M44.8,14.5l-0.3,0.1H44h-0.5l0.4-0.2
	l0,0.1H44.8z M56.8,15c-0.7-0.1-1.5-0.2-2.2-0.2c-1-0.2-2.1-0.5-3.2-0.7l-0.3-0.2C53,14.1,54.9,14.4,56.8,15z M56.1,12.2l0.1-0.1
	l0.1,0.1H56.1z M58.5,10.1l0.5,0.1h-0.2L58.5,10.1z M58.5,10.7l0.3,0l0.4,0.2L59,11h-0.2l-0.7-0.3H58.5z M63,13.6l-1.5-0.2
	c-0.4-0.2-0.9-0.3-1.3-0.5c-0.3-0.2-0.7-0.3-1-0.5c0.3-0.2,0.5-0.3,0.8-0.4C61,12.6,62,13.1,63,13.6z M62,12.3
	c0.9,0.5,1.7,1,2.5,1.6h0c-1-0.6-2.1-1.2-3.1-1.8L62,12.3z M61.9,11h0.3l0.1,0.1L61.9,11z M88.2,29.3L88.2,29.3c0,0.4,0,0.7,0,1.1
	c-0.5-0.5-1-0.9-1.5-1.4l-0.2-0.3c-0.2-0.7-0.3-1.3-0.6-2c-0.4-1.3-1.1-2.6-1.9-3.8c0.7,0.5,1.3,1,1.9,1.6
	C86.7,26.1,87.4,27.7,88.2,29.3z M87,25.8c0.3,0.3,0.6,0.6,0.9,1c0.1,0.3,0.1,0.7,0.2,1.2C87.7,27.3,87.4,26.5,87,25.8z M89.3,35.4
	c0.7,1.6,1.2,3.2,1.7,4.7l-0.1,0.7c-0.5-1-1-1.9-1.6-2.7C89.4,37.2,89.4,36.3,89.3,35.4z M90.9,48.3c0.6,1.9,1,3.8,1.1,5.8
	c-0.2,1-0.4,2-0.6,3C91.6,54.1,91.5,51.2,90.9,48.3z M90.1,47.3c1,4.1,1.2,8.4,0.4,12.5c-0.9,2.5-2.1,5-3.6,7.3
	c0.4-0.9,0.7-1.8,1-2.7C89.7,58.8,90.5,53,90.1,47.3z M90.8,47L90.8,47c-0.2-0.5-0.4-0.9-0.6-1.3l-0.1-0.2v-0.1
	c0.6,1.2,1.2,2.5,1.6,3.8c0,0.4,0.1,0.7,0.1,1.1C91.7,49.1,91.3,48.1,90.8,47z M90.4,44.7L90.4,44.7c0.1-0.4,0.2-0.7,0.3-1.1
	c0.3,1,0.5,2.1,0.7,3.2C91.1,46.1,90.8,45.4,90.4,44.7z M90.4,42.7c-0.1,0.5-0.3,1-0.4,1.4l-0.3-0.5c-0.2-1.4-0.4-2.7-0.7-4
	c0-0.2,0.1-0.4,0.1-0.5l0.2,0.4C89.8,40.5,90.1,41.6,90.4,42.7z M89.5,45.5c0,0.1,0,0.3,0,0.4c-0.2,0.6-0.4,1.2-0.5,1.8
	c0-0.8-0.1-1.7-0.2-2.5c0-0.3,0-0.6-0.1-0.9C89,44.7,89.3,45.1,89.5,45.5z M88.6,43.4c0-0.2,0-0.4-0.1-0.7l0.2,0.4
	c0.1,0.3,0.3,0.7,0.4,1C89,43.9,88.8,43.6,88.6,43.4z M88.7,53.5c0.2-1.4,0.3-2.9,0.3-4.3c0.2-0.7,0.4-1.3,0.7-2
	c0.4,5.8-0.4,11.5-2.1,17c-0.6,1.8-1.3,3.6-2.1,5.3l0,0c0.2-1.2,0.3-2.3,0.5-3.5C87.3,62,88.3,57.8,88.7,53.5z M83.9,66.3
	c0.2-0.7,0.3-1.5,0.5-2.2c0.4-0.7,0.8-1.5,1.2-2.2c0,0.3,0,0.7,0,1c-0.5,1.2-1.1,2.4-1.7,3.7C83.8,66.5,83.9,66.4,83.9,66.3z
	 M83.6,38.3L83.6,38.3c0-0.3-0.1-0.6-0.1-0.9c0.1,0.5,0.3,1,0.4,1.5L83.6,38.3z M83,45.4c0,0.6,0,1.3,0,2c-0.2-0.3-0.3-0.6-0.5-0.9
	c0-0.4,0-0.8,0-1.1s0.1-0.8,0.1-1.3C82.8,44.5,82.9,45,83,45.4z M82.9,42L82.9,42c0-0.4,0-0.6,0-0.9c0.1,0.5,0.1,1,0.1,1.5L82.9,42z
	 M82.5,48.5c0-0.1,0-0.2,0-0.3c0-0.3,0-0.5,0.1-0.8c0.2,0.3,0.3,0.6,0.5,0.9c-0.2,0.8-0.3,1.7-0.4,2.5v0v-0.1
	C82.6,50,82.5,49.2,82.5,48.5z M81.3,54.4c0.1-0.3,0.2-0.7,0.3-1l0.1,0.3c0,0.4,0,0.7,0,1.1l-0.2,0.4C81.4,54.9,81.4,54.7,81.3,54.4
	z M80.5,60.8v-0.1c0.1-0.3,0.2-0.7,0.3-1v0C80.7,60.1,80.6,60.5,80.5,60.8z M80.8,65.9c-0.1,0.2-0.1,0.5-0.2,0.7
	c-0.3,0.4-0.5,0.8-0.8,1.3c0,0,0-0.1,0-0.1C80.2,67.1,80.5,66.5,80.8,65.9z M80.7,58.6c-0.2,0.4-0.4,0.8-0.6,1.3v0L80,59.6
	c0.5-1,0.9-2,1.3-2.7C81.1,57.4,80.9,58,80.7,58.6z M81,55.4c0,0.2,0.1,0.4,0.1,0.5L81,56.3c-0.2,0.5-0.4,1-0.7,1.5
	C80.6,57,80.8,56.2,81,55.4z M80.6,54.9c0-0.2,0.1-0.4,0.1-0.6v0.1L80.6,54.9z M81.1,52.3l0.1,0.3c-0.1,0.3-0.2,0.6-0.3,0.9v-0.2
	C81,52.9,81.1,52.6,81.1,52.3z M81,43.8c0.1,0.2,0.1,0.5,0.2,0.7l-0.1-0.1C81.1,44.2,81.1,44,81,43.8z M81.3,51.5
	c0.1-0.3,0.2-0.6,0.2-0.8c0,0.1,0,0.2,0,0.3c0,0.2-0.1,0.5-0.1,0.7v0L81.3,51.5z M81.6,47.8l-0.1-0.2c-0.1-0.4-0.1-0.7-0.2-1.1
	c-0.1-0.4-0.1-0.7-0.1-1.1l0.3,0.4c0.1,0.5,0.2,0.9,0.3,1.4C81.8,47.4,81.7,47.6,81.6,47.8z M80.1,39.4c0.4,0.3,0.7,0.5,1.1,0.8
	c0.3,0.5,0.5,1.1,0.7,1.7c0.1,1.1,0.2,2.3,0.2,3.4C82,45.5,82,45.6,82,45.7v-0.1C81.6,43.5,80.9,41.4,80.1,39.4z M71.5,76.3
	c-0.4,0.4-0.8,0.8-1.2,1.1c0.3-0.5,0.6-1,0.8-1.4l0.4-0.2C71.5,76,71.5,76.2,71.5,76.3z M71.3,77.2l-0.2,0.4h-0.2L71.3,77.2z
	 M70.3,78.3h0.5v0.1c-0.4,0.3-0.9,0.6-1.4,0.9l-0.5,0.3l0.2-0.3C69.5,78.9,69.9,78.6,70.3,78.3z M69.5,77.7h-0.4
	c0.4-0.3,0.7-0.6,1-0.9C69.9,77.1,69.7,77.4,69.5,77.7z M71.2,74.1L71.2,74.1L71.2,74.1L71.2,74.1z M66.8,79.8l0.8-0.8
	c-0.3,0.4-0.5,0.8-0.8,1.1l-0.1,0.1C66.7,80.1,66.8,80,66.8,79.8z M67,76.7l0.3-0.3v0.1L67,76.7z M67.2,78.7v-0.1l0.6-0.6L68,78
	l-0.3,0.3L67.2,78.7z M67.8,75.9L67.8,75.9L67.8,75.9c0.3-0.3,0.5-0.5,0.7-0.7L67.8,75.9z M68.7,77.2l-0.3,0.3h-0.1L68.7,77.2z
	 M66,80.5v0.1h-0.2L66,80.5z M58.2,89.8l-0.9,0.1c0.4-0.4,0.8-0.8,1.2-1.3h0l0.9,0.2L60,89c-0.6,0.2-1.2,0.3-1.8,0.4L58.2,89.8z
	 M58.2,91.1l-0.6,0.2l0.4-0.2H58.2z M47.5,87.5l-0.4-0.2l0.9-0.1L47.5,87.5z M47.9,88.8l-0.4-0.2l0.1,0L47.9,88.8z M47.4,83.6
	l-0.1-0.1h0.2l0.4,0.3L47.4,83.6z M47.5,85h-0.1v-0.1L47.5,85z M47.9,84.6l-0.1-0.1h0.1l0.2,0.1H47.9z M47.2,82.2
	c0-0.4,0-0.9-0.1-1.3c0.6,0.1,1.2,0.1,1.8,0.1c0.1,0.4,0.2,0.7,0.2,1.1l-0.5,0.1C48.1,82.2,47.7,82.2,47.2,82.2z M37.3,88.8
	l-0.2-0.1c1.3,0.3,2.6,0.5,3.9,0.5l0.4,0.1h-0.2c-0.9,0-1.8-0.1-2.6-0.2C38.2,89,37.8,88.9,37.3,88.8z M31.9,86.1l-0.3-0.4
	c0.5,0.2,0.9,0.3,1.4,0.3c0.3,0.3,0.7,0.6,1,0.9h-0.5c-0.5-0.3-0.9-0.5-1.4-0.8h0L31.9,86.1z M26.5,82.1l-0.1-0.2l-0.1-0.3
	c0.7,0.5,1.5,0.9,2.2,1.3c0.3,0.4,0.6,0.8,0.9,1.2h-0.6C27.9,83.5,27.2,82.8,26.5,82.1z M27.5,84.8l-0.2-0.2h0.1L27.5,84.8z
	 M26.8,85.2L26.3,85l-0.2-0.3l0.1-0.1L26.8,85.2z M25,78.4l0.3,0.2c0.3,0.4,0.7,0.8,1,1.2h-0.2l-0.9-0.6
	C25.2,78.9,25.1,78.7,25,78.4z M25.1,80.1L25.1,80.1L25.1,80.1L25.1,80.1z M24.8,72c0.5,0.5,1,1.1,1.5,1.6l-0.3,0
	c-0.3-0.3-0.6-0.6-0.9-0.9l0,0L24.8,72z M27,73.6c-0.9-0.9-1.7-1.8-2.6-2.8c-0.1-0.3-0.2-0.7-0.3-1c0-0.3,0-0.6,0-0.9
	C25.1,70.6,26,72.1,27,73.6z M25,69.4l0.4,0.5c0.1,0.2,0.2,0.5,0.3,0.7C25.4,70.3,25.2,69.8,25,69.4z M18.5,64.7l0.3,0.8
	c0,0.2,0,0.3,0,0.5c-0.1-0.2-0.1-0.4-0.1-0.5l0,0C18.5,65.2,18.5,65,18.5,64.7z M17.8,53.7L17.8,53.7l0.3,0.9
	c-0.1,0.6-0.2,1.2-0.3,1.8v-0.1C17.8,55.5,17.8,54.6,17.8,53.7z M18,46.1c0-1.1,0-2.2,0.1-3.2l0.1-0.4C18.1,43.7,18,44.9,18,46.1z
	 M18.4,55.9c0.2,1.3,0.4,2.6,0.7,3.9l-0.3,0.6c-0.2-0.8-0.4-1.6-0.6-2.4C18.2,57.3,18.3,56.6,18.4,55.9z M29.2,23.5l0.3-0.2l0.5-0.2
	c-0.2,0.4-0.5,0.8-0.7,1.1l-0.6,0.1C28.9,24,29.1,23.8,29.2,23.5L29.2,23.5z M30.7,22.9c0.5-0.1,1-0.3,1.5-0.3
	c-0.7,0.5-1.4,1-2.1,1.6h-0.2C30.2,23.8,30.4,23.3,30.7,22.9L30.7,22.9z M36,14.4c-0.7,0.4-1.5,0.8-2.2,1.2l0.7-0.9
	C35,14.6,35.5,14.4,36,14.4z M35.4,12.8l0.4-0.1l-0.1,0.1L35.4,12.8z M36.8,13.6c0.4-0.1,0.9-0.1,1.3-0.1l0,0L38,13.6l-0.2,0
	c-0.5,0.1-1.1,0.2-1.6,0.2L36.8,13.6z M36.6,12.4l0.2-0.2l0.8-0.2l-0.9,0.4H36.6z M40.3,11.4h0.4c-0.7,0.2-1.3,0.4-1.9,0.6
	C39.4,11.7,39.9,11.5,40.3,11.4z M40.2,20.3l0.5-0.2l-0.4,0.2H40.2z M44,19.3c0.9-0.2,1.7-0.2,2.6-0.2c-1.1,0.1-2.2,0.3-3.2,0.5
	C43.6,19.6,43.8,19.5,44,19.3z M53.5,16.9h-0.3c-0.5-0.3-1-0.6-1.5-0.8C52.4,16.3,53,16.6,53.5,16.9z M51.6,15.4L51.6,15.4l0.8,0.1
	l0.8,0.6C52.7,15.9,52.2,15.6,51.6,15.4z M59.2,16.7l1.4,0.4l-0.3,0.1c-0.4-0.2-0.9-0.4-1.4-0.5H59.2z M57.9,15.7l1.2,0.2l0.4,0.2
	h-0.2L57.9,15.7z M62.5,19.1l0.8,0.2c0.7,0.7,1.3,1.3,1.9,2c-0.6-0.4-1.2-0.8-1.9-1.1h0c-0.5-0.3-1-0.5-1.5-0.8L62.5,19.1z
	 M62.3,17.2L62.3,17.2l0.3,0.1h-0.2L62.3,17.2z M69.2,14.3l0.9,1l-0.9-0.3c-0.8-0.6-1.6-1.2-2.3-1.6C67.7,13.7,68.4,14,69.2,14.3z
	 M65.7,12.6c-0.3-0.2-0.6-0.4-0.9-0.7l0.2,0c0.8,0.3,1.7,0.7,2.5,1.2C66.9,13,66.3,12.8,65.7,12.6z M70.8,16.1l0.5,0.5l0.3,0.3
	c-0.4-0.3-0.8-0.7-1.2-1h0.2L70.8,16.1z M70.5,15.1l0.6,0.4h-0.2L70.5,15.1z M72.4,18.5l-0.6-0.3c-0.2-0.2-0.4-0.5-0.6-0.7h0.1
	L72.4,18.5z M71.7,16.4l0.4,0.1L72,16.7L71.7,16.4z M70.5,17.5l0.2,0.3l-0.5-0.3H70.5z M70.7,19.3L70.2,19l0.3,0.1l0.1,0.1
	L70.7,19.3z M70.9,22.6l0.4,0.3l0.6,0.7c0.4,0.8,0.8,1.6,1.2,2.5l-0.1,0l-0.2-0.2c-0.7-0.7-1.4-1.4-2.1-2.1
	c-0.4-0.5-0.8-0.9-1.3-1.4c-0.6-0.7-1.2-1.3-1.9-1.9C68.7,21.1,69.8,21.8,70.9,22.6z M75.4,18l0.7,0.6c0.5,0.7,1,1.5,1.5,2.2
	l-0.8-0.4c-0.7-0.9-1.5-1.8-2.4-2.6C74.7,17.8,75,17.9,75.4,18z M74.9,16.5c0.5,0.4,1,0.9,1.6,1.4l-0.3-0.1l-0.3-0.2
	C75.6,17.2,75.3,16.8,74.9,16.5z M87.3,35l-0.2-0.3v-0.2c0,0,0,0,0-0.1l0.1,0.1v0.1L87.3,35z M87.4,38.8c-0.2-0.3-0.4-0.6-0.5-1h0
	c0-0.3,0.1-0.6,0.1-1C87.1,37.6,87.2,38.2,87.4,38.8z M87.6,50.1c-0.1-1-0.3-2.1-0.6-3.1c0.1-0.6,0.2-1.1,0.3-1.7
	C87.5,46.9,87.6,48.5,87.6,50.1z M87.5,36.1l0.4,0.6c0.1,0.2,0.1,0.4,0.2,0.6c0.1,0.2-0.1,0.6-0.1,1C87.8,37.6,87.7,36.9,87.5,36.1z
	 M86,59.6c0-0.7,0-1.4-0.1-2.1c0.4-1.2,0.9-2.4,1.4-3.6c0,0.5,0,1,0,1.5c0,0.2,0,0.3-0.1,0.5C86.9,57.2,86.5,58.4,86,59.6z
	 M86.6,59.3c-0.1,0.4-0.2,0.8-0.2,1.2s-0.2,0.7-0.4,1c0-0.2,0-0.5,0-0.7C86.2,60.3,86.4,59.8,86.6,59.3z M87.5,41.4
	c0,0.2-0.1,0.4-0.1,0.6c-0.1-0.4-0.2-0.8-0.2-1.2l0.3,0.4V41.4z M87,39.9l-0.2-0.2c0-0.2-0.1-0.3-0.1-0.5c0-0.2,0-0.1,0-0.1
	C86.8,39.4,87,39.7,87,39.9z M86.8,42.3l0.2,0.1c0,0.4,0.1,0.8,0.2,1.2h0c-0.1,0.7-0.3,1.5-0.4,2.2C86.8,44.7,86.8,43.5,86.8,42.3z
	 M86.7,48.1c0.3,1.5,0.5,2.9,0.5,4.4c-0.5,1.3-1,2.5-1.4,3.8c0-0.3,0-0.6-0.1-0.9l0,0c0.2-1.5,0.4-3,0.6-4.7c0.1-0.5,0.1-1,0.1-1.5
	C86.6,48.9,86.7,48.5,86.7,48.1z M85.1,49.8c0,0.1,0,0.3,0,0.4L85,50.4v-0.2L85.1,49.8z M85.1,42.5l0.1,0.3l0.1,0.3
	c0,0.1,0,0.3,0,0.4l-0.1,0.4C85.2,43.4,85.1,42.9,85.1,42.5z M85,47.4c-0.1,0.4-0.2,0.8-0.2,1.3c0-0.3,0-0.5,0-0.8l0,0
	c0-0.1,0-0.1,0-0.2l0.3-0.9C85,47,85,47.2,85,47.4z M85.2,59.3l0.2-0.6c0,0.7,0,1.3,0,2c-0.2,0.7-0.5,1.3-0.9,1.9l0,0
	C84.9,61.6,85.1,60.4,85.2,59.3z M85.3,38.8l0.3,0.3c0,0.5,0,1,0,1.5C85.5,40,85.5,39.4,85.3,38.8z M86,43.5c-0.1-0.3,0-0.6,0-0.9
	c0.1-0.3,0.1-0.5,0.2-0.8l0.1,0.1c0,0.8,0,1.7,0,2.6C86.2,44.1,86.1,43.8,86,43.5z M86.2,45.9c0,0.3,0,0.5,0,0.7l0,0
	c0-0.4,0-0.7-0.1-1L86.2,45.9z M86,38.8c0-0.1,0-0.2,0-0.3l0.1,0.4L86,38.8z M85.8,35.8c-0.1-0.8-0.3-1.6-0.4-2.3l0.3,0.4
	c0.1,0.8,0.2,1.6,0.3,2.4L85.8,35.8z M85.6,50.2c0.1-0.7,0.2-1.3,0.2-2c0,0.8,0,1.6-0.1,2.4l-0.1,0.6C85.6,50.9,85.6,50.5,85.6,50.2
	z M86.5,36c0-0.4-0.1-0.9-0.2-1.3l0.2,0.7C86.5,35.6,86.5,35.8,86.5,36z M85.3,29.1L85.3,29.1c-0.2-0.3-0.3-0.6-0.4-0.9
	c0.3,0.3,0.7,0.5,1,0.8l0.1,0.1c0.2,0.7,0.3,1.5,0.3,2.3C86,30.7,85.7,29.9,85.3,29.1z M85.3,31.7c0,0.2,0.1,0.5,0.1,0.7L85,31.8v0
	c-0.1-0.3-0.2-0.6-0.2-0.8L85.3,31.7z M84.5,27.3l-0.1-0.2l0.4,0.5L84.5,27.3z M84.6,30l-0.3-0.4c-0.3-0.9-0.7-1.8-1.1-2.6h0
	C83.7,28,84.2,29,84.6,30z M83.3,28.6c-0.8-0.8-1.6-1.6-2.5-2.4c-0.1-0.2-0.2-0.4-0.2-0.6l-0.1-0.3c0.6,0.4,1.3,0.7,1.9,1.1
	C82.7,27.2,83,27.9,83.3,28.6z M81.6,30.6c-0.2-0.3-0.3-0.7-0.5-1l0.5,0.6L81.6,30.6L81.6,30.6z M81.9,37.5c0.2,0.5,0.3,0.9,0.5,1.4
	c0,0.1,0,0.1,0,0.2L81.9,39c-0.2-0.9-0.4-1.8-0.7-2.7L81.1,36C81.4,36.5,81.7,37,81.9,37.5z M79.3,34.9c0.6,1,1.1,2,1.6,3
	C80.4,36.9,79.9,35.9,79.3,34.9z M80.6,39.2L80.6,39.2L80.6,39.2L80.6,39.2z M62,79.6l-0.2-0.1l0.1,0l0.3-0.1L62,79.6z M62,80.2
	l-0.6,0.3l-0.1,0c0-0.3,0-0.6,0.1-0.8c0.2,0.2,0.3,0.3,0.5,0.5L62,80.2z M61.2,82.5L61.2,82.5L61.2,82.5L61.2,82.5z M56.8,85.2
	l-0.7,0.3L56.8,85.2L56.8,85.2L56.8,85.2z M56.8,87.1l-0.2-0.1h0.1v0L56.8,87.1z M56.9,87.6l-0.1,0l-0.8-0.3l0.1-0.1L56.9,87.6z
	 M55.6,84.6l0.3-0.1c0.5-0.2,0.9-0.3,1.4-0.5l-0.2,0.4C56.6,84.4,56.1,84.5,55.6,84.6z M54.2,88.5l-0.5,0.1h-0.2l-0.1-0.1H54.2z
	 M53.4,83.5l-0.1-0.1l0,0h0.2L53.4,83.5z M53.7,86.1l0.4-0.1l-0.3,0.1H53.7z M53.5,82.7h-0.8l-0.2-0.2l0.2-0.1
	c0.7-0.1,1.3-0.2,1.9-0.4C54.2,82.2,53.8,82.5,53.5,82.7z M52.8,88.6h-0.6l0.3-0.1h0.1L52.8,88.6z M52.8,84l-0.2,0.1h-0.7l0.9-0.5
	l0.2,0.2L52.8,84z M43.4,83.6l-0.8-0.2c-0.2-0.3-0.5-0.6-0.7-0.9l0.7,0.1c0.4,0.1,0.7,0.2,1.1,0.3l1,0.6L43.4,83.6z M43.7,88.7h-0.2
	c-0.4-0.2-0.7-0.4-1.1-0.7l0.5,0.1C43.1,88.3,43.4,88.5,43.7,88.7z M34,85.8c-0.5-0.3-1.1-0.8-1.7-1.1c0.5,0.2,1.1,0.4,1.6,0.6
	c0.6,0.2,1.3,0.4,2,0.6l0.5,0.3C35.6,86.1,34.8,85.9,34,85.8z M35.3,87h-0.4l-0.7-0.5L35.3,87z M32.5,84.2l0.1,0
	c0.4,0.2,0.7,0.3,1.1,0.4l0.2,0.1C33.5,84.6,33,84.4,32.5,84.2z M28.2,78l-0.1-0.1l0.9-0.1c0.4,0.1,0.7,0.1,1.1,0.1
	c0.4,0.5,0.8,0.9,1.1,1.3C30.2,78.8,29.2,78.4,28.2,78z M28.9,82.5l-0.2-0.1l-0.2-0.2L28.9,82.5z M31,76.7c-0.5-0.7-1-1.4-1.5-2.2
	c0.8,0.7,1.6,1.3,2.4,1.9L31,76.7z M22.6,33.1l-0.2,0.1l0.2-0.6C22.6,32.7,22.6,32.9,22.6,33.1z M22.5,33.6c0,0.1,0,0.2,0,0.3
	c-0.3,0.4-0.6,0.7-0.9,1.1c0.2-0.4,0.3-0.8,0.5-1.2L22.5,33.6z M22.5,34.6L22.5,34.6c0,0.4,0,0.7,0,1.1c-0.1,0.2-0.2,0.4-0.3,0.6
	c-0.1-0.3-0.2-0.6-0.3-0.9C22,35.2,22.3,34.9,22.5,34.6z M29.3,26.5l0.3-0.3c0.5-0.2,1-0.5,1.5-0.7c-0.5,0.4-1,0.8-1.5,1.2
	L29.3,26.5z M53.6,16.9C53.6,16.9,53.6,16.9,53.6,16.9L53.6,16.9L53.6,16.9z M53.9,17.9l0.5,0.4c-0.5,0.1-1.1,0.2-1.7,0.4l-0.5-0.1
	C52.8,18.3,53.4,18.1,53.9,17.9z M55,18.8l0.3,0.2l-0.8,0.2L53.8,19C54.2,18.9,54.6,18.8,55,18.8z M54.7,17.9l0.6,0.1l0.2,0.2
	l-0.4,0L54.7,17.9z M55.8,18.6h0.3l0,0l-0.2,0.1L55.8,18.6z M56.6,19.4h0.1c0.2,0.1,0.3,0.3,0.5,0.5c0,0-0.1,0-0.1,0
	C56.9,19.7,56.8,19.5,56.6,19.4z M57.6,19.5c0.3,0.2,0.6,0.5,0.9,0.7c-0.1,0-0.3-0.1-0.4-0.1C58,19.9,57.8,19.7,57.6,19.5z
	 M60.4,19.4L60.4,19.4C60,19.6,59.5,19.8,59,20c-0.4-0.3-0.8-0.7-1.2-1l1.1-0.1H59C59.5,19,59.9,19.2,60.4,19.4z M61.3,17.5
	L61.3,17.5L61,17.6L61.3,17.5z M61.6,18.9l-0.4,0.2l-0.6-0.3L61.6,18.9z M61,19.7c0.7,0.3,1.4,0.6,2.1,1c0.9,0.5,1.8,1.1,2.6,1.7
	c-1.2-0.4-2.4-0.8-3.7-1c-0.8-0.3-1.7-0.7-2.5-0.9c-0.1,0-0.1-0.1-0.2-0.1C59.9,20.1,60.5,19.9,61,19.7z M64.3,16.8h0.1l0.8,0.3H65
	v0L64.3,16.8z M74.7,23.7l0.2,0.4c-0.7-0.6-1.5-1.1-2.2-1.7l0,0C73.4,22.9,74,23.3,74.7,23.7z M73,19.6l0.7,0.2l0.9,1.2
	C74.1,20.6,73.5,20.1,73,19.6z M78.7,31.9c0,0.1,0,0.2,0,0.3c-0.4-0.4-0.8-0.7-1.3-1.1c-0.1-0.4-0.1-0.7-0.2-1.1
	C77.7,30.6,78.2,31.3,78.7,31.9z M79.3,33.9v-0.1l0.6,0.4c0.3,0.7,0.6,1.4,0.8,2.2C80.3,35.5,79.8,34.7,79.3,33.9z M79.3,35.9
	l0.3,0.5L79.3,35.9C79.3,36,79.3,35.9,79.3,35.9z M79.6,26.4L79.6,26.4c-0.1-0.2-0.2-0.5-0.3-0.7l1.4,1.6l0.1,0.4
	C80.4,27.2,80,26.8,79.6,26.4z M80.1,28.9L80,28.7l-0.2-0.3h0.1L80.1,28.9z M79.4,27.7l0.1,0.1L79.4,27.7l-0.2-0.2L79.4,27.7z
	 M80.2,31.7c-0.4-0.5-0.8-1-1.2-1.5h0c-0.1-0.4-0.1-0.8-0.2-1.1C79.2,29.9,79.7,30.8,80.2,31.7z M78.8,35c0,0.1,0,0.2,0,0.3v0
	l-0.5-0.6c-0.1-0.3-0.2-0.6-0.3-0.9C78.3,34.1,78.6,34.6,78.8,35z M78.2,32.4l0.4,0.3l-0.2-0.1L78.2,32.4z M55.7,81.8L55.7,81.8
	l0.1-0.1l0.3-0.1c-0.3,0.3-0.7,0.7-1.1,1C55.2,82.4,55.5,82.1,55.7,81.8z M53.7,81.7c0.5-0.3,0.9-0.7,1.3-1.1l0.8,0.3l-0.3,0.4
	C55,81.4,54.3,81.6,53.7,81.7z M50.8,84.1h-0.2L50.3,84l-0.1-0.4l0.6-0.2H51c0.1,0.2,0.1,0.4,0.2,0.6L50.8,84.1z M41.2,82.3l0.6,0.8
	l-0.6-0.2c-0.3-0.2-0.7-0.5-1-0.7L41.2,82.3z M40.9,81.1l0.3-0.2l0.8,0.7l-0.9-0.2L40.9,81.1z M40.2,85l-0.6-0.6
	c0.6,0.3,1.2,0.6,1.8,0.8C41,85.2,40.6,85.1,40.2,85z M41.5,87l-0.4-0.1h0.2l0,0L41.5,87z M35.4,79.6l-0.8-0.3l0.5-0.2L35.4,79.6z
	 M33.9,77.1L33.9,77.1c-0.4-0.1-0.7-0.4-0.9-0.5l0.2-0.1L33.9,77.1z M32.8,76.1l-0.3,0.1c-1-0.7-1.9-1.4-2.8-2.2l0.6-0.1
	c0.5,0.4,1,0.8,1.5,1.2C32.1,75.4,32.4,75.8,32.8,76.1z M37.2,78.8l-0.3-0.4l0.1-0.1l0.3,0.5L37.2,78.8z M37.2,81l-0.4-0.1l-0.2-0.2
	l0.4,0.1L37.2,81z M36.6,78L36.6,78C36.6,78,36.6,78,36.6,78L36.6,78z M35.6,77.5c0.2,0.3,0.3,0.5,0.5,0.8h0
	c-0.2-0.3-0.4-0.6-0.6-0.9C35.5,77.4,35.6,77.4,35.6,77.5z M36.3,80h-0.1L36,79.7L36.3,80z M36,80.5l-0.5-0.3l0.4,0.2L36,80.5z
	 M36.5,81.3L36.5,81.3L37,82c-0.5-0.3-1.1-0.6-1.6-0.9L36.5,81.3z M36.5,83.2l0.4-0.2H37c0.4,0.2,0.7,0.5,1.1,0.7l-1.2-0.1
	L36.5,83.2z M36.6,84.3L36,84.1l-0.5-0.3h0.1L36.6,84.3z M37.5,81.9l0.4,0.2l-0.2,0.1L37.5,81.9z M38.2,84.4l-0.5-0.3l1,0.1l0.5,0.6
	L38.2,84.4z M38.7,85.9l-1-0.1l-0.4-0.2l1,0.1L38.7,85.9z M38.5,82.3l0.5,0.6l-0.9-0.4L38.5,82.3z M38.4,79.8
	c0.4,0.2,0.9,0.3,1.3,0.4l0.4,0.7L40.1,81c-0.5-0.2-1-0.5-1.5-0.8L38.4,79.8z M39.2,83.7l-0.5-0.2l-0.2-0.2c0.4,0.2,0.9,0.3,1.3,0.5
	h-0.6L39.2,83.7z M40.5,84.2L40.5,84.2L40.5,84.2l0.2,0.1L40.5,84.2z M40.6,80.7l-0.1-0.2l0.2,0l0.1,0.1L40.6,80.7z M39,79.1
	l0.3,0.6c-0.4-0.1-0.9-0.3-1.3-0.5c-0.1-0.3-0.3-0.5-0.4-0.8c0.4,0.2,0.8,0.4,1.3,0.5C38.9,79,39,79,39,79.1z M51.4,81
	c0,0-0.1,0.1-0.1,0.1c0,0,0-0.1-0.1-0.1C51.3,81,51.3,81,51.4,81z M52.6,80.9c0.1,0,0.1,0,0.2,0l-0.7,0.3
	C52.3,81.1,52.5,81,52.6,80.9z M73,28.8c-0.4-0.5-0.7-0.9-1.1-1.4l0.1,0.1c0.4,0.5,0.8,0.9,1.2,1.4L73,28.8z M74.6,26.8L74,26.5
	c-0.1-0.2-0.1-0.4-0.2-0.6L74.6,26.8z M74.5,25.9c0.5,0.6,1,1.1,1.5,1.8l-0.1-0.1L74.5,25.9z M74.1,29.1v0.2h-0.1l-0.5-0.6
	L74.1,29.1z M75.2,30.6l0.2,0.3l-0.1-0.1L75.2,30.6z M75.7,32.7c0-0.1-0.1-0.2-0.1-0.4l0.3,0.3c0.5,0.7,0.9,1.4,1.3,2.1
	c0,0.1,0,0.3,0,0.5C76.8,34.4,76.3,33.5,75.7,32.7z M76,31.7l0.2,0.4L76,31.7L76,31.7z M75.9,30.7l0.2,0.1l0.1,0.1l0.1,0.2l0.2,0.3
	l-0.3-0.2L75.9,30.7z M76.8,32.3l0.2,0.1l0.1,0.2l0,0.2L76.8,32.3z M76.5,27.2c-0.1-0.5-0.3-1-0.5-1.4c0.4,0.3,0.8,0.7,1.2,1
	c0.2,0.3,0.4,0.5,0.5,0.8c0.2,0.6,0.4,1.2,0.5,1.9C77.7,28.7,77.1,27.9,76.5,27.2z M76.5,29.1c0.1,0.5,0.2,1,0.3,1.5l-0.2-0.1
	c-0.6-1.1-1.4-2.1-2.3-3l-0.2-0.5c0.5,0.3,0.9,0.5,1.3,0.8L76.5,29.1z M75.8,24.8l-0.1-0.2L76,25L75.8,24.8z M75.1,20.4l0.4,0.2
	c0.2,0.3,0.4,0.5,0.6,0.8L75.1,20.4z M75.6,23.4l-0.7-0.5l-0.1-0.1l-0.1-0.1l0.6,0.4L75.6,23.4z M75.6,20c-0.4-0.5-0.9-1.1-1.3-1.6
	c0.5,0.5,1,1.1,1.5,1.6L75.6,20z M75.3,25.1c0.1,0.4,0.3,0.8,0.4,1.2c-0.8-0.9-1.7-1.8-2.7-2.6L73,23.3
	C73.8,23.9,74.6,24.5,75.3,25.1z M73.4,27.9L73,27.6c-0.4-0.5-0.8-1.1-1.3-1.5l0.3,0.1l0.2,0.2C72.6,26.9,73,27.4,73.4,27.9z
	 M68.1,24.4l0.4,0.4l-0.2,0l-0.1-0.2L68.1,24.4z M68.8,25.3l0.5,0.1l0.2,0.2L68.8,25.3z M68.4,23.7c-0.4-0.3-0.8-0.7-1.3-1
	c-0.4-0.7-0.8-1.3-1.2-1.9c1.5,1,3,2.1,4.3,3.3L71,25C70.2,24.5,69.3,24.1,68.4,23.7z M67,23.6c0.2,0.3,0.4,0.6,0.6,0.9
	c-0.7-0.5-1.5-1-2.3-1.5C65.9,23.2,66.4,23.4,67,23.6z M31.9,24.2h-0.4l0.7-0.6L31.9,24.2z M31.7,24.7c-0.4,0.2-0.8,0.3-1.2,0.5
	l0.5-0.5H31.7z M29.7,73.4l-0.5,0.1c-0.2-0.2-0.5-0.4-0.7-0.6c-0.1-0.2-0.2-0.5-0.3-0.8C28.7,72.5,29.2,73,29.7,73.4z M32.4,76.8
	l0.7,0.5l-0.9,0.1h-0.5l-0.2-0.3L32.4,76.8z M32.2,77.9c0.5,0,1.1-0.1,1.6-0.2l0.8,0.4l0.3,0.6L33.9,79c-0.6-0.3-1.2-0.6-1.8-0.9
	L32,77.9H32.2z M34.7,80.3L34.7,80.3l-0.5-0.1l-0.5-0.5C34,79.9,34.3,80.1,34.7,80.3z M36.4,82.6l-0.4,0.1c-0.6-0.6-1.2-1.2-1.8-1.8
	C35,81.5,35.7,82.1,36.4,82.6z M35.8,84.7l-0.4-0.1l-0.3-0.1L35.8,84.7z M35.3,86.5c0.7,0.1,1.4,0.2,2.2,0.3l0.3,0.2
	c-0.5,0.1-1,0.1-1.4,0.1C36,86.9,35.7,86.7,35.3,86.5L35.3,86.5z M37.4,87.5c0.4,0,0.8-0.1,1.2-0.1c1,0.5,2,1,3.1,1.4h-0.6
	C39.8,88.4,38.6,88,37.4,87.5L37.4,87.5z M39.4,87.2c0.6,0.2,1.2,0.4,1.7,0.5v0l0.8,0.7C41.1,88,40.3,87.6,39.4,87.2z M43.3,81.6
	c-0.4-0.3-0.8-0.5-1.2-0.8l0.3,0L43.3,81.6z M42.7,80.2l0.3,0.2l-0.2-0.1L42.7,80.2z M44.2,88.3c0.4,0,0.7,0.1,1.1,0.1l-0.6,0.2
	h-0.2L44,88.3H44.2z M44.5,84.4h0.3l0,0.1l0.8,0.2h-0.2C45.2,84.6,44.8,84.5,44.5,84.4z M45.3,83.8l0.2,0.2h-0.6l-0.3-0.1L45.3,83.8
	z M45,82l0.3,0.1h-0.1L45,82z M45.8,85.3l0.5,0.1h-0.7h0L45.8,85.3z M45.8,81.6l-0.6-0.4l-0.4-0.3c0.3,0,0.7,0,1-0.1
	C45.8,81.1,45.8,81.4,45.8,81.6z M41.5,80.1l-0.1,0.1h-0.1c-0.2-0.2-0.4-0.4-0.6-0.5c0.1,0,0.1,0,0.2,0.1
	C41.2,79.8,41.3,79.9,41.5,80.1z M50,81c0.1,0,0.2,0,0.3,0c0,0.2,0.1,0.4,0.1,0.6c-0.3,0.1-0.5,0.2-0.8,0.3
	c-0.1-0.3-0.1-0.6-0.2-0.9C49.6,81,49.8,81,50,81z M49.5,84.6l-0.2,0.1l-0.5-0.3l0.4,0.1L49.5,84.6z M49.2,87.3l0.4,0.1l-0.7,0.1
	L49.2,87.3z M48.8,83.2l-0.3-0.1H49L48.8,83.2z M49.2,89.8c0.4,0.1,0.8,0.2,1.2,0.3l0.1,0.1c-0.6,0-1.3-0.1-1.9-0.2L49.2,89.8z
	 M50.1,87h1.2v0L51,87.1h-0.3L50.1,87z M51.2,89.6h0.1l0.2,0.1l0.4,0.3c-0.4-0.1-0.9-0.1-1.3-0.2L51.2,89.6z M51.5,83.7l-0.1-0.3
	h0.7L51.5,83.7z M54.4,83.8l0.8-0.7l0.7-0.1h0.4l-0.1,0.1C55.6,83.4,55,83.6,54.4,83.8z M54.6,85.3l-0.3,0.1L54.6,85.3L54.6,85.3z
	 M55.9,82.5c0.4-0.4,0.8-0.7,1.2-1.2l0,0l0.9,0.2v0.1l-0.6,0.5C56.9,82.3,56.4,82.4,55.9,82.5z M57.5,83.1L57.5,83.1L57.5,83.1
	L57.5,83.1z M59.2,86.7l-0.1,0.1c-0.4,0.2-0.8,0.3-1.1,0.5L57.5,87C58.1,86.9,58.6,86.8,59.2,86.7z M57.9,83.7l0.9-0.4l0.8-0.3
	c-0.6,0.4-1.2,0.7-1.8,1.1L57.9,83.7z M58.4,80.4L58,80.6l0.4-0.5L58.4,80.4z M58.6,82.8L58.1,83l0-0.2L58.6,82.8z M58.6,81.1
	l0.1-0.3l0.4-0.1L58.6,81.1z M59.4,81.4l0.3-0.3l0.3,0.2l-0.3,0.1L59.4,81.4z M59.2,79.8H60l-0.4,0.1L59.2,79.8z M59.9,81.9h0.3
	L60,82l-0.1,0.1L59.8,82L59.9,81.9z M60.1,80.7L60.1,80.7l0.7,0.2v0.1L60.6,81L60.1,80.7z M60.5,80.3l0.2-0.3l0.2-0.1
	c0,0.2,0,0.3,0,0.5L60.5,80.3z M56.1,80.5l-0.2-0.1c0.1,0,0.2,0,0.4-0.1L56.1,80.5z M77.8,36.3c0-0.2,0-0.4,0-0.6
	c0.2,0.3,0.3,0.6,0.5,1c0.1,0.3,0.1,0.7,0.2,1C78.3,37.2,78,36.7,77.8,36.3z M79.6,40.8c-0.2-0.6-0.4-1.2-0.6-1.7c0-0.1,0-0.2,0-0.2
	h0.2c0.5,1.4,0.8,2.8,1.1,4.2C80.2,42.4,79.9,41.6,79.6,40.8z M79.3,37.2c0-0.1,0-0.3,0-0.4c0.4,0.6,0.7,1.1,1,1.8l-0.6-0.1
	C79.5,38.1,79.4,37.6,79.3,37.2z M80.1,24.6c-0.3-0.6-0.5-1.1-0.8-1.7c0.5,0.4,1.1,0.7,1.6,1.1c0.3,0.5,0.7,1,1,1.6
	C81.3,25.2,80.7,24.9,80.1,24.6z M79.6,25.3L79.6,25.3L79,24.6l0.3,0.1L79.6,25.3z M78,22.1l0.5,0.3c0.2,0.4,0.5,0.9,0.7,1.3
	C78.8,23.1,78.4,22.6,78,22.1z M78.7,23.9l-0.6-0.3c-0.5-0.8-1-1.6-1.6-2.4l0.4,0.2C77.5,22.2,78.1,23,78.7,23.9z M73.6,16h0.3
	l0.6,0.6L73.6,16z M74.6,19.6l-0.5-0.3c-0.5-0.6-0.9-1.2-1.4-1.7h0.1C73.4,18.2,74,18.9,74.6,19.6z M72.8,16.3l-0.1-0.1l0.3,0.2
	L72.8,16.3z M69.8,18.4l-0.3,0L69.2,18h0.1L69.8,18.4z M69.5,16.4l0.6,0.6h-0.2C69.8,16.8,69.7,16.6,69.5,16.4z M69.2,17.1
	L69.2,17.1l-0.5-0.2l-0.8-0.7l0.8-0.1c0.2,0.3,0.5,0.6,0.7,0.9H69.2z M68.7,18.1L68.5,18l-0.3-0.3h0.2L68.7,18.1z M67.9,19.3
	l-0.7-0.2l-0.8-0.5H67l0.3,0.2l0.3,0.1L67.9,19.3z M68.3,15.7l-1,0.1c-0.3-0.3-0.7-0.6-1-1l1.6,0.5L68.3,15.7z M66.4,20
	c0.5,0.5,1,1,1.5,1.5c-0.8-0.6-1.7-1.1-2.6-1.7L66.4,20z M66.2,15.7l-0.6-0.3l-1.3-0.6c-0.3-0.2-0.7-0.4-1-0.6l0.8,0.1h0.2
	C64.9,14.8,65.6,15.2,66.2,15.7L66.2,15.7z M64.1,15.2l-0.3,0L63.7,15L64.1,15.2z M63.4,17.7l0.7,0.3H64l-0.7-0.3H63.4z M60.1,14
	l-0.5-0.3l0.5,0.1c0.5,0.1,0.9,0.3,1.4,0.5l0.7,0.4L60.1,14z M59.4,17.4L59,17.6l-0.8,0.3c-0.7-0.2-1.5-0.4-2.2-0.6
	c0.6-0.2,1.2-0.3,1.9-0.4C58.4,17.1,58.9,17.2,59.4,17.4z M55.1,17c-0.5-0.4-1-0.9-1.6-1.3c1.1,0.2,2.2,0.5,3.3,0.8
	C56.3,16.7,55.7,16.8,55.1,17z M51.4,18.4l-1.2-0.2l-1-0.5c0.7-0.1,1.4-0.1,2-0.1s1.2,0,1.9,0.1C52.6,17.9,52,18.1,51.4,18.4z
	 M50,19L50,19c-0.2,0-0.3,0-0.5,0c-0.7-0.2-1.5-0.3-2.2-0.4c-0.4-0.1-0.9-0.2-1.3-0.3l0.5-0.2c0.6,0.1,1.3,0.2,2,0.2l0.5,0.2L50,19z
	 M42,20c-0.1,0-0.2,0.1-0.3,0.1c0.2-0.1,0.3-0.2,0.5-0.2L42,20z M33.2,24c0.4-0.6,0.8-1.1,1.2-1.7c0.5,0,1-0.1,1.5-0.1
	c-0.5,0.3-0.9,0.6-1.4,1C34,23.4,33.6,23.7,33.2,24z M32.5,24.1c0.2-0.4,0.5-0.9,0.7-1.4l0.5-0.4C33.2,23,32.8,23.6,32.5,24.1z
	 M38.7,19.1c-0.4,0.4-0.7,0.8-1.1,1.4l0,0l-0.7,0.1l-0.6-0.1C37.1,20,37.9,19.6,38.7,19.1z M36.5,19.9l0.3-0.3l0.1,0l0.3-0.1
	L36.5,19.9z M36.4,21.2l0.6-0.1h0.1l-0.2,0.3l-0.2,0.2c-0.6,0-1.1,0-1.7,0.1l0.3-0.1C35.6,21.4,36,21.3,36.4,21.2z M35.3,20.4H35
	c-0.2,0-0.4,0-0.6,0l0.1-0.2c0.4-0.2,0.8-0.3,1.2-0.4L35.3,20.4z M34.8,21L34.8,21l-0.3,0.2L34,21.3l0.2-0.3
	C34.4,21,34.6,21,34.8,21z M39.6,18.9l0.4,0c-0.6,0.5-1.1,1-1.6,1.5C38.8,19.9,39.2,19.4,39.6,18.9z M39.7,18l-0.9,0.1l1.3-0.5
	L39.7,18z M39.3,17.5l0.5-0.5h0.5l0,0.1L39.3,17.5z M39.8,16.4h-0.5h-0.7c0.6-0.2,1.3-0.4,2-0.6v0L39.8,16.4z M40,12.9l0.6-0.3
	l1.3-0.1C41.3,12.5,40.7,12.7,40,12.9z M39.6,10.9h-0.8l1-0.1L39.6,10.9z M38.8,12.9l-0.1,0.1h-0.1L38.8,12.9z M39.3,14.6
	c-0.4,0.1-0.7,0.2-1.1,0.4l0.1-0.1C38.7,14.7,39,14.6,39.3,14.6z M38.1,14.3l-0.3,0.1l0.2-0.2l0.3-0.1L38.1,14.3z M37.3,15.2
	L37.3,15.2l-0.5,0.3l-0.2,0.1h-0.2L37.3,15.2z M36.8,17.4c0.7-0.2,1.4-0.3,2.1-0.4c-0.5,0.4-1,0.7-1.4,1.1h0l-1.2,0.6l-1,0.3
	c0.2-0.4,0.5-0.7,0.7-1.1L36.8,17.4z M35.1,18.6l-0.4,0.7l-1,0.3C34.1,19.2,34.6,18.9,35.1,18.6z M33.9,20l-0.2,0.1
	c-0.5,0.2-1,0.4-1.5,0.6l0.1-0.1C32.8,20.4,33.4,20.2,33.9,20z M32.3,21.4c0.4-0.1,0.8-0.3,1.2-0.3l-0.2,0.4
	c-0.6,0.2-1.2,0.3-1.9,0.5L32.3,21.4z M29,24.8c-0.3,0.4-0.5,0.9-0.7,1.3L27.9,26c0.2-0.4,0.4-0.8,0.6-1.1l0,0L29,24.8z M27.9,26.5
	l-0.4,0.2l0.1-0.3L27.9,26.5z M27.6,27.3c-0.3,0.4-0.5,0.8-0.8,1.3c0.1-0.4,0.3-0.7,0.4-1L27.6,27.3z M26.8,27.2L26.8,27.2
	c0-0.2,0.2-0.4,0.3-0.7C27,26.7,26.9,26.9,26.8,27.2L26.8,27.2z M28.9,27l0.2,0.1c-0.4,0.4-0.8,0.7-1.1,1.1
	C28.3,27.8,28.6,27.4,28.9,27z M23,34.8c0-0.3,0-0.5,0-0.8c0.3-0.3,0.5-0.6,0.8-0.9h0.1c0,0.1-0.1,0.2-0.1,0.4
	C23.5,33.9,23.2,34.3,23,34.8z M25.7,30.7c-0.2,0.2-0.4,0.4-0.6,0.6c0-0.2,0.1-0.5,0.2-0.7l0.1,0c0.3-0.8,0.6-1.6,1-2.5l0.2-0.2
	C26.2,28.8,25.9,29.8,25.7,30.7z M25.3,28.1l-0.6,0.4c0.3-0.5,0.7-1,1.1-1.4C25.7,27.4,25.5,27.8,25.3,28.1z M23.9,28.9
	c0.2-0.6,0.5-1.2,0.8-1.8l0.6-0.5C24.8,27.3,24.3,28.1,23.9,28.9z M24,29.9c0.3-0.3,0.7-0.6,1-0.9c-0.3,0.9-0.6,1.9-0.7,2.8l0,0.2
	c-0.2,0.2-0.5,0.5-0.7,0.7l-0.4,0.1c0.1-0.7,0.1-1.3,0.3-1.8C23.5,30.6,23.7,30.3,24,29.9L24,29.9z M23.6,28.5
	c-0.2,0.5-0.4,1-0.5,1.6c-0.5,0.5-1,1-1.5,1.5l-0.2,0.3C22.1,30.6,22.8,29.5,23.6,28.5L23.6,28.5z M22,31.8c0.2-0.2,0.4-0.5,0.7-0.7
	c-0.4,0.8-0.8,1.5-1.1,2.4l-0.3,0.2L21,33.1C21.3,32.7,21.6,32.2,22,31.8z M21.5,36c0.1,0.3,0.3,0.6,0.4,1c-0.9,2-1.7,4.1-2.1,6.3
	c-0.3,0.5-0.6,0.9-0.9,1.4c0.5-2.7,1.2-5.3,2.1-7.9L21.5,36z M18.9,45.5c-0.1,0.4-0.3,0.8-0.4,1.3c0-0.1,0-0.3,0-0.4v-0.1
	C18.7,46,18.8,45.7,18.9,45.5z M18.6,43.4c0-0.9,0.1-1.8,0.2-2.7c0.3-0.6,0.6-1.3,0.9-1.9h0C19.4,40.3,19,41.8,18.6,43.4z
	 M18.4,40.6L18.2,41c0.1-1,0.2-2,0.4-3c0.1-0.3,0.2-0.7,0.3-1l0.3-0.7C18.8,37.7,18.6,39.1,18.4,40.6z M18.5,52.6v0.1l-0.1,0.3
	c0-0.3-0.1-0.6-0.1-0.9L18.5,52.6z M18.7,54.4l0.1-0.3c0,0.3,0,0.5,0,0.8L18.7,54.4z M18.6,49.1c-0.1-0.3,0-0.5,0-0.8
	c0.2-0.8,0.4-1.6,0.7-2.3c-0.1,1.1-0.2,2.2-0.2,3.3c0,0.3-0.1,0.5-0.1,0.8C18.8,49.8,18.7,49.5,18.6,49.1z M28,75.3
	c-0.5-0.4-1-0.8-1.5-1.2l0.2,0C27.2,74.5,27.6,74.9,28,75.3z M25.7,74c1.2,1.1,2.4,2.1,3.7,3l0.1,0.2L29,77.3
	c-0.7-0.1-1.3-0.3-1.9-0.5l0,0c-0.4-0.5-0.8-1-1.2-1.5c-0.2-0.4-0.3-0.8-0.5-1.2H25.7z M27.8,80.6l-0.2-0.2l0.1,0.1L27.8,80.6z
	 M26.3,78.5L26.3,78.5l-0.2-0.1L26.3,78.5z M26,76.9L26,76.9h-0.2l-0.1-0.1L26,76.9z M27.3,81.2l0.5,0.7c-0.7-0.4-1.3-0.8-1.9-1.2
	l-0.2-0.4C26.2,80.6,26.7,80.9,27.3,81.2z M29.8,86.2l-0.6-0.2l-0.5-0.5C29.1,85.8,29.4,86,29.8,86.2z M29.5,84.6h0.4l0.2,0.2
	L29.5,84.6z M29.9,79.8c-0.2-0.3-0.5-0.5-0.8-0.8c0.6,0.2,1.2,0.5,1.8,0.7L29.9,79.8z M30.4,83.8l0.2,0.2h-0.2l-0.2-0.3L30.4,83.8z
	 M30.5,80.2c0.5-0.1,1-0.1,1.5-0.2l0,0c0.3,0.4,0.7,0.7,1,1c0.6,0.7,1.3,1.4,2,2c-1.3-0.6-2.5-1.3-3.8-2.1
	C31,80.7,30.7,80.5,30.5,80.2z M31.3,81.5c0.6,0.5,1.1,0.9,1.7,1.3l-0.7-0.2c-0.6-0.5-1.2-1-1.7-1.5L31.3,81.5z M31.8,83.8h-0.2
	l-0.4-0.2l-0.2-0.2l0.1,0.1L31.8,83.8z M31.1,84.4l0.6,0.5l0.5,0.6l-1.2-0.3l-0.4-0.7L31.1,84.4z M31.5,86.5l0.2,0.2h-0.1l-0.7-0.6
	L31.5,86.5z M33.4,87.4c0.8,0.3,1.6,0.6,2.4,0.9l0.2,0.2c-0.9-0.3-1.9-0.6-2.8-1l-0.1-0.1H33.4z M36,87.9l-0.4-0.3h0.7
	c0.7,0.3,1.4,0.6,2.1,0.9C37.6,88.3,36.8,88.1,36,87.9z M44.3,90l0.9,0.2l0.2,0.1c-1.5,0.3-2.9,0.5-4.4,0.6v0L40,90.4
	C41.5,90.3,42.9,90.2,44.3,90z M45.2,89c0.5-0.1,1-0.1,1.5-0.2L47,89l-1.5,0.3L45.2,89z M46.8,84.9L46.8,84.9L46.8,84.9L46.6,85
	v-0.1H46.8z M46.7,82.1L46.3,82l-0.1-0.1c0-0.4,0-0.7,0-1.1h0.1c0.1,0,0.2,0,0.2,0C46.6,81.2,46.6,81.7,46.7,82.1z M52.3,90.8
	L52.3,90.8c0.3,0.1,0.7,0.2,1,0.3c-1.1,0-2.1-0.2-3.1-0.3l-1-0.1c-0.3,0-0.7-0.1-1-0.2C49.5,90.7,50.9,90.8,52.3,90.8z M52.5,89.4
	l1-0.2c0.3,0.2,0.7,0.4,1,0.6C53.8,89.7,53.1,89.5,52.5,89.4z M54.2,89c0.9-0.1,1.8-0.3,2.7-0.6l0,0l0.8,0.1l0.3,0.1
	c-0.4,0.5-0.9,1-1.5,1.4C55.7,89.8,54.9,89.4,54.2,89z M56.3,90.7l1.1-0.1l-0.5,0.2h-0.7L56.3,90.7z M58.5,85.9
	c0.4-0.2,0.9-0.4,1.3-0.7c-0.1,0.2-0.1,0.4-0.2,0.6C59.2,85.9,58.8,85.9,58.5,85.9z M59.7,83.5l0.7-0.5v0.1l0,0.1L59.7,83.5z
	 M60.5,84.8l0.2-0.1l1.3-0.7l0.3,0.2l0.6,0.3c-0.3,0.2-0.6,0.5-0.9,0.7c-0.3,0.2-0.7,0.4-1.1,0.5c-0.4,0.1-0.5,0.2-0.7,0.2
	C60.3,85.4,60.4,85.1,60.5,84.8z M62.5,83.6l0.9-0.6l0.6,0.3c-0.2,0.2-0.5,0.5-0.7,0.7C63,83.9,62.8,83.8,62.5,83.6z M62.2,80.1
	c0.3-0.3,0.5-0.7,0.8-1c0.4-0.1,0.7-0.1,1.1-0.2c0-0.1,0,0,0,0h0C63.5,79.3,62.9,79.7,62.2,80.1z M63.2,78.1l-0.1,0
	C63.1,78.1,63.2,78.1,63.2,78.1C63.2,78.1,63.2,78.1,63.2,78.1L63.2,78.1z M80.9,47.3C80.9,47.3,80.9,47.4,80.9,47.3
	c0,0.1,0,0.2,0,0.3C80.9,47.5,80.9,47.4,80.9,47.3z M82.1,52.4c0-0.5,0-0.9-0.1-1.4v0C82.1,51.4,82.1,51.9,82.1,52.4z M82,59.2
	l0.2-0.5L82,59.5C82,59.4,82,59.3,82,59.2z M82,39.6l0.3,0.1c0,0.3,0,0.6,0,0.9l0,0C82.3,40.2,82.2,39.9,82,39.6z M82.2,33.9v-0.1
	c0.1,0.3,0.2,0.6,0.3,0.9l0.1,0.4C82.5,34.6,82.3,34.2,82.2,33.9z M82.5,31.6l-0.1-0.3l0.5,0.8l0.1,0.2L82.5,31.6z M82.4,29.4
	L82.4,29.4l0.1,0.1L82.4,29.4z M81.4,27.5c0.8,0.8,1.6,1.6,2.4,2.5c0.1,0.3,0.2,0.5,0.3,0.8C83.2,29.6,82.3,28.5,81.4,27.5z
	 M84,31.9l0.7,0.8c0.2,0.6,0.3,1.2,0.4,1.8L85,34.3c-0.5-1.1-1.1-2.1-1.7-3.2L84,31.9z M85.2,36.1c0.1,0.2,0.1,0.3,0.2,0.5
	c0.1,0.6,0.2,1.1,0.2,1.7h-0.1l-0.4-0.4c-0.2-1-0.4-2-0.7-3C84.6,35.3,84.9,35.7,85.2,36.1z M84.9,45.3c-0.1,0.4-0.2,0.8-0.3,1.2
	c0-0.7-0.1-1.5-0.2-2.1l0,0c0-1.3-0.2-2.6-0.4-3.9l0.1,0l0.2,0.4C84.6,42.3,84.8,43.8,84.9,45.3z M84.5,39.2c0.1,0.3,0.2,0.7,0.3,1
	h-0.1C84.6,39.8,84.5,39.5,84.5,39.2z M84.5,53.5L84.5,53.5l0,0.1c0,0.2-0.1,0.4-0.1,0.6c0-0.3,0-0.7,0-1c0-0.3,0.1-0.4,0.1-0.6v0.1
	C84.4,52.9,84.5,53.2,84.5,53.5z M84.4,56.6c0,0.4,0,0.8-0.1,1.2s-0.1,0.6-0.2,1H84c0-0.2,0-0.5-0.1-0.7c0-0.1,0-0.1,0-0.2
	C84.1,57.4,84.2,57,84.4,56.6z M88.2,50.1l-0.1,0.2c0-2.2-0.1-4.5-0.4-6.7l0.1-0.5l0.3,0.3c0.1,0.3,0.1,0.7,0.2,1
	C88.3,46.3,88.3,48.2,88.2,50.1L88.2,50.1z M88.1,35.5c-0.2-0.4-0.4-0.7-0.6-1.1c-0.2-0.5-0.4-1-0.6-1.5c0-0.9-0.1-1.7-0.3-2.6
	c0.5,0.9,1,1.8,1.5,2.8C88.2,33.9,88.2,34.7,88.1,35.5z M87.6,30.5l0.6,0.6c0,0.1,0,0.2,0,0.3c0,0.1,0,0.2,0,0.3
	C88.1,31.3,87.9,30.9,87.6,30.5z M85.4,26.9L85.4,26.9c0.1,0.3,0.2,0.6,0.3,0.9l-0.3-0.4c-0.5-0.7-1-1.3-1.6-1.9
	c-0.6-1.5-1.4-2.9-2.3-4.3l0.7,0.5C83.6,23.2,84.7,24.9,85.4,26.9z M82.5,24.2L82.5,24.2c-0.3-0.2-0.5-0.4-0.8-0.6
	c-0.8-1.3-1.7-2.6-2.7-3.8l1.1,0.7C81,21.6,81.8,22.9,82.5,24.2z M79.1,21.6l-0.7-0.3c-0.2-0.3-0.4-0.7-0.6-1
	c0.2,0.2,0.4,0.4,0.6,0.6C78.6,21.1,78.9,21.4,79.1,21.6z M77,18.7l0.1,0.1l0.6,0.3c0.4,0.5,0.9,1,1.3,1.5
	C78.3,19.9,77.7,19.3,77,18.7z M78.5,18.6c-0.3-0.2-0.6-0.3-0.9-0.4c-0.7-0.8-1.5-1.5-2.4-2.1l0.8,0.1c1,0.8,2,1.7,2.8,2.6
	L78.5,18.6z M74.5,15.5c-0.4-0.3-0.8-0.6-1.3-0.9c-0.4-0.4-0.8-0.8-1.3-1.1c1,0.5,1.9,1,2.8,1.6l0.6,0.4L74.5,15.5z M72.8,15
	l0.6,0.5h-0.5c-1.3-0.9-2.7-1.7-4.1-2.4C70.1,13.6,71.5,14.2,72.8,15z M67.8,12.2l-0.3-0.4c0.8,0.2,1.7,0.5,2.5,0.9
	c0.3,0.3,0.7,0.5,1,0.8C70,12.9,68.9,12.5,67.8,12.2z M66.8,11.1L66.8,11.1l-0.4-0.4h0.2c0.5,0.2,1,0.5,1.5,0.8
	C67.6,11.3,67.2,11.2,66.8,11.1z M64,9.1l-0.5-0.3c1.6,0.4,3.1,0.9,4.6,1.4c-0.5,0-1,0-1.5,0C65.8,9.7,64.9,9.4,64,9.1z M65.5,10.8
	L65,10.7h0.3l0,0L65.5,10.8z M66.3,11.5l0.4,0.3c-0.4-0.1-0.8-0.2-1.2-0.3l-1.2-0.4C64.9,11.2,65.6,11.3,66.3,11.5z M64.3,12.7
	c1,0.5,2.1,1.1,3,1.8c-0.6-0.1-1.1-0.3-1.7-0.4c-0.7-0.6-1.4-1.1-2.1-1.6L64.3,12.7z M63.5,11.8l-0.2-0.1L63.5,11.8l0.4,0.1
	L63.5,11.8z M59.2,11.9c-0.2,0.1-0.3,0.2-0.5,0.3c-0.4-0.1-0.7-0.2-1.1-0.4C58.1,11.8,58.6,11.9,59.2,11.9z M59.8,14.4l0.4,0.3
	c-0.7-0.2-1.4-0.4-2.1-0.5l0,0c-0.4-0.2-0.9-0.4-1.3-0.5C57.8,13.8,58.8,14.1,59.8,14.4z M58.2,16.3h-0.3c-1.3-0.4-2.6-0.8-4-1.1
	h0.7C55.8,15.6,57,15.9,58.2,16.3z M50.9,11.3l-0.4-0.1h0.6L50.9,11.3z M51.8,11.5l0.3-0.1l0.3,0.1l-0.4,0L51.8,11.5z M55.7,12.9
	l-1.1-0.2l-0.1-0.1h0.1h0.7l0.7,0.3H55.7z M54.4,10.6l-0.9-0.4c0.6,0,1.1,0,1.7,0.1l0.5,0.2L54.4,10.6z M53.5,10.7l-0.7,0.1h-0.1
	c-0.5,0-1-0.1-1.5-0.1l-1.4-0.4l0.5-0.1c0.6,0,1.2-0.1,1.8-0.1C52.6,10.3,53.1,10.5,53.5,10.7z M51.2,14.6l0.2,0.2h-0.5l-1.1-0.1
	l-0.3-0.1l-0.7-0.2l0.3-0.1C49.8,14.4,50.5,14.5,51.2,14.6z M49.5,12.9l0.6-0.1L49.6,13L49.5,12.9z M47.3,13.3
	c0.5-0.1,0.9-0.2,1.4-0.3l0.2,0.1L47.3,13.3z M47.7,15.1L47.7,15.1l0.2,0l-0.8,0.1v0h-0.1l0.2-0.1H47.7z M49.4,15.4
	c1,0.4,1.9,0.9,2.8,1.4c-1.3,0-2.7,0.1-4,0.4c-1-0.4-2-0.8-3.1-1.1C46.5,15.8,47.9,15.6,49.4,15.4z M47.3,17.4L47.3,17.4
	c-1.2-0.3-2.4-0.6-3.6-0.8l0.2-0.1l0.2-0.1C45.2,16.7,46.2,17,47.3,17.4z M44,15.9l-0.5-0.1c0.3-0.2,0.6-0.3,0.9-0.5h0.5L44,15.9z
	 M42.8,18.7c-1.2,0.4-2.4,0.9-3.5,1.5c0.5-0.5,1-1,1.6-1.4C41.5,18.7,42.1,18.7,42.8,18.7z M41.2,17.8l0.2-0.1L41.2,17.8L41.2,17.8z
	 M41.6,16.4H41h-0.4l0.7-0.5L42,16L41.6,16.4z M41.5,9.3L41.5,9.3l0.4-0.1L41.5,9.3z M41.7,10l-0.4,0.2l-1.4,0.1
	C40.5,10.2,41.1,10.1,41.7,10z M39.9,9.7l0.3-0.2l0.3,0.1L39.9,9.7z M39,8.3c-0.4,0.1-0.7,0.2-1,0.3l-0.5-0.1L39.1,8l1.4-0.4
	C40,7.8,39.5,8,39,8.3z M39.1,9.6L38.6,10c-0.7,0.2-1.5,0.5-2.2,0.8l-1,0.2c0.5-0.3,1-0.6,1.5-0.9C37.6,9.9,38.3,9.7,39.1,9.6z
	 M31.3,18.7l1.3-0.6l-0.4,0.5l-0.5,0.3l-0.9,0.5L31.3,18.7z M30.9,17.3c0.7-0.5,1.4-1.1,2.1-1.6l-0.5,0.7c-0.4,0.3-0.8,0.6-1.3,0.9
	l0,0L30.9,17.3z M31,20c-0.4,0.3-0.8,0.7-1.2,1l0.2-0.3C30.3,20.5,30.7,20.2,31,20z M25.3,23.5l-0.8,0.7l-0.2,0.1
	c1-1.3,2.2-2.5,3.4-3.6C26.8,21.7,26,22.6,25.3,23.5z M24.7,26.2c-0.3,0.4-0.6,0.7-0.9,1.1s-0.6,0.7-1.1,1.1
	c0.2-0.4,0.4-0.7,0.6-1.1l0,0l0.8-0.8L24.7,26.2z M24,22.2l-0.7,0.4l0.9-0.9L24,22.2z M23.8,25.5L23.8,25.5
	c-0.3,0.3-0.6,0.7-0.9,1.1l-0.6,0.6l0.1-0.2C22.9,26.5,23.3,26,23.8,25.5z M21.9,25.1c-0.3,0.1-0.5,0.2-0.8,0.4l0-0.1
	c0.5-0.4,1-0.8,1.5-1.2L21.9,25.1z M21.5,26.9c-0.2,0.3-0.4,0.7-0.6,1l-0.6,0.8c0,0,0-0.1,0-0.2C20.6,28,21,27.4,21.5,26.9z
	 M20.7,31.6l-0.1,0.2L20.7,31.6l0.2-0.4L20.7,31.6z M20.7,33.9l-0.2,0.1l-0.3,0.2l0.1-0.2l0.3-0.5L20.7,33.9z M20.3,32.3l0,0.2
	c-0.1,0.2-0.2,0.4-0.2,0.6l-0.3,0.5C20,33.2,20.1,32.8,20.3,32.3z M20,35.2c0.3-0.3,0.6-0.5,0.9-0.7l0.1-0.1l0,0.3
	c-0.3,0.8-0.6,1.5-0.8,2.3c-0.4,0.7-0.8,1.3-1.1,2C19.3,37.8,19.6,36.5,20,35.2z M19.3,29.9l0.5-0.7v0.1L19.3,29.9z M19.5,27.4
	L19,27.7c0.3-0.4,0.5-0.7,0.8-1.1C19.7,26.9,19.6,27.1,19.5,27.4z M18.6,62.6L18.6,62.6c0-0.1-0.1-0.3-0.1-0.4
	c0.2,0.4,0.3,0.7,0.5,1.1c0,0.1,0,0.2,0,0.3C18.8,63.3,18.7,63,18.6,62.6z M19.1,71.2l0.1,0.1L19,71L19.1,71.2z M19,61.1l0.2-0.5
	l0,0.5c0,0.3,0,0.6,0,0.9C19.2,61.7,19.1,61.4,19,61.1z M26.5,70.2c0.1,0.3,0.2,0.6,0.4,0.9c-0.3-0.4-0.6-0.8-0.9-1.2l-0.3-0.5
	c-0.1-0.2-0.1-0.3-0.2-0.5C25.8,69.3,26.1,69.8,26.5,70.2z M23.7,68.2v0.2l-0.1-0.4L23.7,68.2z M23.1,70.5c-0.3-0.5-0.5-1.1-0.7-1.6
	c0.4,0.5,0.7,0.9,1.1,1.4l0.2,0.7c0,0.1,0,0.1,0,0.2C23.4,71,23.2,70.8,23.1,70.5z M23.4,75.5l-0.2-0.2h0.1l0.1,0.1L23.4,75.5z
	 M20.1,70.7c0-0.1,0-0.2,0-0.3c0.5,0.7,1.1,1.4,1.8,1.9l0.1,0.4c0.2,0.5,0.4,0.9,0.6,1.4l-1-1c-0.1-0.2-0.3-0.3-0.4-0.5
	c-0.1-0.2-0.3-0.5-0.5-0.8v0C20.5,71.5,20.3,71.1,20.1,70.7z M19.8,66.4c0.2,0.4,0.4,0.8,0.6,1.1c0.1,0.5,0.3,1,0.4,1.6
	c-0.3-0.5-0.5-1-0.7-1.6c-0.1-0.3-0.2-0.5-0.3-0.8l0,0V66.4z M19.7,65.2C19.7,65.2,19.7,65.2,19.7,65.2l0-0.1l0.2,0.4L19.7,65.2z
	 M20.2,60.8l0.1-0.1c0.7,1.7,1.4,3.3,2.2,4.9c0.2,1.2,0.4,2.4,0.7,3.5c-0.5-0.7-1-1.4-1.5-2.2C21,65,20.5,62.9,20.2,60.8L20.2,60.8z
	 M19.9,68.3c0.4,0.9,0.8,1.7,1.2,2.5c-0.4-0.5-0.8-1-1-1.5C19.9,69,19.9,68.7,19.9,68.3L19.9,68.3z M19.6,70.8l0,0.2l0-0.1l-0.1-0.4
	L19.6,70.8z M20,73.3l-0.2-0.1l-0.3-0.5L20,73.3z M23.5,77.4L23.5,77.4l-0.6,0l-0.3-0.3c-0.2-0.3-0.3-0.5-0.4-0.8
	C22.5,76.7,23,77.1,23.5,77.4z M22.5,75.6l0.5,0.3c0.4,0.5,0.8,0.9,1.2,1.4L23.8,77C23.3,76.5,22.9,76.1,22.5,75.6z M24.5,75.2
	l-0.2-0.4c0-0.2,0-0.4-0.1-0.6c0.4,0.7,0.9,1.3,1.3,1.9L25,75.8L24.5,75.2z M26.2,82.8L26.2,82.8l0.2,0.2l0.1,0.1
	c-0.6-0.6-1.2-1.2-1.8-1.8C25.2,81.8,25.7,82.3,26.2,82.8z M27.6,87c-1.5-0.8-2.9-1.8-4.2-2.9l0.4,0.1h0.1c0.7,0.4,1.4,0.8,2.1,1.1
	C26.5,85.9,27.1,86.5,27.6,87z M27.2,85.9L27.2,85.9l0.8,0.3l0.8,0.6c0.5,0.5,1,0.9,1.5,1.3c-0.3-0.1-0.7-0.3-1-0.4
	C28.5,87.2,27.8,86.6,27.2,85.9z M33.5,89.8h-0.2L33,89.5L33.5,89.8z M33.3,90.7l1,0.7c-0.4-0.3-0.9-0.5-1.3-0.8L33.3,90.7z
	 M36.5,91.5l-0.2-0.2l0.8,0.1c0.4,0.3,0.9,0.6,1.3,0.8C37.8,92,37.2,91.7,36.5,91.5z M37,92.5c-0.4-0.3-0.9-0.5-1.3-0.8l0.7,0.3
	L37,92.5z M38,90.9l-0.6-0.4c0.5,0,1.1,0,1.6,0l0.8,0.4C39.3,90.9,38.7,90.9,38,90.9z M52.2,92.8c1.4-0.2,2.7-0.4,4.1-0.7
	c0.4,0.1,0.9,0.3,1.3,0.4c-0.9,0.4-1.9,0.7-2.8,1.1c-1.9,0.1-3.7,0.1-5.6-0.1l0,0C50.2,93.2,51.2,93,52.2,92.8z M58.2,92.7l0.3-0.1
	l0.6,0.1l-0.3,0.2c-0.5,0.1-0.9,0.2-1.4,0.3L58.2,92.7z M58.3,92.1C58,92,57.6,92,57.3,91.9c1.2-0.3,2.3-0.7,3.4-1.1l0,0
	C59.9,91.2,59.1,91.7,58.3,92.1z M62.3,90.6L62.3,90.6c-0.8,0.7-1.6,1.2-2.5,1.7l-0.6-0.1C60.3,91.8,61.3,91.2,62.3,90.6z
	 M62.2,87.3l0.8-0.2v0L62.2,87.3z M64,82.8c0.5-0.3,1-0.6,1.4-0.9v0.1c-0.4,0.3-0.7,0.7-1,1l0,0L64,82.8z M65.8,82.2l0.2-0.2
	c0.3-0.3,0.5-0.6,0.8-0.9l0.3-0.1c-0.5,0.6-1,1.1-1.6,1.6L65.8,82.2z M67.8,80.9L67.8,80.9c0.3,0,0.6-0.1,0.9-0.2
	c-0.8,0.7-1.7,1.4-2.6,2.1C66.7,82.2,67.3,81.6,67.8,80.9z M68.1,79.3c0.2-0.4,0.5-0.8,0.7-1.1l0.5,0.1l-0.2,0.2L68.1,79.3z
	 M69.7,79.8L69.7,79.8l-0.8,0.3L69.7,79.8z M79.1,61.8L79.1,61.8L79,61.4l0.6-1.2l0.1,0.3C79.6,60.9,79.3,61.4,79.1,61.8z
	 M79.3,67.4l-0.2,0.4c0,0,0,0,0-0.1l0,0L79.3,67.4z M78.3,68.1L77.7,69c0-0.1,0-0.2,0-0.2c0.3-0.5,0.7-1.1,1-1.7c0,0.1,0,0.1,0,0.2
	C78.6,67.5,78.5,67.8,78.3,68.1z M78.7,68.7v0.1l-0.3,0.5L78.7,68.7z M77.6,67.7c0-0.1,0-0.2,0-0.3c0.2-0.5,0.5-0.9,0.8-1.4
	C78.2,66.6,77.9,67.1,77.6,67.7z M78,63.7l0.5-1.2v0.3L78,63.7z M78.7,73.5l0.1-0.1l-0.1,0.2V73.5z M77.4,65.6
	c0.3-0.5,0.7-1.1,1-1.6c-0.3,0.6-0.6,1.2-1,1.8V65.6z M77.4,73c0.3-0.5,0.5-1,0.7-1.6l0.1-0.1l0.3-0.2c0,0.2,0,0.4,0,0.5
	c-0.3,0.6-0.7,1.2-1.1,1.7L77.4,73z M79.1,74.1v0.3l-0.7,0.9l0-0.1C78.6,74.9,78.8,74.5,79.1,74.1z M78.9,72.6c0-0.1,0-0.3,0-0.4
	l0.5-0.8c0,0.2,0,0.4,0,0.6L78.9,72.6z M79.4,63.3L79.4,63.3c0.3-0.7,0.5-1.3,0.8-1.9v0.1c-0.2,0.4-0.4,0.9-0.6,1.3L79.4,63.3z
	 M79.7,73.1c0.5-0.8,0.9-1.6,1.3-2.4l0.2-0.3c-0.5,1.1-1,2.2-1.6,3.2C79.6,73.4,79.6,73.2,79.7,73.1z M79.8,71.4c0-0.3,0-0.5,0-0.8
	v0c0.3-0.5,0.5-1,0.8-1.5l0.6-0.6C80.8,69.4,80.3,70.4,79.8,71.4z M80.8,67.4c0.1-0.2,0.1-0.5,0.2-0.7l0.4-0.8
	C81.2,66.5,81,67,80.8,67.4z M81.6,64.5L81.6,64.5l-0.1-0.2c0-0.1,0-0.3,0.1-0.4c0.5-1.2,1-2.4,1.5-3.6c-0.1,0.7-0.3,1.4-0.5,2.1
	S82,63.8,81.6,64.5z M83,33.6L82.8,33l-0.1-0.3c0.3,0.3,0.5,0.7,0.8,1c0.4,1.2,0.7,2.4,1,3.6h0l-0.1-0.1C84,36,83.6,34.8,83,33.6z
	 M83.5,68.2c0.7-1.2,1.3-2.5,1.8-3.7c-0.3,1-0.7,2.1-1.1,3.1s-0.8,2-1.3,2.8C83.2,69.7,83.4,68.9,83.5,68.2z M85,71.3
	c0.3-0.5,0.5-1.1,0.8-1.6c1.5-2.2,2.9-4.4,4-6.8c-1.1,3.7-2.8,7.3-5.1,10.4l-0.2,0.2C84.7,72.7,84.9,72,85,71.3z M90.7,61.5
	L90.7,61.5c0.1-0.5,0.2-1,0.3-1.5c0.1-0.2,0.2-0.4,0.2-0.6c0.4-1,0.7-2.1,0.9-3.1c0,1,0,2.1-0.1,3.2c-0.1,0.7-0.2,1.4-0.3,2.1
	c-1.2,3-2.6,5.8-4.4,8.4C88.8,67.3,89.9,64.4,90.7,61.5z M91.2,41.5l0.1-0.3c0.1,0.5,0.3,0.9,0.4,1.4C91.5,42.2,91.4,41.8,91.2,41.5
	z M88.9,37l-0.3-0.7c0-0.6,0.1-1.1,0.1-1.7C88.8,35.4,88.9,36.2,88.9,37z M88.6,39.6c0,0.1,0,0.2-0.1,0.3h0.2
	c0.2,0.9,0.3,1.7,0.5,2.6c-0.3-0.6-0.5-1.3-0.8-1.9l0.1,0L88.2,40c0.1-0.4,0.1-0.9,0.2-1.3C88.4,39,88.5,39.3,88.6,39.6z M88.3,26.5
	c0-0.1,0-0.2,0-0.3c0.3,0.4,0.5,0.7,0.7,1.1L88.3,26.5z M88.1,25L88.1,25c-0.2-0.7-0.4-1.3-0.6-2c0.7,1.3,1.3,2.6,1.8,3.9
	C89,26.3,88.5,25.7,88.1,25z M87.7,25.3c0,0.2,0,0.4,0.1,0.6l-0.1,0c-0.4-0.5-0.9-1-1.5-1.5c-0.7-1.3-1.6-2.6-2.5-3.7
	C85.1,22.1,86.4,23.6,87.7,25.3z M77,15.8c-0.9-1-1.9-1.9-2.8-2.7c0.9,0.5,1.8,1.1,2.7,1.7c0.5,0.4,1,0.8,1.6,1.2
	C78,15.9,77.5,15.8,77,15.8z M76.2,15.6c-0.4-0.3-0.8-0.6-1.2-0.8c-1.5-1-3.1-1.9-4.8-2.5c-0.8-0.6-1.7-1.1-2.5-1.5
	c0.7,0,1.3,0,1.9,0.1c0.7,0.3,1.5,0.7,2.2,1C73.3,12.9,74.8,14.2,76.2,15.6z M69.4,10.2C69.4,10.2,69.4,10.2,69.4,10.2L69.4,10.2
	L69.4,10.2z M70.8,10.3l-0.8-0.4c-0.7-0.4-1.4-0.8-2.1-1.2c2.2,0.6,4.3,1.3,6.3,2.2C73.1,10.6,71.9,10.4,70.8,10.3z M69,10
	c-2.1-0.8-4.3-1.5-6.5-2L62.4,8c0.5,0,1.1,0,1.6,0C65.7,8.6,67.4,9.3,69,10z M62.9,7.1c-1.4-0.4-2.8-0.8-4.3-1.2
	c1.6,0.3,3.1,0.7,4.6,1.2L62.9,7.1z M62.5,7.5l-0.9,0l-0.5-0.3L62.5,7.5z M62.2,8.5l-0.6-0.2l0.5,0.1L62.2,8.5z M63.8,9.5
	c0.3,0.3,0.6,0.5,0.9,0.7c-0.6,0-1.2,0.1-1.8,0.2l-1.1-0.1l-0.5-0.2c-0.7-0.3-1.4-0.5-2.1-0.7c-0.6-0.3-1.1-0.6-1.7-0.9l1.6-0.2
	C60.7,8.5,62.3,9,63.8,9.5z M54.3,8.6c-0.4,0-0.9,0-1.3-0.1h-0.3c-1-0.1-2-0.1-3-0.2h-0.3c1.8-0.4,3.6-0.5,5.5-0.5l1,0.4L54.3,8.6z
	 M43.4,10.7l-0.7,0.2l0.3-0.2H43.4z M41,8.8L41,8.8c0.7-0.1,1.3-0.2,1.9-0.2C42.3,8.7,41.6,8.7,41,8.8z M40.9,7.9L41,7.8
	c0.9-0.4,1.9-0.8,2.8-1.2v0h0.1c-0.7,0.3-1.5,0.7-2.2,1.2L40.9,7.9z M43.2,6.2c-2.4,0.3-4.7,0.9-7,1.6c2.5-1.1,5.2-1.7,7.9-1.9
	L43.2,6.2z M38,7.8l-1.8,0.6H36C36.7,8.2,37.3,8,38,7.8z M27.7,13.4l0.9-0.7c0.6-0.3,1.2-0.5,1.9-0.8L30.2,12
	c-0.7,0.4-1.4,0.9-2.1,1.3l-0.8,0.4L27.7,13.4z M32.6,14.5l-1.3,0.6c-0.5,0.2-1.1,0.4-1.6,0.6C30.6,15.2,31.6,14.8,32.6,14.5z
	 M31.8,15.4L31.8,15.4L31.1,16c-1.1,0.7-2.2,1.4-3.3,2.2c-0.4,0.2-0.8,0.3-1.2,0.5L27,18C28.6,17,30.2,16.2,31.8,15.4z M24.9,20.5
	c-0.6,0.5-1.1,1-1.7,1.6c0.5-0.7,0.9-1.3,1.4-1.9l0.6-0.4L24.9,20.5z M22.4,21.8l-0.4,0.5c-0.6,0.8-1.2,1.5-1.8,2.3l-1.1,0.8
	C20.1,24.1,21.2,22.9,22.4,21.8z M19.5,26l-0.3,0.4l-0.9,0.8c0.1-0.2,0.2-0.3,0.3-0.5L19.5,26z M18.2,25.6c-0.3,0.4-0.5,0.8-0.7,1.3
	l-0.3,0.3l0.3-0.5c0.3-0.6,0.7-1.1,1-1.6L18.2,25.6z M18.2,28l-0.4,0.5l0.1-0.2L18.2,28z M17.1,30.9l0.4-0.8
	c0.3-0.5,0.5-0.9,0.8-1.4l0.9-0.6L19,28.5c-0.7,1-1.4,1.9-2,2.9L17.1,30.9z M18.5,30.1l-0.1,0.3c-0.7,1-1.3,2.1-1.9,3.2l0,0l0.2-0.7
	C17.2,32,17.8,31.1,18.5,30.1z M16.5,30.5l0.1-0.5h0l-0.1,0.4L16.5,30.5z M16.5,28.8l-0.3,0.3l0.3-0.8l0.3-0.2
	C16.8,28.3,16.7,28.5,16.5,28.8z M17.1,34.7L17,34.9c-0.4,0.8-0.7,1.6-1,2.4l-0.2,0.3c0-0.4,0-0.8,0.1-1.2
	C16.3,35.8,16.7,35.2,17.1,34.7z M15.6,31.9l-0.2,0.3c0.1-0.5,0.2-1.1,0.4-1.6l0,0l0.1-0.1C15.8,30.9,15.7,31.4,15.6,31.9z M15.5,43
	c0,0.2,0.1,0.5,0.1,0.7l0,0c-0.1,0.8-0.2,1.5-0.2,2.3c-0.1,0.5-0.3,1-0.4,1.5l0.3,0.1c0,1.6,0.1,3.2,0.3,4.8
	c-0.4,1.4-0.7,2.9-0.9,4.3c-0.2-1.7-0.4-3.4-0.6-5C14.3,48.8,14.8,45.9,15.5,43z M15,38.1c0,0.1,0,0.3,0,0.4
	c-0.1,0.6-0.2,1.2-0.3,1.7c-0.2,0.5-0.5,1.1-0.7,1.7c0-0.7,0.1-1.3,0.2-2v0C14.4,39.3,14.7,38.7,15,38.1z M14.4,42.2L14.4,42.2
	c-0.1,0.7-0.2,1.3-0.2,1.9c-0.1,0.5-0.2,1-0.3,1.4c0-0.7,0-1.3,0-1.9C14.1,43.1,14.2,42.7,14.4,42.2z M14.3,62.4L14.2,62
	c0-0.1-0.1-0.2-0.1-0.4c-0.1-0.5-0.1-1-0.2-1.5l0.3,1c0,0.2,0.1,0.4,0.1,0.6S14.3,62.2,14.3,62.4z M14.7,44.1
	c0.2-0.9,0.4-1.7,0.6-2.6c0,0.1,0,0.2,0,0.3C15.1,42.5,14.9,43.3,14.7,44.1z M14.6,33.7c-0.3,0.6-0.6,1.2-0.9,1.8
	c0.4-1.5,0.9-2.9,1.5-4.3l0,0C15,32,14.8,32.9,14.6,33.7z M14,31.5l-0.5,0.4c0.3-0.7,0.6-1.3,1-1.9l0.3-0.2
	C14.5,30.3,14.3,30.9,14,31.5z M13.7,39v0.3c-0.5,0.9-0.9,1.8-1.4,2.8V42l0.1-0.4C12.9,40.7,13.3,39.9,13.7,39z M13.2,57.4
	c0,0.3,0,0.6,0,0.9c-0.2-1.1-0.5-2.3-0.6-3.3C12.8,55.8,13,56.6,13.2,57.4z M12.7,52.9c0.2,0.6,0.3,1.3,0.5,1.9c0,0.1,0,0.2,0,0.3
	C13,54.4,12.8,53.6,12.7,52.9z M13.5,61.3l-0.2-0.5c-0.1-0.6-0.3-1.1-0.3-1.6C13.1,59.9,13.3,60.6,13.5,61.3z M13.3,51.6
	c0,0.5-0.1,1-0.1,1.5c-0.2-0.8-0.4-1.6-0.5-2.3c0-0.2-0.1-0.5-0.1-0.7c0.2-1.6,0.4-3.1,0.8-4.7c0,1.1,0,2.3,0.1,3.4l0,0
	C13.4,49.7,13.4,50.7,13.3,51.6z M13.4,43.5c-0.5,1.6-0.9,3.3-1.1,4.9c-0.1-0.6-0.2-1.2-0.3-1.8c0-0.1,0-0.1,0-0.2
	c0.3-1.4,0.6-2.7,1-4l0.5-1.1C13.5,42.1,13.4,42.8,13.4,43.5z M12.7,39.6l0.1-0.3l0.5-1C13.1,38.8,12.9,39.2,12.7,39.6z M11.9,41.1
	L11.9,41.1c0.1,0.2,0,0.4,0,0.7l-0.2,0.5c0-0.1,0-0.3,0-0.4C11.8,41.6,11.9,41.4,11.9,41.1L11.9,41.1z M12.8,61L12.8,61
	c0.4,1.9,1,3.6,1.7,5.3c0,0.3,0.1,0.6,0.1,1c-0.2-0.3-0.3-0.6-0.5-0.9c-2.4-5.1-3.6-10.7-3.5-16.3c0-0.2,0.1-0.5,0.1-0.7
	c0.2-0.6,0.4-1.2,0.6-1.9v0.4c-0.4,2.6-0.4,5.3,0,7.9C11.6,57.5,12.1,59.3,12.8,61z M10.4,44.7c0,0.4-0.1,0.8-0.1,1.2
	c0,0.4-0.1,0.9-0.2,1.3c-0.3,1.2-0.6,2.5-0.8,3.8c-0.1-1.1-0.1-2.2,0-3.3C9.6,46.7,10,45.7,10.4,44.7z M15.1,74.1L15.1,74.1
	c0.8,1.5,1.7,3,2.7,4.4c-1.5-1.7-2.8-3.5-4-5.5C14.2,73.4,14.6,73.7,15.1,74.1z M16.7,76l0.3,0.2l0.5,0.6c0.2,0.4,0.4,0.8,0.6,1.2
	C17.5,77.3,17.1,76.7,16.7,76z M17.7,76.3l-0.2-0.5c0.3,0.2,0.6,0.4,0.9,0.5c0.1,0.3,0.2,0.7,0.3,1L17.7,76.3z M18.6,75.2
	c0.3,0.3,0.6,0.6,0.9,0.9l0.2,0.3l-0.4-0.2c-0.3-0.2-0.4-0.4-0.6-0.7L18.6,75.2z M19.1,78.8l0.1,0.4c-0.2-0.2-0.3-0.5-0.4-0.7
	L19.1,78.8z M29,88.2c0.3,0.3,0.7,0.5,1,0.8c-1.8-0.7-3.5-1.6-5.1-2.7c-0.6-0.5-1.1-1.1-1.7-1.7C25,86.2,26.9,87.4,29,88.2z
	 M28.7,89.1c-0.5-0.1-1-0.2-1.5-0.3l-0.9-0.9C27.1,88.3,27.9,88.7,28.7,89.1z M31,90l0.3,0.1c2.2,1.5,4.5,2.8,7,3.7l0.6,0.3
	c-3.7-1.1-7.3-2.5-10.7-4.4L28,89.5C29,89.7,30,89.9,31,90z M44.8,93.6h0.4c0.7,0,1.5,0,2.2-0.1c1.7,0.3,3.4,0.5,5.2,0.5h0.2
	c-1.3,0.3-2.6,0.5-3.9,0.6h0C47.5,94.4,46.2,94.1,44.8,93.6z M59.2,94.1l1.8-0.7c-0.9,0.4-1.9,0.9-2.9,1.2c-0.5,0.1-1,0.2-1.5,0.3
	L59.2,94.1z M60.6,93.1l0.4-0.2h0.1L60.6,93.1z M60.7,92.4L60.7,92.4c1.3-0.8,2.5-1.8,3.6-2.9c0.4,0,0.8-0.1,1.1-0.1h0.7
	c-1.5,1.1-3.2,2-4.8,2.8L60.7,92.4z M65.5,88.8l0.1,0h0.1L65.5,88.8z M65.8,84.7c-0.4-0.1-0.8-0.2-1.2-0.3l1-0.6
	c0.3,0.1,0.7,0.2,1,0.2L65.8,84.7z M66.1,83.5c1.1-0.8,2.1-1.6,3.1-2.5c-0.4,0.7-0.9,1.3-1.4,2l-0.7,0.6
	C66.8,83.6,66.4,83.5,66.1,83.5z M69.6,87.9L69,88c0.6-0.4,1.1-0.9,1.7-1.3C70.3,87.1,69.9,87.5,69.6,87.9z M69.4,89l0.6-0.2
	l-1.4,0.8l0.2-0.1L69.4,89z M68.8,84.7L68.8,84.7l-0.5,0.2h0l0.4-0.7h0.6L68.8,84.7z M68,83.7h-0.2l0.3-0.3l0.3-0.3
	C68.3,83.2,68.2,83.4,68,83.7z M67.5,84.1h0.2l-0.2,0.3L67,84.8h-0.1L67.5,84.1z M68.9,87.1c-0.4,0.4-0.9,0.8-1.5,1.1l-0.5,0
	C67.6,87.9,68.3,87.5,68.9,87.1z M68.1,88.6l0.5-0.1L68.1,88.6L68.1,88.6z M69.8,83.7h-0.6c0.5-0.4,0.9-0.8,1.4-1.2
	c0.3-0.3,0.5-0.5,0.8-0.8v0.2C70.9,82.5,70.3,83.1,69.8,83.7z M71.5,87.2c1.4-1.1,2.7-2.3,3.9-3.6c-1,1.3-2.1,2.5-3.3,3.7l-1,0.3
	L71.5,87.2z M71.8,82.4v-0.2c1-1.3,1.9-2.6,2.8-4l0.4-0.5l0.6,0.3l-0.1,0.3l-0.1,0.1C74.3,79.9,73.1,81.2,71.8,82.4z M75.3,77.4
	c0.3-0.4,0.6-0.8,0.9-1.2l0,0c-0.1,0.5-0.3,0.9-0.5,1.4L75.3,77.4z M76.5,79.2L76.5,79.2l-0.2,0.4L75.8,80
	C76,79.7,76.3,79.5,76.5,79.2z M76.4,77.2c0.2-0.7,0.4-1.3,0.6-2c0.4-0.3,0.7-0.7,1.1-1C78,74.4,78,74.7,77.9,75l-0.3,0.5
	C77.2,76.1,76.8,76.6,76.4,77.2z M79.1,76.1c0.1-0.4,0.2-0.8,0.3-1.2c0.2-0.4,0.4-0.8,0.7-1.2c0.5-0.8,1-1.5,1.5-2.3
	c-0.1,0.3-0.3,0.6-0.4,0.9C80.6,73.7,79.9,74.9,79.1,76.1z M82.1,73.7l0.4-0.8c0,0.1,0,0.2,0,0.3L82.1,73.7z M82,66.3l0-0.4
	c0.4-1.1,0.8-2.2,1.1-3.4l0.3-0.6v-0.1c0,0.3,0,0.5,0,0.7h0c-0.2,0.5-0.4,1-0.5,1.5C82.6,64.8,82.3,65.5,82,66.3z M82.9,67.3
	L82.9,67.3c-0.1,0.5-0.2,1-0.4,1.5l0-0.3C82.6,68.1,82.8,67.7,82.9,67.3z M82.7,76.6L82.7,76.6l0.1-0.1l0.5-0.6
	c-0.1,0.2-0.1,0.4-0.2,0.7L82.6,77C82.7,76.9,82.7,76.7,82.7,76.6z M82.9,75.2V75h0c0.4-0.7,0.8-1.4,1.2-2.1
	c-0.1,0.4-0.2,0.9-0.3,1.3L82.9,75.2z M84.1,75c1.1-1.3,2.2-2.7,3.2-4.1l0.3-0.5c1.1-1.5,2-3,2.9-4.6c-1,2.6-2.3,5.1-3.8,7.3
	c-0.9,1-1.8,1.9-2.8,2.7C84,75.6,84,75.3,84.1,75z M90,69.9c-0.2,0.7-0.4,1.4-0.7,2.1l-0.6,0.9C89.2,71.9,89.6,70.9,90,69.9z
	 M89.6,72.4L89.6,72.4c0.3-0.5,0.6-1,1-1.5c-0.4,0.9-0.9,1.8-1.4,2.7C89.4,73.2,89.5,72.8,89.6,72.4z M90.3,70.5
	c0.3-0.9,0.5-1.7,0.7-2.6l0.2-0.4c0.4-0.8,0.9-1.5,1.3-2.3c-0.2,0.8-0.4,1.6-0.7,2.4l-0.1,0.2C91.3,68.7,90.8,69.6,90.3,70.5z
	 M92.3,64.8c0.4-1,0.7-2,1-3.1h0c-0.1,0.5-0.2,1-0.2,1.5C92.9,63.6,92.5,64.2,92.3,64.8z M91.8,64.6c0.1-0.6,0.2-1.1,0.3-1.7
	c0.3-1.1,0.6-2.1,0.9-3.2c0.2-0.7,0.4-1.4,0.6-2.2C93.3,59.9,92.6,62.3,91.8,64.6z M93.5,36.6c-0.1-0.5-0.2-1-0.4-1.5
	c0.2,0.6,0.5,1.3,0.7,1.9L93.5,36.6z M93.5,46c0,0.6,0,1.3,0,2c-0.1-0.6-0.3-1.1-0.4-1.7c-0.4-1.9-0.9-3.9-1.5-6l-0.1-0.2
	c0.3-1.5,0.5-3,0.7-4.5C93,39,93.4,42.5,93.5,46z M91.8,34.3c-0.5-0.7-1.1-1.3-1.6-1.9c-0.5-1.1-1-2.2-1.5-3.2
	c0-0.6-0.1-1.2-0.2-1.8c0.8,1,1.6,2,2.3,3c0.4,1.2,0.8,2.4,1.1,3.7C91.8,34.2,91.8,34.2,91.8,34.3z M87.3,20.8
	c1.2,1.1,2.2,2.5,2.9,4c0.9,1.8,1.4,3.8,1.5,5.8C90.6,27.2,89.1,23.9,87.3,20.8z M87.3,24.1c-1.5-1.9-3.1-3.6-4.8-5.3
	c-0.6-0.6-1.2-1.1-1.9-1.7c1.6,0.5,3.1,1.1,4.5,2l0.4,0.6l0.4,0.6C86.5,21.5,87,22.8,87.3,24.1z M79.7,16.3
	c-0.7-0.6-1.4-1.1-2.2-1.6c-1.8-1.4-3.6-2.6-5.5-3.7c1.7,0.2,3.3,0.6,4.9,1.2c2.7,1.5,5.2,3.5,7.3,5.8
	C82.7,17.3,81.3,16.7,79.7,16.3z M77.1,11.8c-3-1.6-6.1-2.8-9.4-3.7h0.5c4.1,0.4,8,2,11.3,4.5l0.7,0.7
	C79.2,12.7,78.2,12.2,77.1,11.8z M68.3,7.6c-0.9-0.1-1.9-0.2-2.9-0.2c-2.7-1.2-5.6-2-8.6-2.3c-0.8-0.1-1.5-0.1-2.3-0.1
	c-0.4,0-0.9-0.1-1.3-0.2L52,4.7c1.5-0.3,3.1-0.5,4.7-0.6C63.5,4,70.2,6,75.9,9.8C73.5,8.6,70.9,7.9,68.3,7.6z M54.3,5.6
	c0.7,0.1,1.3,0.2,2,0.3c0.4,0.1,0.8,0.2,1.2,0.4v0L55.1,6C54,5.9,53,5.9,52,5.8C52.7,5.7,53.5,5.6,54.3,5.6z M55,6.5
	c1.5,0.1,3,0.3,4.4,0.5c0.4,0.3,0.8,0.4,1.2,0.7h-0.4l-0.6-0.1c-1.6-0.2-3.2-0.3-4.9-0.3c-1-0.4-1.9-0.7-2.9-1C53,6.3,54,6.4,55,6.5
	z M45.3,7.8c-0.4,0-0.8-0.1-1.2-0.1c-0.4,0-0.9,0-1.3,0c0.9-0.5,1.9-0.9,2.8-1.3c0.9-0.1,1.8-0.1,2.8-0.2
	C47.4,6.7,46.3,7.2,45.3,7.8z M45.8,5.4c-4.3-0.1-8.5,1-12.2,3.1c-1.7,0.2-3.3,0.7-4.7,1.6c-1.3,0.8-2.5,1.7-3.5,2.8
	c-3.9,1.7-7.6,3.9-11,6.3c-1.5,1.3-3,2.8-4.3,4.3l0.5-0.7c4.6-7,9.5-11.4,16-14.3c6.6-3.1,13.9-4.3,21.2-3.7
	C47.1,5,46.4,5.2,45.8,5.4z M30.4,13.3L30.4,13.3c-0.6,0.6-1.1,1.1-1.6,1.7l-0.2,0.2c-1.9,0.8-3.7,1.8-5.4,2.9
	c0.5-0.5,1.1-1.1,1.7-1.6C26.5,15.2,28.4,14.1,30.4,13.3z M23.1,17.2l-0.4,0.3c-0.2,0.2-0.4,0.4-0.6,0.6c0.3-0.4,0.6-0.8,0.9-1.1
	c0.1-0.2,0.3-0.3,0.5-0.5l0.6-0.4C23.8,16.4,23.4,16.8,23.1,17.2z M22.4,16.7c-0.3,0.3-0.7,0.5-1,0.8c0.4-0.4,0.8-0.7,1.2-1.1
	L22.4,16.7z M21.7,17.8c-0.6,0.8-1.2,1.6-1.7,2.3c-0.9,0.6-1.8,1.3-2.6,2c0.3-0.5,0.6-0.9,1-1.3C19.4,19.8,20.5,18.8,21.7,17.8z
	 M18.5,22c-0.6,0.8-1.2,1.5-1.8,2.3c-0.4,0.4-0.8,0.8-1.2,1.2c0.3-0.6,0.6-1.2,1-1.8C17.1,23.1,17.8,22.5,18.5,22z M15.9,27.6
	c-0.2,0.3-0.3,0.7-0.5,1l-0.1,0.1C15.4,28.3,15.7,28,15.9,27.6z M14.6,27.4l0.3-0.7l0.4-0.4C15,26.7,14.8,27,14.6,27.4z M14.3,26.8
	c-0.6,0.7-1.2,1.3-1.7,2c-0.4,0.5-0.8,1-1.1,1.5c0.9-1.6,1.9-3.2,2.9-4.6l0.9-0.9C14.9,25.4,14.5,26.1,14.3,26.8z M13.8,28
	c-0.3,0.8-0.6,1.6-0.9,2.5L12.6,31c-0.5,1-0.9,2-1.4,3c-1.1,1.1-2.1,2.2-3,3.4c0.5-1.4,1-2.7,1.6-4h0C11,31.5,12.3,29.7,13.8,28z
	 M10.7,35.3L10.7,35.3c-0.1,0.2-0.2,0.5-0.2,0.7c-1.6,2.3-2.8,4.7-3.7,7.3c0.3-1.5,0.6-3,1-4.4C8.6,37.7,9.6,36.5,10.7,35.3z
	 M7.3,38.6L7.3,38.6c-0.4,0.5-0.8,1.1-1.1,1.7C6.7,39,7.3,37.7,8,36.5C7.7,37.2,7.5,37.9,7.3,38.6z M6.2,46.9c0.7-3.2,1.9-6.2,3.6-9
	c-0.3,1.1-0.7,2.3-1,3.4c-0.6,2.4-1,4.9-1.2,7.4c-0.2,1.3-0.3,2.5-0.3,3.7c-0.5,2.1-0.9,4.2-1.1,6.3C5.9,54.8,5.9,50.9,6.2,46.9z
	 M11.6,70.4c0.3,0.4,0.6,0.8,0.9,1.2c1.7,3.6,4.1,6.8,7.1,9.6l0.8,1.1c0.1,0.3,0.3,0.5,0.4,0.8c-0.7-0.2-1.5-0.5-2.2-0.8l0,0
	C15.8,78.6,13.4,74.6,11.6,70.4z M21.9,85l0.5,0.8c-0.8-0.6-1.6-1.3-2.3-2l-0.2-0.2L21.9,85z M22.3,84.7c-0.2-0.3-0.3-0.6-0.5-0.9
	l0.1,0.1l1.1,1.3L22.7,85L22.3,84.7z M23.4,87.3l-0.7-0.6l0.4,0.3L23.4,87.3z M26.1,89c0.7,0.4,1.3,0.8,2,1.2
	c2.5,2.3,5.3,4.1,8.4,5.5c-4.1-1.6-7.9-3.8-11.3-6.7L25,88.7L26.1,89z M41.8,95.4c1.4,0.6,2.9,1,4.4,1.3c-0.6,0-1.2,0.1-1.7,0.1
	C43.6,96.4,42.7,95.9,41.8,95.4z M45.4,96c1.2,0.2,2.4,0.3,3.6,0.4l-1.1,0.2C47.1,96.4,46.2,96.3,45.4,96z M50.1,97.3
	c1.2,0.1,2.4,0.1,3.6,0c-1.4,0.3-2.8,0.4-4.2,0.5c-0.9,0.1-1.7,0.1-2.5,0l-0.4-0.1C47.8,97.6,49,97.5,50.1,97.3z M52.5,96.9
	c0.6-0.1,1.3-0.3,1.9-0.5c1.2-0.1,2.4-0.2,3.6-0.3l-0.2,0.1C56.1,96.6,54.3,96.9,52.5,96.9z M57.9,95.4l0.6-0.2
	c1.2-0.3,2.4-0.7,3.6-1.1c-0.7,0.4-1.4,0.9-2.2,1.2C59.3,95.3,58.6,95.3,57.9,95.4z M65.6,91.6L65.6,91.6c-0.3,0.3-0.6,0.5-1,0.8
	h-0.3C64.8,92.1,65.2,91.9,65.6,91.6z M64.8,92.8H65L64.7,93l-0.1,0L64.8,92.8z M65.4,93.8l0.3,0.1l-1,0.3L65.4,93.8z M65.1,90.7
	c0.4-0.3,0.9-0.6,1.4-0.9l0,0l0.8-0.5l0.7-0.1C67,89.8,66.1,90.3,65.1,90.7z M67.8,93.6c1.6-0.7,3.2-1.4,4.7-2.3
	c1.1-0.4,2.2-0.8,3.3-1.3c-2.4,1.5-5,2.7-7.7,3.6L67.8,93.6L67.8,93.6z M74.5,90c1.5-1,3-2.2,4.3-3.5l0,0.1
	c-0.4,0.7-0.9,1.4-1.4,2.1C76.5,89.1,75.5,89.6,74.5,90z M72.4,90.7L72.4,90.7c-0.9,0.4-1.8,0.6-2.8,0.9l-1,0.2
	c1.5-1.2,2.9-2.4,4.2-3.8c2.1-0.7,4.1-1.8,5.9-3.1l0.4-0.3c0.4-0.3,0.8-0.5,1.3-0.8c-0.2,0.4-0.4,0.7-0.5,1.1
	C77.6,87.1,75.1,89.1,72.4,90.7z M78.8,84.2c-0.9,0.5-1.8,1-2.7,1.5c1.8-1.3,3.6-2.6,5.2-4.1L81,82.4C80.3,83,79.6,83.6,78.8,84.2z
	 M81.2,83.2l0.3-0.2L81,83.5L81.2,83.2z M74.5,86.2L74.5,86.2c0.5-0.6,0.9-1.2,1.4-1.8c1.3-1.4,2.6-2.9,3.7-4.4l1.1-0.8
	c0.3-0.1,0.6-0.2,0.8-0.4c0.3-0.2,0.5-0.5,0.7-0.8l0.7-0.6c-0.2,0.6-0.4,1.2-0.6,1.8c-0.1,0.4-0.3,0.8-0.5,1.2
	C79.5,82.6,77.1,84.5,74.5,86.2z M82.2,80.9c0.8-0.7,1.6-1.5,2.3-2.3c-0.8,1-1.7,2-2.6,2.9L82.2,80.9z M82.6,79.7l0.1-0.3
	c0.3-0.9,0.6-1.7,0.9-2.6c1.2-1,2.3-2.1,3.4-3.3v-0.1c0.3-0.4,0.7-0.8,1-1.1c-0.6,1.3-1.2,2.5-1.9,3.7C85,77.3,83.9,78.5,82.6,79.7z
	 M85.5,78c0.5-0.7,1-1.4,1.5-2.2c0.5-0.8,1-1.4,1.6-2c-0.3,0.6-0.5,1.3-0.8,1.9c-1,1.4-2.1,2.7-3.3,3.9C84.9,79.1,85.2,78.6,85.5,78
	z M88.2,76c1.7-2.4,3.1-5,4-7.8c1.7-3.1,3-6.4,3.8-9.8c-0.9,5.3-2.6,10.4-5.2,15.2c-1.5,2.9-3.3,5.6-5.4,8.1
	C86.5,79.8,87.4,77.9,88.2,76z M93,65.4c0.2-0.7,0.3-1.4,0.5-2.1c0.1-0.3,0.3-0.7,0.4-1c1.9-5.7,2.6-11.7,2.1-17.7
	c0.4,2.1,0.5,4.3,0.6,6.4C96.4,52,96.3,53,96.2,54C95.8,57.9,94.7,61.8,93,65.4z M76.8,6.5L76.8,6.5c9.9,4.1,16,13,18.3,26.5
	C91.8,22.6,85,13.8,75.7,8.2c-2.5-1.6-5.2-2.9-7.9-4C70.9,4.6,73.9,5.3,76.8,6.5z M75.5,8.6c11.6,7,19.3,19,20.8,32.5
	c-0.4-0.7-0.8-1.4-1.2-2.1c-0.7-2.4-1.6-4.7-2.7-7c0-2.6-0.6-5.2-1.7-7.5c-1-2-2.5-3.8-4.3-5.1c-1.8-2.7-4-5.1-6.5-7.1
	c-5.2-4.6-11.6-7.6-18.5-8.4c1.5,0,3.1,0,4.7,0.1C69.3,5.2,72.5,6.8,75.5,8.6z M19,8.8c7.6-5.5,17.4-8.3,27.5-8.3c6,0,12,1,17.7,2.9
	c-2.5-0.1-5,0-7.5,0.2c-2.5,0-4.9,0.3-7.4,0.9l-1.5-0.1C40.5,3.7,33.1,5,26.3,8.1c-6.6,3-11.6,7.5-16.2,14.5
	c-1.2,1.8-2.3,3.7-3.3,5.6c-1,1.7-1.8,3.5-2.5,5.3C5.9,23.2,10.8,14.7,19,8.8z M4.1,36.2c0.2-0.9,0.5-1.7,0.8-2.6
	c0.7-1.8,1.5-3.5,2.4-5.2c1.9-3.3,4.4-6.3,7.3-8.8c3.1-2.3,6.4-4.2,9.8-5.8c-0.3,0.3-0.5,0.7-0.8,1c-2.3,1.6-4.3,3.6-5.9,5.9
	c-1.3,1.4-2.6,2.9-3.7,4.5c-4,4-7.4,8.5-10,13.5C4,37.9,4.1,37.1,4.1,36.2z M4,39.9c2.2-4.4,5.1-8.5,8.4-12.2
	c-1.1,1.8-2.1,3.6-3,5.4l-0.1,0.3c-1.9,3-3.5,6.1-4.7,9.4l-0.5,0.8C4,42.4,4,41.1,4,39.9z M3.8,46.5c0.2,1.4,0.4,2.8,0.6,4.2
	c0.3,1.4,0.4,2.7,0.5,4.2c0.1,1.9,0.3,3.7,0.7,5.6c-1.2-3.7-2-7.5-2.4-11.3C3.4,48.3,3.6,47.4,3.8,46.5z M3.5,39.2
	c0,0.2,0,0.3,0,0.5L3.4,40C3.4,39.7,3.4,39.5,3.5,39.2z M3.2,41.5l0.3-0.6c0,1.2,0.1,2.4,0.2,3.7C3.4,45,3.2,45.5,3,45.9
	C3,44.5,3,43,3.2,41.5z M3,47.1c0.1-0.3,0.2-0.6,0.4-0.9c-0.1,0.4-0.2,0.8-0.4,1.3C3,47.4,3,47.3,3,47.1z M3,39.1
	c-0.5,2.7-0.6,5.4-0.5,8.1c-0.1,0.3-0.2,0.5-0.3,0.8C1,51.2,0.4,54.7,0.6,58.2C0.2,51.7,1,45.2,3,39.1z M1.8,62
	C0.7,57.5,1,52.8,2.5,48.5c0,0.3,0,0.5,0,0.9c-0.8,3.4-1.1,6.9-1,10.3C1.6,60.5,1.7,61.2,1.8,62z M0.9,60.2c0.3,1.6,0.7,3.2,1.3,4.8
	c0.2,1,0.4,1.9,0.7,2.9C1.9,65.4,1.2,62.8,0.9,60.2z M2.6,64.8c-0.3-1.7-0.5-3.5-0.6-5.2C2,56.7,2.2,53.8,2.8,51
	c0.6,4.7,1.9,9.2,3.7,13.6c1,6.6,4.5,12.5,9.9,16.5c-5.4-3-10.1-8.1-13.2-15C3,65.7,2.8,65.3,2.6,64.8z M4.9,72.2
	c-0.7-1.6-1.3-3.2-1.7-4.9c2.9,6.1,7.6,11.2,13.5,14.5l0.9,0.4c0.7,0.7,1.4,1.4,2.1,2c0.9,1.1,1.9,2.1,3,3.1
	c-7.4-2.8-13.6-8-17.6-14.7L4.9,72.2z M7,76.2c4.2,5.6,10,9.8,16.6,12c0.4,0.4,0.8,0.7,1.2,1.1c1.6,2,3.5,3.8,5.6,5.4
	C21,91.3,12.2,84.9,7,76.2z M27.1,91.1c3.1,2.3,6.6,4.1,10.3,5.4c-1.7-0.3-3.4-0.7-5.1-1.3C30.4,94.1,28.7,92.7,27.1,91.1z
	 M34.6,96.6L34.6,96.6l-0.3-0.2c2.2,0.6,4.5,1,6.8,1.2c1.9,0.4,3.9,0.7,5.8,0.8c0.5,0.2,1,0.3,1.4,0.5
	C43.6,99.3,38.9,98.6,34.6,96.6z M49.2,98.5l-0.5-0.1h0.8c0.8,0,1.6-0.1,2.5-0.2c-0.8,0.2-1.5,0.3-2.3,0.4L49.2,98.5z M57.2,99.5
	L57.2,99.5c-2.1,0-4.2-0.2-6.2-0.6c2.2-0.4,4.4-1.1,6.5-1.9l1-0.3l0.7-0.2c0.9-0.3,1.7-0.5,2.5-0.9c2.2-0.3,4.3-0.8,6.3-1.5h0.2
	c1.9,0,3.8-0.4,5.5-1.2C69.3,97.2,63.4,99.6,57.2,99.5z M74.9,91.7c-1.6,0.9-3.3,1.5-5.1,1.7v-0.1c1-0.4,1.9-0.8,2.9-1.2
	c1.2-0.6,2.4-1.3,3.5-2C75.8,90.7,75.3,91.2,74.9,91.7z M76.3,91c0.4-0.5,0.8-1,1.2-1.5c0.6-0.4,1.1-0.8,1.6-1.2
	c0.4-0.2,0.8-0.5,1.2-0.7C79.1,88.9,77.7,90,76.3,91z M79.1,87.7l-0.7,0.5c0.6-1,1.2-2,1.8-2.9c1.1-1.1,2.1-2.4,3.1-3.6
	c1.3-1.2,2.6-2.4,3.7-3.8c-1.1,2.2-2.3,4.3-3.7,6.2C81.9,85.3,80.5,86.6,79.1,87.7z M93,74.3c-2.8,3.9-6.1,7.4-9.8,10.5l0.4-0.6
	c3-3.1,5.5-6.7,7.6-10.5c3.6-6.7,5.6-14.2,5.7-21.8c0.2-2.7,0.2-5.3,0.1-8C101.4,54.1,100,65.1,93,74.3z"/>
</svg>
