<?xml version="1.0" encoding="utf-8"?>
<!-- Generator: Adobe Illustrator 19.2.1, SVG Export Plug-In . SVG Version: 6.00 Build 0)  -->
<svg version="1.1" xmlns="http://www.w3.org/2000/svg" xmlns:xlink="http://www.w3.org/1999/xlink" x="0px" y="0px"
	 viewBox="0 0 70 30" style="enable-background:new 0 0 70 30;" xml:space="preserve">
<style type="text/css">
	.st0{fill:#FFFFFF;}
</style>
<title>left-arrow-white</title>
<defs>
<clipPath id="svgPath">
<polygon class="st0" points="57.5,5.3 57,4.5 49.5,15 57,24.6 57.5,23.7 50.6,15 "/>
<polygon class="st0" points="60.5,4.5 60,3.7 51.8,15.1 60,25.4 60.5,24.5 52.9,15 "/>
<polygon class="st0" points="63.6,3.4 63.1,2.6 54.2,15 63.1,26.2 63.6,25.4 55.3,14.9 "/>
<polygon class="st0" points="66.6,2.5 66.1,1.7 56.6,15 66.1,27.1 66.6,26.2 57.7,15 "/>
<polygon class="st0" points="70,1.4 69.5,0.5 59.1,15.1 69.5,28.3 70,27.4 60.2,15 "/>
<polygon class="st0" points="2,15 12.8,0 12.8,14.4 10.6,14.4 10.6,14.4 47.5,14.4 54,5.4 54.4,6.2 48.1,15 54.4,23 54,23.9 
	47.4,15.6 7.1,15.6 12.8,15.6 12.8,30 "/>
<path class="st0" d="M10.9,29.5c-0.2,0.4-0.6-0.2-0.6-0.2l0,0L0,15L10.3,0.6l0,0l0.1-0.1c0.1-0.2,0.4-0.2,0.5,0c0,0,0,0,0,0l0,0
	c0.2,0.4-0.1,1-0.2,1L1.1,15l9.8,13.7C11,28.9,11.1,29.2,10.9,29.5C10.9,29.5,10.9,29.5,10.9,29.5z"/>
	</clipPath>
	</defs>
</svg>
