<svg id="Layer_1" data-name="Layer 1" xmlns="http://www.w3.org/2000/svg" viewBox="0 0 108.41 30"><defs><style>.cls-1{fill:#fff;}</style></defs><title>left-arrow-white</title><polygon class="cls-1" points="89.05 5.32 88.31 4.5 76.62 15.02 88.33 24.57 89.03 23.7 78.33 14.98 89.05 5.32"/><polygon class="cls-1" points="93.66 4.51 92.92 3.69 80.29 15.06 92.94 25.37 93.64 24.51 82 15.02 93.66 4.51"/><polygon class="cls-1" points="98.46 3.38 97.72 2.56 83.93 14.98 97.74 26.24 98.44 25.38 85.64 14.94 98.46 3.38"/><polygon class="cls-1" points="103.12 2.53 102.38 1.7 87.6 15.02 102.4 27.09 103.11 26.23 89.3 14.98 103.12 2.53"/><polygon class="cls-1" points="108.41 1.35 107.66 0.53 91.5 15.08 107.68 28.28 108.38 27.41 93.21 15.04 108.41 1.35"/><polygon class="cls-1" points="3.12 15 19.77 0 19.77 14.44 16.47 14.44 16.47 14.44 73.51 14.45 83.56 5.4 84.3 6.23 74.52 15.04 84.28 22.99 83.58 23.85 73.4 15.56 10.94 15.55 19.77 15.55 19.77 30 3.12 15"/><path class="cls-1" d="M22.69,34.51c-0.35.39-1-.21-1-0.21h0L5.8,20l16-14.39h0l0.1-.09a0.56,0.56,0,0,1,.82,0h0c0.38,0.42-.21,1-0.25,1L7.46,20,22.63,33.66A0.58,0.58,0,0,1,22.69,34.51Z" transform="translate(-5.8 -5)"/></svg>