<svg id="Layer_1" data-name="Layer 1" xmlns="http://www.w3.org/2000/svg" viewBox="0 0 215.61 5.92"><style>.cls-1{fill:#010101;fill-rule:evenodd;}</style><title>line-brush</title><defs><clipPath id="svgPath"><path class="cls-1" d="M8.06,5.42c1.78,0.4,4.42.79,5.72,1.2C11.83,6.35,9.61,6,8,5.87c1.78,0.45,4,.78,5.88,1.2a10.65,10.65,0,0,0-1.31-.14,14.48,14.48,0,0,1,2.62.52c-0.81-.13-1.85-0.3-2.76-0.42A13.64,13.64,0,0,0,10.3,6.8C13.36,7.42,18,8.22,21.37,8.87,21.85,9,22.93,9,22.54,9.15,22,9,22.4,9.23,22.68,9.25c-0.58.05-1.74-.38-2.34-0.32a2.09,2.09,0,0,1,1.17.43,7.78,7.78,0,0,0-1.75-.28c1.2,0.35,3.28.67,4.1,1-1.2-.17-2.7-0.24-3.66-0.5a12.1,12.1,0,0,0,2.94.56c1.64,0.29,3,.84,4.84,1,4.67,0.47,10.69-.13,16-0.14-0.86-.11-2.5.06-3.23-0.1,6.6-.15,14.1-0.19,20.66-0.29-2.22,0-4-.21-6.16-0.29,22.89-.05,48-0.85,71.35-0.94,21.49-.08,42.76.08,62.74,0.38,0.15-.13-0.63-0.16-0.15-0.25,6.18,0.19,12,.38,17.75.64S218,10.9,223.66,11c-0.11-.31-1.16-0.24-1.77-0.36a11.49,11.49,0,0,0-3-.59c-1.81-.85-5.2-1.12-7.53-1.78-8.63-.91-18.13-1.37-28-1.58s-20.14-.43-30.64-0.59c-13.41-.21-28.14,0-42.79,0-18,.07-36,0.81-51.85.23,6.94,0.1,14.3,0,21.82-.08l2.34,0,1.17,0c0.5,0,.84-0.09.15-0.05l-4.69.08c-1.52,0-2.62,0-4.1,0l6.59-.12,1.61,0c0.25,0,.36-0.06,0,0l-0.88,0-3.36.06c-4.48.13-9.15,0.07-12.15,0.21,0.17-.17-1-0.11-1,0,1.94,0-1.72.2-1.76,0a1.5,1.5,0,0,0,.59-0.06c-8.3,0-19-.21-27.82.06a34.09,34.09,0,0,0-6.43.64,6.15,6.15,0,0,1,1,0C30.93,7.06,30,7,29.69,7.12c1.85,0.06,3.52-.3,5.41-0.18A63.38,63.38,0,0,1,24,6.9a6.1,6.1,0,0,0-1,0,77.75,77.75,0,0,0,13.61.5c-0.07-.14.8,0,0.73-0.11-2.07,0-4.23.22-6.15,0.09C38.94,7.15,49,6.78,58.37,6.76c5.78,0,11.53.37,18.17,0.08-0.35-.12-2.61,0-3.52-0.08,5.91,0,9.5-.29,15.67-0.28-0.35,0,.36.08,0.74,0.09,2.76,0,6.18-.1,7.91-0.1,16.5,0,34.26-.32,50.12.1-11.13.07-22.94,0.26-34.43,0.3a1.57,1.57,0,0,0-.59.06l0.88,0c5,0.09,7.62,0,10.56.05-9,.05-19.07.34-28.27,0.37C87,7.38,78.38,7.68,70,7.71c-12.75,0-25.87-.26-38.07,0,0.24,0,.39.06,0.15,0.1a24,24,0,0,0-2.93,0A6.77,6.77,0,0,1,31,8C22.35,7.62,15.37,6.25,8.06,5.42Zm49.87,1c-6.86.21-14.81,0-21.22,0.29-0.45,0,.32-0.08.29-0.15C44.22,6.32,51.5,6.24,57.93,6.37Zm2.79,0.2c-4.49.1-9.54,0-13.47,0.07C51.23,6.48,56.4,6.49,60.72,6.58ZM34.38,7.75c-0.85.13-2.93,0.06-1,0Zm98.48,1a8.67,8.67,0,0,1,.88,0C133.74,8.89,132.66,8.94,132.86,8.78Zm6,0a1.71,1.71,0,0,1,1,0A4.7,4.7,0,0,1,138.87,8.82Zm-99,2c0.11,0.25-.76-0.11-0.88.06C38.33,10.8,39.84,10.73,39.84,10.83Z" transform="translate(-8.04 -5.42)"/></clipPath></defs></svg>