<?xml version="1.0" encoding="utf-8"?>
<!-- Generator: Adobe Illustrator 19.2.1, SVG Export Plug-In . SVG Version: 6.00 Build 0)  -->
<svg version="1.1" xmlns="http://www.w3.org/2000/svg" xmlns:xlink="http://www.w3.org/1999/xlink" x="0px" y="0px"
	 viewBox="0 0 70 30" style="enable-background:new 0 0 70 30;" xml:space="preserve">
<style type="text/css">
	.st0{fill:#FFFFFF;}
</style>
<title>right-arrow-white</title>
<defs>
<clipPath id="svgPath">
<polygon class="st0" points="12.5,5.3 13,4.5 20.5,15 13,24.6 12.5,23.7 19.4,15 "/>
<polygon class="st0" points="9.5,4.5 10,3.7 18.1,15.1 10,25.4 9.5,24.5 17,15 "/>
<polygon class="st0" points="6.4,3.4 6.9,2.6 15.8,15 6.9,26.2 6.4,25.4 14.7,14.9 "/>
<polygon class="st0" points="3.4,2.5 3.9,1.7 13.4,15 3.9,27.1 3.4,26.2 12.3,15 "/>
<polygon class="st0" points="0,1.4 0.5,0.5 10.9,15.1 0.5,28.3 0,27.4 9.8,15 "/>
<polygon class="st0" points="68,15 57.2,0 57.2,14.4 59.4,14.4 59.4,14.4 22.5,14.4 16,5.4 15.6,6.2 21.9,15 15.6,23 16,23.9 
	22.6,15.6 62.9,15.6 57.2,15.6 57.2,30 "/>
<path class="st0" d="M59.1,29.5c0.2,0.4,0.6-0.2,0.6-0.2l0,0L70,15L59.7,0.6l0,0l-0.1-0.1c-0.1-0.2-0.4-0.2-0.5,0c0,0,0,0,0,0l0,0
	c-0.2,0.4,0.1,1,0.2,1L68.9,15l-9.8,13.7C59,28.9,58.9,29.2,59.1,29.5C59.1,29.5,59.1,29.5,59.1,29.5z"/>
	</clipPath>
	</defs>
</svg>
