<svg id="Layer_1" data-name="Layer 1" xmlns="http://www.w3.org/2000/svg" viewBox="0 0 108.41 30"><defs><style>.cls-1{fill:#fff;}</style></defs><title>right-arrow-white</title><polygon class="cls-1" points="19.36 5.32 20.1 4.5 31.78 15.02 20.08 24.57 19.38 23.7 30.08 14.98 19.36 5.32"/><polygon class="cls-1" points="14.74 4.51 15.49 3.69 28.11 15.06 15.47 25.37 14.76 24.51 26.4 15.02 14.74 4.51"/><polygon class="cls-1" points="9.94 3.38 10.69 2.56 24.48 14.98 10.66 26.24 9.96 25.38 22.77 14.94 9.94 3.38"/><polygon class="cls-1" points="5.28 2.53 6.03 1.7 20.81 15.02 6 27.09 5.3 26.23 19.1 14.98 5.28 2.53"/><polygon class="cls-1" points="0 1.35 0.74 0.53 16.91 15.08 0.72 28.28 0.02 27.41 15.2 15.04 0 1.35"/><polygon class="cls-1" points="105.29 15 88.63 0 88.63 14.44 91.93 14.44 91.93 14.44 34.89 14.45 24.85 5.4 24.11 6.23 33.88 15.04 24.13 22.99 24.83 23.85 35 15.56 97.47 15.55 88.63 15.55 88.63 30 105.29 15"/><path class="cls-1" d="M97.31,34.51c0.35,0.39,1-.21,1-0.21h0L114.2,20l-16-14.39h0l-0.1-.09a0.56,0.56,0,0,0-.82,0h0c-0.38.42,0.21,1,.25,1l15,13.49L97.37,33.66A0.58,0.58,0,0,0,97.31,34.51Z" transform="translate(-5.8 -5)"/></svg>