<?xml version="1.0" encoding="utf-8"?>
<!-- Generator: Adobe Illustrator 19.2.0, SVG Export Plug-In . SVG Version: 6.00 Build 0)  -->
<svg version="1.1" id="Layer_1" xmlns="http://www.w3.org/2000/svg" xmlns:xlink="http://www.w3.org/1999/xlink" x="0px" y="0px"
	 viewBox="0 0 1920 60" style="enable-background:new 0 0 1920 60;" xml:space="preserve">
<g>
	<path d="M1460.4,55.5c-0.2,0,0,0.2,0.9,0.2c0.3,0,0.6-0.1,0.9-0.1c0.4,0,0-0.1-0.9-0.2C1461,55.4,1460.6,55.5,1460.4,55.5z"/>
	<path d="M1636.1,57.5c-0.7-0.1-1.3-0.2-2.3-0.3c-2.8,0-6,0-9.1,0c-3.6,0-7.2,0.3-10.5,0.1c-0.7-0.1-1.5-0.1-2.2-0.1h-22.7
		c2.3,0,4.6,0.1,6.8,0.2c2.7,0,5.4,0,8,0.1c0.7,0.1,1.3,0.2,2,0.3c0.4,0,0.8,0,1.2,0h32.8c0.5,0,0.9,0,1.4,0s0.7,0.1,1.1,0.1
		c0.7,0.1,1.4,0.2,2.1,0.3h5c-0.6-0.1-1.2-0.3-1.8-0.4C1644.1,57.6,1639.9,57.7,1636.1,57.5z"/>
	<path d="M1554.3,56.2c-1.7-0.1-3.4-0.1-5.2,0.1c-0.9-0.1-1.9-0.3-2.9-0.4c-0.9,0.1-1.9,0.2-2.8,0.3h-8.1c-0.3,0-0.6,0.1-0.9,0.3
		c-0.3,0.1,0.2,0.3,1.2,0.3c2.7,0,5.4,0.1,7.8,0.1c1.1,0.2,2.2,0.3,3.3,0.4h24.2c-0.9-0.8-2.1-1.1-3.2-1L1554.3,56.2z"/>
	<path d="M1694.9,57.9c-0.3-0.1-0.6-0.1-0.9-0.1h-27.3l-2.9-0.3c-1,0-1.9,0.2-2.6,0.2s-1.8,0.4-2.4,0.5h35.1
		C1694.8,58.2,1695.3,58,1694.9,57.9z"/>
	<path d="M1523.8,56.2c-0.3,0-0.6,0.1-0.9,0.1c0.6,0.1,1.2,0.2,1.8,0.1c0.3,0,0.9-0.1,0.9-0.1C1524.9,56.2,1524.3,56.1,1523.8,56.2z
		"/>
	<path d="M1546,53.4c1,0,1.4-0.1,1-0.2c-0.3-0.1-0.6-0.1-0.9-0.1c-1.3,0-2.7,0-4,0c-2.3,0-4.5,0-6.7,0c-1.1,0-1.5,0.1-1.1,0.2
		c0.3,0.1,0.6,0.1,0.9,0.1C1538.8,53.4,1542.4,53.4,1546,53.4z"/>
	<path d="M1488.8,55.6c-0.9-0.2-1.9-0.4-2.9-0.5h-5.4c-1.1-0.1-2.1,0.3-2.8,1h-6.8c-0.3,0,0,0.1,1,0.1c7.2,0.1,16.8,0,22.8-0.1
		c0.2,0,0.5-0.1,0.7-0.2c-0.3-0.1-0.6-0.2-0.9-0.2C1492.7,55.7,1490.8,55.6,1488.8,55.6z"/>
	<path d="M1470.2,55.5c-0.6-0.1-1.1-0.1-1.7,0.1c-0.1,0,0.2,0.1,0.3,0.1c0.3,0,0.6,0.1,0.9,0.1c0.4,0,1.1,0,1.2,0
		C1471.2,55.7,1470.8,55.6,1470.2,55.5z"/>
	<path d="M1633.3,54.8c-0.3,0-0.9,0.1-0.9,0.1c0.9,0.2,1.9,0.2,2.7,0C1634.5,54.8,1633.9,54.7,1633.3,54.8z"/>
	<path d="M1706.3,54.4h-34c-0.3,0-0.7,0-1,0.1c-0.2,0-0.2,0.1,0,0.1l3.6,0.4l3.1-0.3c3.2,0.1,6.5-0.2,9.2,0.2l-2.6,0.3
		c3.1,0.3,3.2,0.1,6.7-0.3c1,0.1,1.9,0.2,2.9,0.2h13.7c0.3,0,0.6-0.1,0.8-0.2C1709.8,54.7,1708.8,54.4,1706.3,54.4z"/>
	<path d="M1432.6,55.3c2.9,0.2,5.8,0.3,8.7,0.1c-1.3-0.2-2.7-0.3-4-0.3C1435.7,55,1434.2,55.1,1432.6,55.3z"/>
	<path d="M1653.8,53.6c0.3-0.1,0-0.2-0.9-0.2c-0.3,0-0.6,0.1-0.9,0.1c-0.4,0.1,0,0.2,0.9,0.2C1653.1,53.8,1653.6,53.7,1653.8,53.6z"
		/>
	<path d="M1648.9,55.1h-2.7c-0.4,0.1-0.1,0.3,0.9,0.3C1647.7,55.4,1648.3,55.3,1648.9,55.1z"/>
	<path d="M1664.7,54.3c0.3-0.1-0.1-0.2-1-0.2c-8.1,0-16.2,0-24.2,0c-0.9,0-1.4,0.1-1.2,0.2c0.3,0.1,0.6,0.1,0.9,0.1
		c0.9,0,1.8,0,3.2,0c0.6,0.1,1.4,0.2,2.4,0.3c0.2,0,0.9,0,1.3,0c0.6-0.3,1.2-0.4,1.8-0.3c0.9,0.1,1.2,0.2,0.9,0.3c0.4,0,1.1,0,1.3,0
		c0.9-0.1,1.7-0.3,2.3-0.3h11.4C1664.1,54.4,1664.4,54.4,1664.7,54.3z"/>
	<path d="M1092.9,53.2c1.8,0.2,3.7,0.2,5.5,0C1096.7,53,1094.8,53,1092.9,53.2z"/>
	<path d="M1079.8,54.2c-0.4,0.1,0,0.2,0.9,0.2c0.3,0,0.6-0.1,0.9-0.1c0.4-0.1,0-0.2-0.9-0.2C1080.3,54.2,1079.9,54.2,1079.8,54.2z"
		/>
	<path d="M1122.7,57.9c-0.3-0.1-0.6-0.1-0.9-0.1h-5.4c-2.7,0-5.4,0-8.1,0c-1,0-1.4,0.1-1.1,0.2s0.6,0.1,0.9,0.1c4.5,0,9,0,13.5,0
		C1122.6,58.2,1122.9,58,1122.7,57.9z"/>
	<path d="M1127.3,57.8c-0.3,0-0.7,0-1,0.1s0.1,0.2,1.1,0.2c7.7,0,15.4,0,23.2,0h23.2c0.3,0,0.7,0,1-0.1s-0.1-0.2-1.1-0.2
		C1158.2,57.8,1142.7,57.8,1127.3,57.8z"/>
	<path d="M1322.9,53.9c1.8,0.2,3.7,0.2,5.5,0C1326.7,53.7,1324.8,53.7,1322.9,53.9z"/>
	<path d="M1043.2,53.3C1043.4,53.3,1043.3,53.2,1043.2,53.3c-0.3-0.2-0.5-0.2-0.9-0.2c-0.9,0-1.8,0-2.6,0c-0.3,0-0.6,0-0.9,0.1
		c-0.2,0-0.2,0.1-0.1,0.1C1040.2,53.5,1041.7,53.5,1043.2,53.3z"/>
	<path d="M1076.1,52.6c0.3-0.1,0-0.2-0.9-0.2c-0.3,0-0.6,0.1-0.9,0.1c-0.4,0.1,0,0.2,0.9,0.2C1075.3,52.7,1075.8,52.7,1076.1,52.6z"
		/>
	<path d="M1069.3,53.2c-0.4,0-0.6,0.1-1,0.1l4.1,0.5c3.2,0,6.8,0,10.3,0c0.7,0,1.3-0.1,2-0.2c0-0.3,0-0.3-1-0.5
		c-3.1-0.1-6.2,0-9.3,0h-4C1070.1,53.1,1069.7,53.1,1069.3,53.2z"/>
	<path d="M1084.3,52.6c0.3-0.1,0-0.2-0.9-0.2c-0.3,0-0.6,0.1-0.9,0.1c-0.4,0.1,0,0.2,0.9,0.2C1083.6,52.7,1083.9,52.7,1084.3,52.6z"
		/>
	<path d="M1272.3,57.8c-0.3,0-0.6,0.1-0.9,0.1c-0.4,0.1,0,0.2,0.9,0.2c0.1,0,0.6-0.1,0.9-0.1S1273.3,57.9,1272.3,57.8z"/>
	<path d="M1242.1,57.8c-7.3,0-14.5,0-21.8,0h-21.8c-0.3,0-0.7,0-1,0.1c-0.4,0.1,0,0.2,1,0.2c14.5,0,29.1,0,43.6,0c0.3,0,0.7,0,1-0.1
		C1243.4,57.9,1243.1,57.8,1242.1,57.8z"/>
	<path d="M1295.7,58.3c0.3,0.1,0.6,0.1,0.9,0.1c0.6,0,1.2,0,1.8-0.1c-0.3,0-0.6-0.1-0.9-0.1C1296.8,58.1,1296.3,58.2,1295.7,58.3z"
		/>
	<path d="M1184.7,57.8c-0.3,0-0.7,0.1-0.9,0.1s0,0.2,0.9,0.2c0.3,0,0.6-0.1,0.9-0.1C1185.9,57.9,1185.7,57.9,1184.7,57.8z"/>
	<path d="M1151.7,53.7c0.4,0,0.8-0.1,1.2-0.2c-0.3-0.1-0.5-0.1-0.8-0.1c-0.5,0-1.1,0.1-1.6,0.2C1149.9,53.7,1150.6,53.8,1151.7,53.7
		z"/>
	<path d="M1148.3,53.8c-0.6,0.1-0.5,0.2,0.5,0.2c0.3,0,0.6,0,0.8,0c0.2,0,0.5-0.1,0.7-0.1c0.1,0,0.2-0.1,0-0.1
		C1149.8,53.7,1149.1,53.8,1148.3,53.8z"/>
	<path d="M164.8,58.6c0.3,0.1,0.6,0.1,0.9,0.1c0.6,0,1.2,0,1.8-0.1c0.1,0-0.6-0.1-0.9-0.1C165.9,58.5,165.4,58.5,164.8,58.6z"/>
	<path d="M422.1,3.7c0.6,0.1,1.2,0.2,1.8,0.1c0.3,0,0.6-0.1,0.9-0.1c-0.6-0.1-1.2-0.2-1.8-0.1C422.8,3.6,422,3.7,422.1,3.7z"/>
	<path d="M535.8,3.7c-1.1-0.1-2.1-0.5-3-0.5h-27.2c-1.3,1-2.5,0.5-3.9,0.7c0.5,0.1,1,0.3,1.5,0.3c11.7,0,23.5,0,35.2,0
		c0.3,0,0.6,0,0.9-0.1c0.3-0.1,0-0.3-1.1-0.3C537.5,3.8,536.5,3.7,535.8,3.7z"/>
	<path d="M378.8,4.1c0.3,0.1,0.6,0.1,0.9,0.1H399c-1.1,0.1-2.2-0.3-3-1h-8.1c-0.9,0-1.8,0.4-2.9,0.5c-1.7,0-3.5,0.1-5.2,0.1
		C378.9,3.8,378.5,4,378.8,4.1z"/>
	<path d="M407.5,4.2h0.1c0.1,0,0.3,0,0.4,0C407.9,4.1,407.6,4.1,407.5,4.2C407.4,4.2,407.5,4.2,407.5,4.2z"/>
	<path d="M479.6,4.1c0.3,0.1,0.6,0.1,0.9,0.1c0.6,0,1.2,0,1.8-0.1c-0.3,0-0.6-0.1-0.9-0.1C480.9,3.9,480.3,3.9,479.6,4.1z"/>
	<path d="M353.6,3.8c0.4,0,0.9,0,1.3,0c0.3,0,0.6,0,0.9-0.1s0-0.2-1-0.2c-0.3,0-0.8,0.1-1.3,0c-0.8-0.1-1.5,0-2.3,0.1
		C350.7,3.7,351.8,3.8,353.6,3.8z"/>
	<path d="M344,3.6c-1.8,0-3.6-0.1-5.3-0.1c-0.3,0-0.6,0.1-1,0.3c-0.4,0.1,0,0.4,0.9,0.4h5.3c1,0,1.3-0.3,0.9-0.4
		C344.8,3.8,344.3,3.7,344,3.6z"/>
	<path d="M545.3,4c0.6,0.1,1.2,0.2,1.8,0.1c0.3,0,0.9-0.1,0.9-0.1c-0.6-0.1-1.2-0.2-1.8-0.1C546,4,545.7,4,545.3,4z"/>
	<path d="M320.4,0.7c0,0,0.1-0.1-0.1-0.1c-1.5-0.2-3-0.2-4.5,0c-0.1,0-0.1,0.1,0.1,0.1C317.4,0.9,318.9,0.9,320.4,0.7z"/>
	<path d="M634.5,1.7c-1,0.2-2,0.4-3,0.5h115.1c-0.7,0-1.7-1-2.9-1h93c1.1,0,2.1,0.1,3.2,0.2c34.5,0,68.7-0.1,102.9-0.1
		c0.4,0,0.8,0,1.2,0l1.9,0.2c0.4,0,0.8-0.1,1.2-0.1s0.9-0.2,1.3-0.2h-12.7c-0.9,0-1.8-0.1-2.7-0.2c-0.4,0-0.7-0.1-1.1-0.2
		c-0.6-0.1-1.3,0-2-0.1C929,0.9,928,1,927.1,1.1h-21.8c-1.1,0-2-1-2.8-1h-5.2c-1.2,0-2.2,1-2.9,1h-5.6c-0.7-0.1-1.4-0.2-2.1-0.4
		c-0.8,0-1.7-0.1-2.6-0.1c-2-0.1-4,0-6,0.3c-3.9-0.1-7.9-0.1-11.4-0.3c-1-0.1-1.6-0.5-2.3-0.5H711.2c-1,0-2,0-3-0.2
		c-1.8,0-3.8,0-5.4,0.1c-1.5,0.1-1.5,0.5-1.3,0.6c1,0.3,2,0.5,3,0.4H722c-1,0.1-2.1,0.3-3.1,0.5c-1,0-1.9,0.1-2.6,0
		c-1.1-0.1-2.2-0.2-3-0.3h-70c-0.4,0-0.8,0-1.2,0.1l-2,0.3c-0.6,0-1.4-0.1-1.9-0.2C637,1.6,635.8,1.6,634.5,1.7z M738.5,1.2
		c-0.9,0.1-1.9,0.2-2.8,0.3c-0.9-0.2-1.9-0.3-2.8-0.3H738.5z"/>
	<path d="M269.3,2.2c0.2-0.1,0.6,0,0.8,0h21.8l3,0.3h2.8c1.7-0.3,3.5-0.4,5.2-0.3l3.6,0.4c2.6-0.1,5.4,0,8-0.1l2.1-0.3l2.9,0.3
		c0.9-0.2,1.9-0.3,2.8-0.3h20.6c-24.2,0-48.4-0.2-72.5-0.1C269.4,2.1,269,2.1,269.3,2.2z"/>
	<path d="M623.3,1.2h-65.6c-1,0.1-2,0.3-2.9,0.5c-0.8-0.1-1.4-0.1-2.1-0.2c-11.2-0.1-60.5,0-74.9,0l-1.9,0.3
		c-16.4,0.1-75,0.1-85.8,0c-0.6-0.1-1.3,0-2-0.1c-1,0.2-2,0.4-3,0.5h241.2C625.2,2.2,624.2,1.2,623.3,1.2z"/>
	<path d="M787.5,2.2c1,0.1,1.9,0.2,2.9,0.3l2.8-0.3H787.5z"/>
	<path d="M834.4,2.2c1.3,0,2.4,0,3.6,0c0.5-0.1-1.4,0-4.3,0H834.4z"/>
	<path d="M755,2.2h11c-1.2-0.1-2.3-0.2-3.4-0.5c-2,0-3.7,0.1-5.2,0.1C756.5,2,755.8,2.1,755,2.2z"/>
	<path d="M565,3.8c0.3,0,0.8,0.1,0.9,0.1c1-0.1,1.3-0.2,0.9-0.2c-0.3-0.1-0.6-0.1-0.9-0.1C565,3.6,564.7,3.7,565,3.8z"/>
	<path d="M300,3.8l-3.2-0.3l-8.1,0.1c-0.3,0-0.7,0.1-1,0.1c0.4,0.2-0.4,0.4,1.9,0.5h20.9c0.4,0,0.8,0,1.1-0.1l2.1-0.3l2.9,0.3h2.6
		l2.9-0.3h8.1c0.3,0,0.6,0,0.9-0.1s-0.2-0.2-1.1-0.2c-9.1,0-18.2,0-27.1,0L300,3.8z"/>
	<path d="M796.7,4.2c-0.2-0.1-0.5-0.1-0.9,0C796.2,4.2,796.5,4.2,796.7,4.2z"/>
	<path d="M790.3,4.1c0.1,0,0.1,0,0.2,0H790.3C790.4,4.1,790.3,4.1,790.3,4.1z"/>
	<path d="M789.5,4.2c0.3,0,0.5,0,0.8-0.1C789.5,4.2,789.2,4.2,789.5,4.2z"/>
	<path d="M215.4,5.6c1-0.1,1.3-0.1,0.9-0.2c-0.4-0.1-0.8-0.1-0.9-0.1c-1,0.1-1.3,0.2-0.9,0.2C214.8,5.5,215.1,5.5,215.4,5.6z"/>
	<path d="M213.9,1.7c-1.8-0.2-3.7-0.2-5.5,0C210.4,1.9,212.1,1.9,213.9,1.7z"/>
	<path d="M203,1.7c-0.6-0.1-1.2-0.2-1.8-0.1c-0.3,0-0.9,0.1-0.9,0.1c0.6,0.1,1.3,0.1,1.8,0.1C202.4,1.8,202.7,1.7,203,1.7z"/>
	<path d="M206.4,5.2l-1.3-0.1c-1.9-0.2-3.9-0.2-5.8,0v0.5c3,0,5.8,0,8.8-0.2C207.5,5.3,207.1,5.3,206.4,5.2z"/>
	<path d="M231.1,5.5c-0.9-0.1-1.2-0.2-1.6-0.2c-3-0.1-6-0.1-9,0c-0.4,0-0.6,0.1-1.5,0.2C222.6,5.6,226.1,5.6,231.1,5.5z"/>
	<path d="M241.3,2.1c-0.9-0.2-1.8-0.2-2.6,0c0.6,0.1,1.2,0.1,1.7,0.1C240.7,2.2,241.3,2.1,241.3,2.1z"/>
	<path d="M247.3,2.1c0.3,0.1,0.7,0.1,1,0.1c5.4,0,10.8,0,16.2,0c1,0,1.4-0.1,1.1-0.2s-0.6-0.1-0.9-0.1h-6.8c-3.2,0-6.3,0-9.5,0
		C247.4,1.9,246.9,2,247.3,2.1z"/>
	<path d="M274.6,4c-0.3,0.1,0,0.1,0.9,0.2c0.3,0,0.6-0.1,0.9-0.1c0.4-0.1,0-0.2-0.9-0.2C275.5,3.9,275,4,274.6,4z"/>
	<path d="M225.4,1.5c0.4,0.2,0.7,0.3,1,0.4h5.3c1,0.1,1.9,0,2.8,0.1c1.9-0.4,1.9,0.2-0.3-0.9h-8C225.2,1.1,224.9,1.4,225.4,1.5z"/>
	<path d="M327.5,0.8c1-0.1,1.2-0.1,0.9-0.2c-0.3-0.1-0.8-0.1-0.9-0.1c-1,0.1-1.3,0.1-0.9,0.2S327.3,0.8,327.5,0.8z"/>
	<path d="M280.1,3.7c-0.3,0.1,0,0.2,0.9,0.2c0.3,0,0.6-0.1,0.9-0.1c0.4-0.1,0-0.2-0.9-0.2C281,3.5,280.5,3.6,280.1,3.7z"/>
	<path d="M196.3,6.6h10.9c0.3,0,0.7,0,1-0.1c0.4-0.1-0.1-0.2-1-0.2c-7.2,0-14.5,0-21.7,0c-0.3,0-0.7,0-1,0.1c-0.4,0.1,0,0.2,1.1,0.2
		C188.9,6.6,192.6,6.6,196.3,6.6z"/>
	<path d="M650.8,0.5c0.3,0,0.6-0.1,0.9-0.1c0.4-0.1,0-0.1-0.9-0.2c-0.1,0-0.6,0.1-0.9,0.1S649.8,0.4,650.8,0.5z"/>
	<path d="M675.5,0.5c1-0.1,1.3-0.1,0.9-0.2c-0.8-0.1-1.5-0.1-2.3-0.1h-4.3c0.9,0.1,1.9,0.2,2.9,0.5C673.6,0.6,674.5,0.6,675.5,0.5z"
		/>
	<path d="M954.7,0.5c1-0.1,1.3-0.1,0.9-0.2c-0.4-0.1-0.8-0.1-0.9-0.1c-1,0.1-1.3,0.2-0.9,0.2C954,0.4,954.3,0.5,954.7,0.5z"/>
	<path d="M969.3,0.4C969.5,0.4,969.3,0.3,969.3,0.4L969.3,0.4z"/>
	<path d="M964.8,0.4c1.5,0.2,3,0.2,4.5,0c-0.2-0.2-0.5-0.2-0.9-0.2c-0.9,0-1.8,0-2.6,0C965.5,0.2,965.2,0.2,964.8,0.4
		C964.7,0.3,964.7,0.4,964.8,0.4z"/>
	<path d="M638.5,0.3c-1.1-0.2-2.3-0.2-3.4-0.2c-1.6-0.1-3.2,0-4.7,0.2c1.1,0.1,2.3,0.2,3.4,0.2C635.3,0.6,636.8,0.5,638.5,0.3z"/>
	<path d="M616.5,0.3c-1.8-0.2-3.7-0.2-5.5,0C612.8,0.6,614.7,0.6,616.5,0.3z"/>
	<path d="M994.4,50.5c0.2-0.1-0.6-0.3-1.4-0.4l-0.1,0.1H982c-0.3-0.1-0.6,0-0.8,0c-0.1,0-0.1,0.1,0.1,0.1c0.6,0.1,1.2,0.2,1.6,0.2
		c1.6,0.3-0.9,0.7,2.1,0.9h8c0.3,0,0.6,0,0.9-0.1c0.1,0,0.2-0.1,0-0.1c-0.6-0.1-1.2-0.2-1.9-0.2c0.4-0.1,0.8-0.2,1.2-0.2
		S994,50.7,994.4,50.5z"/>
	<path d="M1658.4,5.9c1-0.1,1.3-0.2,0.9-0.2c-0.3-0.1-0.6-0.1-0.9-0.1c-1,0.1-1.2,0.1-0.9,0.2C1657.8,5.9,1658.3,5.9,1658.4,5.9z"/>
	<path d="M605.5,0.3c-1.1-0.2-2.3-0.2-3.4-0.2c-1.6-0.1-3.2,0-4.8,0.2c1.1,0.1,2.3,0.2,3.4,0.2C602.3,0.6,604,0.5,605.5,0.3z"/>
	<path d="M1140.9,1.5c0.3,0,0.6,0,0.9-0.1s0-0.2-1-0.2c-0.3,0-0.9,0-1.3,0c-0.8-0.1-1.5,0-2.3,0.1c-0.4,0.1,0.6,0.2,2.4,0.2
		C1140,1.5,1140.5,1.5,1140.9,1.5z"/>
	<path d="M367.3,0.7c-1.1-0.1-2.3-0.2-3.4-0.2c-1.6-0.1-3.2,0-4.8,0.2c1.1,0.1,2.3,0.2,3.4,0.2C364.1,0.9,365.8,0.9,367.3,0.7z"/>
	<path d="M587.8,0.5c0.3,0,0.6,0,0.9-0.1c0.3-0.1-0.1-0.1-1.1-0.2h-8.1c-0.3,0-0.6,0-0.9,0.1c-0.3,0.1,0.1,0.2,1.1,0.2H587.8z"/>
	<path d="M387.9,0.8c0.1,0,0.6-0.1,0.9-0.1s0-0.2-0.9-0.2c-0.3,0-0.6,0.1-0.9,0.1C386.6,0.7,387,0.8,387.9,0.8z"/>
	<path d="M396.1,0.8c0.1,0,0.6-0.1,0.9-0.1s0-0.2-0.9-0.2c-0.3,0-0.6,0.1-0.9,0.1C394.9,0.7,395.1,0.8,396.1,0.8z"/>
	<path d="M374.1,0.8c1-0.1,1.2-0.1,0.9-0.2c-0.3-0.1-0.8-0.1-0.9-0.1c-1,0.1-1.3,0.1-0.9,0.2C373.5,0.8,373.9,0.8,374.1,0.8z"/>
	<path d="M347.6,0.7c0.1,0,0.1-0.1,0.1-0.1c-0.3-0.1-0.6-0.1-0.9-0.1c-0.9,0-1.8,0-2.6,0c-0.3,0-0.6,0-0.9,0.1
		c-0.1,0-0.2,0.1-0.1,0.1C344.6,0.9,346.1,0.9,347.6,0.7z"/>
	<path d="M410.6,0.7c0.1,0,0.1-0.1,0.1-0.1c-0.3-0.1-0.6-0.1-0.9-0.1c-0.9,0-1.8,0-2.6,0c-0.3,0-0.6,0-0.9,0.1
		c-0.1,0-0.2,0.1-0.1,0.1C407.6,0.9,409.1,0.9,410.6,0.7z"/>
	<path d="M568.7,0.5c0.3,0,0.6-0.1,0.9-0.1c0.4-0.1,0-0.1-0.9-0.2c-0.1,0-0.6,0.1-0.9,0.1S567.7,0.4,568.7,0.5z"/>
	<path d="M539.9,0.7c-0.9-0.2-1.8-0.2-2.6,0c0.5,0.1,1,0.1,1.7,0.1C539.3,0.8,539.9,0.7,539.9,0.7z"/>
	<path d="M502.9,0.8c0.1,0,0.6-0.1,0.9-0.1s0-0.2-0.9-0.2c-0.3,0-0.6,0.1-0.9,0.1C501.6,0.7,502,0.8,502.9,0.8z"/>
	<path d="M451,1.2h5.3c1,0,1.3-0.3,1-0.4c-0.2,0-0.6-0.1-1-0.2c-1.8,0-3.6,0-5.3,0c-0.3,0-0.6,0.1-1,0.2C449.5,0.9,450,1.2,451,1.2z
		"/>
	<path d="M417.9,0.8c0.4,0,0.9,0,1.3,0c1.7,0,2.8-0.1,2.4-0.2c-0.7-0.1-1.5-0.2-2.3-0.1c-0.4,0-1,0-1.3,0c-0.9,0.1-1.2,0.2-1,0.2
		C417.3,0.8,417.6,0.8,417.9,0.8z"/>
	<path d="M1255.9,2.5h8.1c1-0.1,1.4-0.2,1-0.2c-0.3-0.1-0.6-0.1-0.9-0.1h-8.1c-1,0.1-1.4,0.2-1,0.2
		C1255.3,2.5,1255.7,2.5,1255.9,2.5z"/>
	<path d="M320.7,56.6c0.6,0.1,1.2,0.2,1.8,0.1c0.3,0,0.9-0.1,0.9-0.1c-0.5-0.1-1.1-0.1-1.8-0.1C321.3,56.5,321,56.6,320.7,56.6z"/>
	<path d="M172.9,58.5c-0.3,0.1-0.1,0.2,0.9,0.3c2.9,0.1,5.9,0.1,8.9,0c0.3,0,0.6-0.1,0.9-0.1c-0.5-0.1-1-0.2-1.5-0.2
		C179.1,58.5,175.9,58.5,172.9,58.5z"/>
	<path d="M275.5,57.8c-0.3,0-0.6,0.1-0.9,0.1c-0.4,0.1,0,0.2,0.9,0.2c0.1,0,0.6-0.1,0.9-0.1S276.5,57.9,275.5,57.8z"/>
	<path d="M289.3,56.5c-0.3,0-0.6,0-0.9,0.1s0.1,0.2,1.1,0.2h8.1c0.3,0,0.6,0,0.9-0.1s-0.1-0.2-1.1-0.2H289.3z"/>
	<path d="M140,4.1c-0.6-0.1-1.2-0.2-1.7-0.1c-0.3,0-0.9,0.1-0.9,0.1c0.5,0.1,1.2,0.1,1.7,0.1C139.4,4.2,139.7,4.1,140,4.1z"/>
	<path d="M349.5,57.5h-8.1c-0.3,0-0.6,0-0.9,0.1c-0.4,0.1,0,0.2,1,0.2h8c0.3,0,0.6,0,1-0.1C350.9,57.6,350.5,57.5,349.5,57.5z"/>
	<path d="M357,56.7c-0.8,0-1.8-0.2-2.5-0.3s-1.3-0.2-2.2-0.2H328c-1,0-1.9,0.4-1.9,0.5c0.3,0.4,0.9,0.6,1.4,0.5h8.2
		c0.9-0.1,1.9-0.2,2.8-0.3c0.9,0.2,1.9,0.3,2.8,0.3h5.3c1.1-1,2-0.2,2.9-0.3c1.1,0.1,2.2,0.3,2.8,0.3h8.6
		C359.6,56.6,358.3,56.4,357,56.7z"/>
	<path d="M199.3,58.3v0.3c2,0.2,4,0.2,6,0v-0.3C203.3,58.1,201.3,58.1,199.3,58.3z"/>
	<path d="M246.9,56.3c2.9,0.2,5.8,0.3,8.7,0.1c-1.3-0.2-2.7-0.3-4-0.3C250.1,56,248.4,56.1,246.9,56.3z"/>
	<path d="M186.7,58.6c0.6,0.1,1.2,0.2,1.8,0.1c0.3,0,0.6-0.1,0.9-0.1c-0.6-0.1-1.3-0.1-1.8-0.1C187.3,58.5,186.7,58.6,186.7,58.6z"
		/>
	<path d="M213.9,58.3c1.8,0.2,3.7,0.2,5.5,0C217.6,58,215.8,58,213.9,58.3z"/>
	<path d="M223.6,58.2c-0.8,0.1-1.2,0.2-0.9,0.2c1.2,0.1,2.4,0.2,3.6,0.1c2-0.2,2-0.4-0.1-0.7C225.3,57.9,224.4,58,223.6,58.2z"/>
	<path d="M335.9,57.5c-1,0.1-1.3,0.1-0.9,0.2c0.4,0.1,0.8,0.1,0.9,0.1c1-0.1,1.3-0.2,0.9-0.2C336.5,57.5,336.1,57.5,335.9,57.5z"/>
	<path d="M935.3,57.2l-2.4-0.3l-3.9,0.5c0.5,0.1,0.9,0.2,1.4,0.2c2.6,0,5.3,0,7.9,0c1.2-0.2,1.2-0.3-0.1-0.3
		C937.3,57.1,936.5,57.2,935.3,57.2z"/>
	<path d="M927.3,53.1c2-0.2,2-0.5,0-0.7C925.3,52.6,925.3,52.9,927.3,53.1z"/>
	<path d="M1101.2,57.8c0.3-0.1,0-0.2-1-0.3c-1.3,0-2.6,0-3.9,0h-73.9c-0.8,0-1.7,0-2.5,0c-0.7-0.1-1.4-0.2-2.1-0.2h-11
		c-1.9-0.1-3.8-0.2-5.6-0.5c-2.6,0.5-5.3,0.5-8,0.1c-0.9,0.1-1.8,0.2-3.1,0.3c-2.3,0-5,0-7.7,0c-0.5,0-1.1-0.1-1.6-0.2
		c-0.2-0.2-0.1-0.3-1.4-0.4l-5.7,0.7c-1.1,0-2.2,0-2.8,0c-1.8-0.2-3.3-0.4-5.2-0.6c-1.5,0-3.3,0-5.1,0c-1.4,0-2.1,0.2-1.9,0.4
		c0.2,0.2-0.3,0.2-1.2,0.3h-2.8l-5.7-0.7l-3.9,0.5c-0.1,0.3-0.1,0.3,0.8,0.5c3.9,0.2,8,0,11.9,0.1l2.3,0.3h35.2c0.4,0,0.7,0,1.1-0.1
		c0.6-0.1,1.3,0,2-0.1c1,0.2,1.9,0.4,2.9,0.5h99.8c-0.2,0-0.2-0.1,0.1,0c0.3,0.1,1,0,1.6,0.1c0.3,0,0.5-0.1,0.8-0.1
		c-0.4-0.1-0.8-0.2-1.2-0.2C1101.9,57.8,1101.6,57.8,1101.2,57.8z"/>
	<path d="M439.9,57.2c0.4,0,0.7,0,0.9,0C440.5,57.1,440.1,57.1,439.9,57.2z"/>
	<path d="M963.7,55.6c-0.3-0.1-0.8-0.1-0.9-0.1c-1,0.1-1.3,0.2-0.9,0.2c0.4,0,0.6,0,0.9,0.1C963.8,55.7,964,55.7,963.7,55.6z"/>
	<path d="M423,57.2c-0.3,0-0.9,0.1-0.9,0.1c0.6,0.1,1.2,0.2,1.8,0.1c0.3,0,0.6-0.1,0.9-0.1C424.1,57.2,423.5,57.1,423,57.2z"/>
	<path d="M383.8,57.6c0.3,0.1,0.6,0.1,0.9,0.1c0.6,0,1.2,0,1.8-0.1c-0.3,0-0.6-0.1-0.9-0.1C385,57.5,384.4,57.5,383.8,57.6z"/>
	<path d="M364.6,57.5c-0.4,0-1,0-1.3,0c-1,0.1-1.4,0.1-1,0.2c0.3,0.1,0.6,0.1,0.9,0.1c0.4,0,0.9,0,1.3,0c1.7,0,2.8-0.1,2.3-0.2
		C366.1,57.4,365.4,57.4,364.6,57.5z"/>
	<path d="M364.7,56.5h3.8c0.3,0,0.7,0,1-0.1c0.1,0,0.3,0,0.4-0.1c-0.4-0.1-0.6-0.1-0.9-0.1C366.1,56.1,365.2,56.2,364.7,56.5z"/>
	<path d="M374.8,56.5c1.1,0.1,1.4,0.2,1.8,0.2c3.9,0.1,7.9,0.1,11.8,0c0.3,0,0.7-0.1,1-0.1C386.9,56.4,386.9,56.4,374.8,56.5z"/>
	<path d="M409,56.4c-0.9,0-1.7,0-2.5-0.1l-1.9-0.2h-2.8l-3,0.3l-2.8-0.3l-3.8,0.5c0.5,0.1,1.1,0.2,1.6,0.2c8.2,0,16.3,0,24.5,0
		c0.3,0,0.6,0,0.9-0.1c-0.2-0.1-0.5-0.1-0.8-0.1C415.4,56.4,412.3,56.5,409,56.4z"/>
	<path d="M363,56.8c0.3,0,0.5-0.1,0.9-0.1c0.2,0,0.5-0.1,0.7-0.1c0.1,0,0.1-0.1,0-0.1c-0.7,0-1.4,0-2.1,0.1
		C361.9,56.7,362,56.8,363,56.8z"/>
	<path d="M78,5.3c-0.3,0-0.6,0.1-0.9,0.1c0.6,0.1,1.2,0.2,1.8,0.1c0.3,0,0.9-0.1,0.9-0.1C79.2,5.3,78.6,5.2,78,5.3z"/>
	<path d="M78.8,4.5c0.3,0,0.7-0.1,1-0.1C77,4.2,77,4.2,59.8,4.3c1.2,0.2,1.5,0.2,1.8,0.2C67.3,4.6,73.2,4.6,78.8,4.5z"/>
	<path d="M54.7,5.8c0.3,0,0.7-0.1,0.9-0.1c0.7-0.1,2.3-0.2,1.8-0.3c-1.2-0.1-2.3-0.2-3.5-0.1c-2,0.3-2,0.3-0.2,0.7L54.7,5.8z"/>
	<path d="M90.3,5.4v0.3c1.7,0.2,3.3,0.2,5,0V5.4C93.6,5.2,91.9,5.2,90.3,5.4z"/>
	<path d="M51,4.5c1-0.1,1.3-0.1,0.9-0.2c-0.4-0.1-0.7-0.1-0.9-0.1c-1,0.1-1.3,0.2-0.9,0.2C50.5,4.5,50.8,4.5,51,4.5z"/>
	<path d="M111.3,5.6c0.3,0,0.6-0.1,0.9-0.1c0.4-0.1,0-0.2-0.9-0.2c-0.1,0-0.6,0.1-0.9,0.1S110.3,5.5,111.3,5.6z"/>
	<path d="M130.4,4.1h-0.1C130.3,4.1,130.4,4.1,130.4,4.1L130.4,4.1z"/>
	<path d="M130.4,4.1c0.4,0.1,0.7,0.1,1,0.1C131.7,4.1,131.3,4.1,130.4,4.1z"/>
	<path d="M124.2,4.2c0.2,0,0.5,0,1,0C124.8,4.2,124.5,4.1,124.2,4.2z"/>
	<path d="M93.6,4.4c-1.8-0.2-3.7-0.2-5.5,0C89.8,4.6,91.7,4.6,93.6,4.4z"/>
	<path d="M132.4,4.9h-0.1C132.1,4.9,132.3,5,132.4,4.9z"/>
	<path d="M141.4,5.2c1.9,0,1.9-0.1-0.1-0.5c-2.7,0-5.3,0.1-8,0.1c-0.3,0-0.5,0.1-0.8,0.1c1,0.1,2,0.2,3,0.3H141.4z"/>
	<path d="M10.1,7.2h5.4c1.1,0,2.1,0.1,3.2,0.2c2,0,3.7-0.1,5.2-0.1c0.9-0.1,1.6-0.2,2.2-0.3c0.4,0,0.8-0.1,1.2-0.1h45.1
		c0.4,0,0.8-0.3,1.1-0.3c0.7-0.1,1.3,0.5,2.1-0.5H0.3v1h9.8V7.2z"/>
	<path d="M89.4,7.2H92c1-0.1,2-0.3,2.9-0.5c28.3,0,56.5,0,84.8-0.1c0.3,0,0.6-0.1,0.9-0.2c0.3-0.1-0.2-0.3-1.3-0.3h-7.9
		c-1.3-0.1-2.6-0.2-3.9-0.4l2.6-0.3c-0.1-0.2,0.5-0.3-1.6-0.5c-3,0-6.6,0-10.2,0c-0.6,0-1.1,0.1-1.6,0.2l3.9,0.5c0.4,0,0.9,0,1.3,0
		c0.8-0.1,1.6,0,2.3,0.1c0.3,0.1-0.2,0.1-1,0.2c-1,0.1-2,0.3-2.7,0.3h-5.4c-1.3,0-1.6-0.3-3.2-0.2l-2,0.3c-0.6-0.1-1.4-0.1-1.9-0.2
		c-1.2-0.1-2.5-0.2-3.8-0.2c-1,0.2-2,0.3-3,0.3h-5.4c-1-0.1-1.9-0.2-2.8-0.3c-1,0.2-2,0.3-3.1,0.3H86.6C87.3,7.2,88.3,7.2,89.4,7.2z
		"/>
	<path d="M172.1,58.2c-0.6-0.1-1.1-0.1-1.7,0.1c-0.1,0,0.1,0.1,0.3,0.1c0.3,0,0.6,0.1,0.9,0.1c0.4,0,1.1,0,1.2,0
		C173.3,58.3,172.9,58.3,172.1,58.2z"/>
	<path d="M118.2,4.1C117.6,4,117,3.9,116.3,4c-0.3,0-0.9,0.1-0.9,0.1c0.7,0.1,1.3,0.1,1.9,0.1C117.6,4.2,117.9,4.1,118.2,4.1z"/>
	<path d="M41,56.7c0.3-0.1,0-0.2-0.9-0.2c-0.3,0-0.6,0.1-0.9,0.1c-0.4,0.1,0,0.2,0.9,0.2C40.3,56.8,40.8,56.7,41,56.7z"/>
	<path d="M62.5,56.7c0.2,0,0.5-0.1,0.7-0.1c0.1,0,0.2-0.1,0-0.1c-0.7,0-1.4,0-2.1,0.1c-0.6,0.1-0.5,0.2,0.5,0.2
		C62,56.7,62.3,56.7,62.5,56.7z"/>
	<path d="M36,58.5c1.7,0,2.8-0.1,2.3-0.2c-0.7-0.1-1.5-0.1-2.2-0.1c-0.4,0-1,0-1.3,0c-1,0.1-1.3,0.1-1,0.2c0.2,0,0.5,0.1,0.9,0.1
		C35.1,58.5,35.6,58.5,36,58.5z"/>
	<path d="M1711.3,54.9v0.3c2,0.2,4,0.2,6,0v-0.3C1715.3,54.7,1713.3,54.7,1711.3,54.9z"/>
	<path d="M156.4,58.6c0,0.1,0.1,0.1,0,0.2c-0.1,0.1,0,0.2,0.9,0.3c0.6,0,1.3,0,1.9-0.1c0.8-0.1,1.9-0.2,2.9-0.3
		C160.3,58.4,158.4,58.4,156.4,58.6z"/>
	<path d="M21.4,57.1c0.3,0,0.7-0.1,1-0.1c-2.6-0.2-2.6-0.2-17.3-0.1C6.3,57,6.6,57,6.8,57.1C11.6,57.2,16.5,57.2,21.4,57.1z"/>
	<path d="M29.9,56.8c-1.6-0.1-3.2,0-4.8,0.2c1.1,0.1,2.3,0.2,3.4,0.2c1.5,0,3.1-0.1,4.8-0.2C32.2,56.9,31,56.8,29.9,56.8z"/>
	<path d="M24.5,4.8C24.6,4.8,24.6,4.7,24.5,4.8c-0.2-0.2-0.5-0.2-0.8-0.2c-0.9,0-1.8,0-2.6,0c-0.3,0-0.6,0-0.9,0.1
		c-0.1,0-0.2,0.1-0.1,0.1C21.5,4.9,23,4.9,24.5,4.8z"/>
	<path d="M94.7,8.2c0.3,0,0.6,0,0.8,0s0.5-0.1,0.6-0.1s0.1-0.1,0.2-0.2c-0.7,0-1.4,0-2.1,0.1C93.6,8.1,93.7,8.1,94.7,8.2z"/>
	<path d="M103.2,58.2c-1,0-2,0.9-2.9,1h27.4c-0.9-0.1-1.9-1-2.7-1H103.2z"/>
	<path d="M18,59.3c-1.4-0.2-2.6-0.4-4-0.6c-0.6-0.1-1.4-0.2-2.1-0.2c-2.9,0.1-6.3-0.2-8.8,0.2L3.3,59l2.5,0.3
		c-0.4,0.1-0.7,0.1-1.1,0.1c-0.9,0.1-1.3,0.2-1,0.2c0.8,0.1,1.6,0.2,2.3,0.1c1.3,0,2.7,0,4,0l3-0.3c1,0,1.9,0.2,2.6,0.2
		c1,0.1,2,0.5,2.6,0.5h5.4c1.1-0.1,2.1-0.3,3.1-0.5c18,0,35.8-0.1,53.5-0.1c0.4,0,0.8-0.1,1.2-0.1l1.9-0.3H21
		C20,59.2,19,59.2,18,59.3z"/>
	<path d="M138.8,59.2h-0.2c1.1,0,2.1,0.1,3.1,0.1s1.3-0.1,1-0.1H138.8z"/>
	<path d="M147.1,58.5c-1.4-0.1-2.9,0-4.3,0.2c-0.2,0,0,0.1,0,0.2c1.3,0,2.7,0.1,4,0.3c0.5,0,0.9-0.1,1.4-0.2
		C148.6,58.7,147.9,58.5,147.1,58.5z"/>
	<path d="M1737.9,53c-0.4,0-1,0-1.3,0s-0.2,0.1,0,0.2c1.2,0.2,2.3,0.2,3.5,0.2c0.7-0.1,1.4-0.1,2.1-0.2c0.9-0.1,1.7-0.2,2.3-0.3
		c-1.3-0.2-2.6-0.2-3.7-0.2L1737.9,53z"/>
	<path d="M1147.3,4.8c0.3-0.1,0-0.2-0.9-0.2c-0.3,0-0.6,0.1-0.9,0.1c-0.4,0.1,0,0.2,0.9,0.2C1146.6,4.9,1146.9,4.8,1147.3,4.8z"/>
	<path d="M1152.8,4.8c0.3-0.1,0-0.2-0.9-0.2c-0.3,0-0.6,0.1-0.9,0.1c-0.4,0.1,0,0.2,0.9,0.2C1151.9,4.9,1152.4,4.8,1152.8,4.8z"/>
	<path d="M1169.7,4.7c1.8,0.2,3.7,0.2,5.5,0C1173.3,4.5,1171.4,4.5,1169.7,4.7z"/>
	<path d="M1019,5.1c0.6,0.1,1.2,0.2,1.8,0.1c0.3,0,0.6-0.1,0.9-0.1c-0.6-0.1-1.2-0.2-1.8-0.1C1019.7,5,1019,5,1019,5.1z"/>
	<path d="M1314.8,5.7c-0.9-0.2-1.8-0.2-2.6,0c-0.1,0,0.6,0.1,0.9,0.1C1313.6,5.9,1314.2,5.8,1314.8,5.7z"/>
	<path d="M1136.3,4.4C1136.5,4.4,1136.4,4.3,1136.3,4.4c-0.2-0.1-0.5-0.2-0.9-0.2c-0.9,0-1.8,0-2.6,0c-0.3,0-0.6,0-0.9,0.1
		c-0.2,0-0.2,0.1-0.1,0.1C1133.3,4.6,1134.8,4.6,1136.3,4.4z"/>
	<path d="M1916.6,10.5c1-0.4,0.2-0.6-2.4-0.6c-4.9,0-9.9,0-14.8,0c-0.8,0.1-1.2,0.2-1,0.3c0.3,0.1,0.6,0.1,0.9,0.1h13.5l2.9,0.3
		C1916,10.6,1916.5,10.5,1916.6,10.5z"/>
	<path d="M1013.7,5.1c0.6,0.1,1.2,0.2,1.8,0.1c0.3,0,0.9-0.1,0.9-0.1c-0.6-0.1-1.2-0.2-1.8-0.1C1014.2,5,1013.8,5,1013.7,5.1z"/>
	<path d="M1790.8,11.1c-0.3-0.1-0.6-0.1-0.9-0.1h-8.1c-1,0.1-1.4,0.1-1.1,0.2c0.3,0.1,0.6,0.1,0.9,0.1h8.1
		C1790.7,11.2,1791.1,11.2,1790.8,11.1z"/>
	<path d="M1913.2,11.6c-4.5,0-9.1,0-13.6,0c-1-0.2-2-0.3-3-0.4h-19.1c-11.8,0-23.6,0.1-35.4,0.1c-0.5,0-1,0.1-1.5,0.3
		c-0.5,0.3,0.8,0.4,2.8,0.4h69.5c1,0,1.5-0.1,1.2-0.2C1913.8,11.7,1913.4,11.6,1913.2,11.6z"/>
	<path d="M1267.4,51.4c-0.8,0-1.7,0-2.5,0c-0.7,0-1.4,0-2.1,0c-0.6,0.1-1.3,0.2-1.9,0.3c-0.8-0.1-1.5,0-2.2-0.1
		c-0.4,0-0.9-0.1-1.3-0.1l-2.8,0.4c1.5,0.2,3,0.2,4.5,0.1c1.1-0.1,1.9-0.2,2.6-0.3c2.1,0.1,4.4,0,6.5-0.2l0,0
		C1268,51.5,1267.6,51.4,1267.4,51.4z"/>
	<path d="M1911.2,42.2h-5.4C1907.6,42.2,1909.4,42.3,1911.2,42.2z"/>
	<path d="M735.6,51.7c0.3,0,0.6,0,0.9-0.1c0.3-0.1,0-0.1-0.9-0.2c-0.3,0-0.5,0.1-0.9,0.1S734.6,51.6,735.6,51.7z"/>
	<path d="M1840.9,43c0.1,0.1,0.4,0.2,1.1,0.2h5.3c0.6,0,1-0.1,1.1-0.2h-6.2C1841.8,43,1841.4,43,1840.9,43z"/>
	<path d="M1267.1,2.8h-18.8c-0.4,0-0.7-0.3-1.1-0.3c-0.7-0.2-1.3-0.3-2-0.5h-5.5c-0.9,0-1.9,1-2.8,1h-2.6c-1,0-2-1-3.1-1h-35.3
		c-1,0-2,0-3.1-0.2c-11.6,0-23,0.1-34.4,0.1c-0.4,0-0.8,0-1.2,0l-2-0.2c-3.4-0.1-7.1,0.1-10.7,0.1s-7.3,0.1-11,0.1h-6.2
		c1.1,0,2.1,1,2.8,1H1116c-1.2,0-3.5,0.3-5.6,0.4c-1.3,0-1.2,0.2,0.3,0.3c3.4,0.1,7,0,10.6,0c3.2,0,6.4,0,9.6,0
		c3.6,0,7.2-0.1,10.5,0c0.7,0.1,1.5,0.2,2.2,0.2h35.8c-1,0-2-1-3-1h-1.2c0.5-0.1,1-0.2,1.5-0.2c1.1,0.1,2.2,0.2,3,0.3h37.2
		c0.4,0,0.8,0,1.2,0l1.9,0.2c0.4,0,0.8,0,1.2,0h53c-1.7-0.2-2.6-0.5-4.8-0.5C1268.7,2.7,1268.1,2.7,1267.1,2.8z M1135.4,3.2
		c0.9-0.1,1.9-0.2,2.9-0.5c0.8,0.1,1.5,0.1,2.2,0.2c3.1,0.1,6.3,0,9.4,0c3.6,0,7.2-0.1,10.6,0c0.4,0,0.8,0.1,1.2,0.2L1135.4,3.2z"/>
	<path d="M1274.2,3.1c0.3,0,0.5,0,0.8,0.1c-0.1,0-0.3-0.1-0.5-0.1H1274.2z"/>
	<path d="M1224.5,51.1c-0.4-0.1-0.9-0.1-1.3-0.1l0.1,0.1H1224.5z"/>
	<path d="M1170,51.7c0.7,0,1.4,0,2.1,0c-0.5,0-0.9,0-1.4-0.1L1170,51.7z"/>
	<path d="M1140.1,51.7c-1.3-0.2-2.7-0.3-4-0.3c-1.6,0-3.2,0-4.8,0.2C1134.3,51.8,1137.2,51.8,1140.1,51.7z"/>
	<path d="M1911.2,42.2h7.4V42h-5.3C1912.6,42,1911.9,42.1,1911.2,42.2z"/>
	<path d="M1900.3,42.2l-3.2-0.3l-2.8,0.3c-0.8,0-1.8,0-2.6,0c-0.7,0-1.1,0-1.2,0.1c2.3,0,4.5-0.1,6.7,0c0.6,0.1,1.2,0.2,1.8,0.2h3.5
		c0.8-0.2,1.7-0.3,2.5-0.3h0.8C1904,42.2,1902.1,42.2,1900.3,42.2z"/>
	<path d="M755.3,51.5c1.6,0.3,3.3,0.3,4.9,0.2l2.3-0.3L755.3,51.5L755.3,51.5z"/>
	<path d="M1373.7,52.1c0.3,0,0.6,0,0.9-0.1h-1.7C1373.1,52,1373.4,52.1,1373.7,52.1z"/>
	<path d="M1173.5,51.8c0.2,0,0.3-0.1,0.5-0.1c-0.6,0-1.3,0-1.9,0C1172.6,51.7,1173,51.8,1173.5,51.8z"/>
	<path d="M1595.5,53.3h8.1c0.8,0,1.1,0,1.1-0.1h-10.1C1594.9,53.3,1595.2,53.3,1595.5,53.3z"/>
	<path d="M1430.2,52.3c1.2,0.1,2.4,0.1,3.6,0.1c2-0.2,2-0.4-0.2-0.6c-0.9,0.1-1.8,0.2-2.6,0.3C1430.2,52.2,1429.8,52.2,1430.2,52.3z
		"/>
	<path d="M1059.2,51.1c-0.7,0-1.3-0.1-2-0.2c-1.3-0.2-2.6-0.3-3.9-0.5c-0.3,0-0.9,0-1.3,0c0.3,0.1,0,0.2-1,0.3c-0.8,0-1.7,0-2.6,0
		h-6.8c-2.4,0-2.4,0-3.5,0.5c-0.3,0.1-0.7,0.1-1,0.1h25.4C1061.6,51.2,1060.7,51,1059.2,51.1z"/>
	<path d="M1064.9,51.5c0.8,0,1.9,0.1,2.5,0s1.2-0.1,1.8-0.2h-6.6C1063.3,51.4,1064,51.5,1064.9,51.5z"/>
	<path d="M1860.8,49.7c-0.4,0-0.6,0.1-0.9,0C1860.2,49.8,1860.4,49.8,1860.8,49.7c0.5,0.1,1.2,0.2,1.8,0.2c-0.2,0-0.4-0.1-0.5-0.2
		H1860.8z"/>
	<path d="M1885.8,49.9c-0.7-0.8-1.7-0.3-2.7-0.4c-0.9,0.1-1.9,0-2.8,0.1l-1.5-0.2c-0.9,0.2-1.7,0.3-2.6,0.5
		C1876.2,49.9,1885.8,49.9,1885.8,49.9z"/>
	<path d="M206.9,56c0.4,0.1,0.8,0.1,1.3,0H206.9C207,56,206.9,56,206.9,56z"/>
	<path d="M1731.8,51.2c-0.5,0-0.6-0.1-0.4,0C1731.6,51.2,1731.8,51.2,1731.8,51.2z"/>
	<path d="M1614.4,53.2h-3.7c-1.1,0.1-2.1,0.3-2.8,0.5h9.3c0.3,0,0.7-0.1,1-0.1c0.1,0,0.1-0.1,0.2-0.1c-0.3,0-0.7,0-1,0
		C1616.4,53.3,1615.4,53.2,1614.4,53.2z"/>
	<path d="M1862.6,49.9c0.3,0.1,0.5,0.1,0.8,0.1h12.2c0.2,0,0.4-0.1,0.6-0.1h-11.6C1863.9,49.9,1863.3,49.9,1862.6,49.9z"/>
	<path d="M1386.4,52h-1.4c1.2,0.1,2.4,0.1,3.5,0.1l-0.9-0.1C1387.2,52,1386.8,52,1386.4,52z"/>
	<path d="M1821.3,46.4L1821.3,46.4C1821.4,46.4,1821.4,46.4,1821.3,46.4l1.6,0.1c-0.2,0-0.6-0.1-1.3-0.2
		C1821.5,46.4,1821.4,46.4,1821.3,46.4z"/>
	<path d="M1740.5,51.1h-2.6c0.7,0.1,1.6,0.4,2.5,0.5C1742.6,51.3,1742.6,51.2,1740.5,51.1z"/>
	<path d="M1247.3,50.8c-0.8,0.1-1.4-0.4-2.3,0.3h2.7c1,0,1.9,0,2.9,0.1c0.1,0,0.3,0,0.4-0.1l0,0C1250,50.9,1248.7,51,1247.3,50.8z"
		/>
	<path d="M1610.4,17C1610.5,17,1610.5,16.9,1610.4,17C1610.4,16.9,1610.4,17,1610.4,17z"/>
	<path d="M1611.4,16.9l0.3-0.1c-0.2,0-0.4,0-0.7,0.1H1611.4z"/>
	<path d="M1516.1,52.4c-0.3,0-0.6,0-0.9,0.1c-0.2,0-0.2,0.1-0.1,0.1c1.5,0.2,3,0.2,4.5,0c-0.3-0.1-0.5-0.2-0.9-0.2
		C1517.9,52.4,1517,52.4,1516.1,52.4z"/>
	<path d="M1225.6,51.3c0.2,0,0.5-0.1,0.7-0.1c1.8,0.1,3.7-0.1,5.5,0.1c1.6,0.3,3.1,0.5,4.7,0.5c1.9-0.3,3.8-0.4,5.7-0.5h2.5
		c0.1-0.1,0.2-0.1,0.3-0.2h-20.5C1224.8,51.1,1225.2,51.2,1225.6,51.3z"/>
	<path d="M1519.6,52.6C1519.8,52.6,1519.7,52.5,1519.6,52.6L1519.6,52.6z"/>
	<path d="M1713.2,52.7c0.3,0,0.6,0,0.9-0.1s0-0.1-0.9-0.2c-0.4,0-0.9,0-1.3,0c-0.8-0.1-1.6,0-2.3,0.1c-0.5,0.1,0.6,0.2,2.3,0.2
		C1712.3,52.7,1712.8,52.7,1713.2,52.7z"/>
	<path d="M1700.8,52.6c1.9,0.2,3.8,0.2,5.5,0C1704.5,52.4,1702.6,52.4,1700.8,52.6z"/>
	<path d="M937.4,50.8C937.3,50.8,937.3,50.9,937.4,50.8c1.6,0.3,3.1,0.3,4.6,0.1C940.4,50.6,938.9,50.6,937.4,50.8z"/>
	<path d="M1219.6,51.5c-0.7-0.1-1.4-0.2-2.1-0.2h-2.9h-15.4c-0.3,0-0.6,0.1-0.9,0.1s-0.5-0.1-0.8-0.1h-21c-0.8,0.1-1.7,0.2-2.5,0.4
		c18.1,0,36.2,0,54.3,0c1,0,1.5-0.1,1-0.3c-0.3-0.1-0.6-0.1-0.9-0.1c-0.9,0-1.8,0-2.7,0h-0.1c-0.7,0.1-1.4,0.1-2.3,0.2
		C1222,51.6,1220.8,51.6,1219.6,51.5z"/>
	<path d="M1276.5,51.9c0.6,0.1,1.2,0.1,1.8,0.1c0.3,0,0.5,0,0.9-0.1c-0.6-0.1-1.2-0.1-1.8-0.1C1277.1,51.8,1276.4,51.9,1276.5,51.9z
		"/>
	<path d="M1080.6,3.2h-30.8c0.4,0,0.8,0,1.2,0.1l2.3,0.3h48.8c0.5,0,1-0.1,1.5-0.2c-0.3-0.1-0.6-0.1-0.9-0.1c-6.4,0-12.7,0.1-19,0.1
		C1082.7,3.3,1081.6,3.2,1080.6,3.2z"/>
	<path d="M1006,1.4c0.5,0,0.8,0.2,1.3,0.3c0.7,0.2,1.4,0.4,2.1,0.5h13.7c-1.4,1-2.7,0.5-4,0.7c0.3,0.1,0.5,0.2,0.8,0.2
		c1.3,0,2.6,0.1,3.9,0.1c7.1,0,14.2,0,21.3,0c-1,0-2-1-2.8-1h70.5c-3.7,0-7.3-0.1-11-0.2s-7.2-0.2-10.6-0.3
		c-0.7-0.2-1.5-0.4-2.2-0.5h-8.2l0,0c0.8-0.1,1-0.2,0.8-0.2c-0.3-0.1-0.6-0.1-0.9-0.1h-8.1c-1,0.1-1.4,0.1-1.1,0.2
		c0.2,0,0.4,0.1,0.6,0.1h-68.8C1004.2,1.2,1005.1,1.4,1006,1.4z"/>
	<path d="M921.5,57.2c-0.8,0-1.8,0-2.5,0l-3-0.3h-15.3c-0.4,0-0.8,0-1,0c-1-0.1-2-0.1-3,0c-0.7,0.2-1.4,0.4-2.1,0.5h-11
		c-0.8,0-1.8-1-2.9-1h-2.6c-0.9,0-1.9,1-2.9,1h-2.7c-2-1-3.3-0.5-5.8-0.6c-1.6,0.2-3.2-0.4-5,0.6h-5.4l2.6,0.3h63
		c0.3,0,0.6,0,0.9-0.1C923,57.2,922.5,57.2,921.5,57.2z"/>
	<path d="M648,54.2h13.7c1,0,2.1,0.1,3.1,0.3c2.2,0.1,4.3,0,6.5-0.2c-0.3-0.1,0.5-0.4-1-0.5c-2.5-0.1-5.3,0-8,0
		c-3.1,0-6.3,0.1-9.3-0.1c-0.7-0.1-1.3,0-2.1,0C650,53.8,649,53.2,648,54.2z"/>
	<path d="M869.8,52.2H793c1,0.1,2,0.2,2.9,0.4c2.7-0.4,5.4-0.4,8.1,0.1c3.6,0,7.7,0,11.8,0c0.8,0,1.7,0,2.5,0c0.7-0.1,1.3,0.1,2,0
		c0.9,0.1,1.9-0.5,2.9,0.5h49.1c1,0,1.9,0.2,2.9,0.3c1-0.1,2-0.3,2.8-0.3h8.3c0.7,0,1.4,0,2.1,0c0.4,0,0.8,0,1.2,0
		c4.1,0,8.2,0,12.3,0c0.4,0,0.8-0.1,1.2-0.1l1.9-0.3c0.9,0,1.8,0,2.6-0.1c0.5,0,1.1-0.1,1.6-0.2c-0.7-0.1-1.4-0.2-2.2-0.2
		c-11.4,0-22.8,0-34.3,0C871.8,52.3,870.8,52.2,869.8,52.2z"/>
	<path d="M991.8,1c-1.9-0.3-3.8-0.3-5.7,0c-0.6,0.1-1.2,0.1-1.8,0.1h8C992.1,1.1,992,1,991.8,1z"/>
	<path d="M992.9,1.1h-0.6C992.5,1.1,992.7,1.2,992.9,1.1z"/>
	<path d="M984,1.2h-10.2c0.7,0,1.5,0,2.2,0.1C978.6,1.4,981.3,1.2,984,1.2z"/>
	<path d="M850.5,56.2h-10.9c-1,0-2,0.1-3,0.3c-1,0-1.9,0-2.6,0c-1.1-0.2-2.1-0.3-3.2-0.3H826c-1.6,0-1.8-0.5-3.4-0.4
		c-1.6,0.2-3.2,0.4-4.9,0.4h-16.5c-2.8,0-2.8-0.3-3.8-0.2l-0.8,0.5c-3.4,0.1-6.5,0.1-9.5,0l-2.3-0.3c-3.7,0-7.8,0-11.8,0
		c-3.4,0-3.2-0.3-3.5-0.5c-0.3-0.1-0.6-0.1-1-0.1c-0.3,0-0.6,0-0.9,0.1c-0.5,0.3-1.1,0.5-1.6,0.6h-3c-1-0.1-2-0.2-2.9-0.4h-2.7
		c-1.1,0.1-2.1,0.3-2.8,0.3h-8.1c-1,0-2-0.2-3-0.3h-5.4l-2.2-0.3c-0.9,0-1.7,0.2-2.8,0.2s-2-0.4-3.1,0.6h-3c1,0.1,2,0.3,3,0.5
		c0.9-0.1,1.9,0.1,2.8,0c1.1,0.1,2.1,0.6,2.8,0.6h8.3c0.8-1,1.5-0.4,2.2-0.5c1.6-0.1,3.4-0.1,5.2-0.2c1.4,0,2.7-0.1,4.1,0
		c1.8,0,3.6,0.1,5.3,0.2c0.7,0.2,1.4,0.3,2.1,0.4h5.5c0.7,0,1.7-1,2.9-1h8.1c0.9-0.1,1.9,0.9,2.9,0.9h5.3c1,0,2,0,3,0.1
		c1.9-0.4,3.8-0.5,5.7-0.4c0.8,0.1,1.6,0.2,2.3,0.2H828c3.7,0,7.3,0,11,0c3.1,0,6.3-0.1,9.3,0l2,0.2h2.8l2.7-0.3h-2.4
		C852.7,57.2,851.7,56.2,850.5,56.2z"/>
	<path d="M1919.2,48.2h-18.9c0.6,0.1,1.1,0.4,1.5,0.8c-0.2,0-0.5-0.1-0.7-0.1h-9.8c0.7-0.3,1.3-0.5,1.9-0.5c0.3,0,0.6,0.1,0.8,0.1
		c1-0.1,2-0.3,2.8-0.3h-2c-0.6-0.1-1.1-0.2-1.7-0.2c-8.2,0-16.4-0.1-24.6-0.1c-0.8,0-1.7-0.1-2.5-0.1l-2-0.3l-2.9,0.3h-13.6
		c-0.3,0-0.7,0.1-1,0.1c-0.1,0-0.3,0.1-0.4,0.1c-0.1,0.1-0.3,0.1-0.4,0.2h-1c0.3,0,0.5,0.1,0.8,0.1c-0.4,0.1-0.9,0.1-2.4,0.1h-6.5
		c-1.4-0.1-1.6-0.2-0.8-0.3c1.6-0.2,3.5-0.1,5.2-0.1c0.7,0,1.5,0,2.2-0.1v-0.3c-3-0.3-3-0.7-6.8,0.3h-5.5c0.7-0.8,1.8-1.1,2.9-1h5.5
		c-1-1-2-0.5-2.9-0.6c-0.7,0.1-1.4,0-2,0.1c-0.3,0-0.6,0-1,0.1c-0.9,0.2-1.9,0.2-2.9,0.2c-1.5-0.1-0.8-0.3-0.8-0.5l2.5-0.4l-5-0.6
		c0.1-0.1,0.2-0.1,0.3-0.1c1-0.2,2.6,0,3.7-0.1s1.8-0.2,2.7-0.3l2.3,0.3l2.8-0.3c2.8,0.1,0.5,0.4,2.8,0.5c1-0.2,2-0.3,3-0.4h5.3
		c1,0,1.9-0.1,2.9-0.2c1.1,0.1,2.2,0.3,3,0.3c3.9,0,7.5,0,11,0.1l2,0.3c2.2,0.1,4.3,0.1,6.4,0l2.1-0.3c0.9,0.1,1.9,0.1,2.8,0.2
		c0.9-0.2,1.9-0.3,2.8-0.4h5.3c1,0.1,1.9,0.2,2.9,0.4c1.2-0.1,2.2-0.2,3.2-0.3c2.4,0.1,4.8,0,7.2,0.1c1.5,0.1,3,0.2,4.6,0.2l1.2,0.2
		c0.8-0.1,1.6-0.2,2.4-0.2h9.5v-0.8h-17c-0.4,0-1.1,0-2.1,0.1v0.3c-0.6,0-1.3,0-1.9,0c-0.8,0-1.6,0-2.4-0.1
		c-0.2-0.1-0.3-0.1-0.4-0.2c-0.8-0.4-0.8-0.5-2.9-0.5H1867c-1,0.1-2.1,0.2-3.1,0.4c-28.6,0-28.5,0-31.1-0.1c0.9-0.1,1.8-0.2,2.8-0.3
		v-0.3c1-0.2,2.5-0.6,3.9-0.7c0.5,0.1,1,0.1,1.5,0.1c0,0,0-0.1,0.2-0.1c0.3-0.1,0.6-0.1,0.9-0.2h5.3c0.3,0,0.7,0.2,0.9,0.2
		c0.2,0,0.2,0,0.2,0.1h4.6c1,1,2,0.5,3,0.6s1.8,0.1,2.6,0.1c1-0.1,1.9-0.1,2.8-0.2c1.2,0.1,2.2,0.3,3,0.3c9.9,0,18.9,0,28.5,0
		c0.7,0,0.6-0.1,1.6-0.2v-0.3c1-0.2,3.1-0.3,4.6-0.5c3.4,0,7.3,0,11,0c1,0,1.6-0.1,1.3-0.2c-0.3-0.1-0.6-0.1-0.9-0.1h-8
		c-1.2,0.1-2.4,0.1-3.5,0h-7.6c-0.3,0-0.6,0-0.9-0.1c-0.1,0-0.1-0.1,0-0.1c-0.4,0-0.8,0-1.3,0c-2.7,0-5.5,0-8.2,0
		c-0.7,0-1.3-0.1-1.9-0.2c0.3-0.1,0.7-0.1,1-0.1c1.9,0,3.7-0.1,5.6-0.4c1,0,1.9-0.1,2.8-0.1c1-0.2,1.9-0.3,2.9-0.4h16.5
		c0.7,0,1.3,0,2,0c1.2-0.1,2.4,0,3.7,0.1c1.4,0.2,2.8,0.3,4.2,0.4c0.4,0,0.6,0,0.8,0.1V42h0.9v-1h-0.1V17.2h-0.6c-1,0-1.9,0-2.8,0.1
		c-1-0.1-2-0.3-2.9-0.4c-0.8,0.1-1.5,0.1-2.1,0.2c-0.4,0-0.8,0-1.2,0h-12.5c-0.4,0-0.8,0.2-1.2,0.2c-0.7,0-1.4,0-2.1,0h-8.3
		c-1,0-2,0-3,0.1c-0.5-0.1-1-0.4-1.3-0.5c1.5-0.3,3-0.6,4.5-0.7c0.8-0.1,1.8-0.2,2.7-0.3c1.8,0.2,3.4,0.7,5,0.8
		c2.9-0.1,0.6-0.4,3-0.4h22.6v-2.1c-12,0-22,0.1-33.1,0.1c-0.4,0-0.6,0-1,0l-1.8-0.3c-2.2-0.1-4.4,0-6.6,0c-0.8,0-1.7,0-2.5-0.1
		c-0.2,0-0.4,0-0.6-0.1c0.2-0.1,0.4-0.1,0.6-0.1h45v-1c-0.5,0.2-1.1,0.3-1.7,0.3h-42.2c-1.3,0-2.5,0-3.6,0l-2.1-0.3
		c-0.4,0-0.8,0-1.2,0h-13.7c-0.8,0-1.7,0-2.5-0.1l-1.9-0.2c-0.9,0-1.8-0.3-2.8-0.3c-1,0.1-2,0.1-3,0.1H1831c2.6-1,5.2-0.7,7.8-1.1
		c0.3,0,0.8-0.1,1.1-0.1c1.8,0,3.7-0.2,5.3-0.3c0.7-0.1,1.3,0.5,2.1-0.5h16.5c0.8,1,1.8,0.4,2.9,0.6c10.8,0,21.7,0.1,32.7,0.1
		c1,0,1.4-0.1,1-0.2c-0.3-0.1-0.7-0.1-1-0.1c-1.8,0-3.6,0-5.4,0c-0.4,0-0.7-0.1-1.1-0.1l2.4-0.3c-0.2-0.1-0.4-0.1-0.6-0.1
		c-0.8,0-1.7-0.1-2.5-0.1H1873c-0.7,0-1.4-0.1-2.1-0.2c0.3,0,0.7-0.3,1.1-0.4c1.1,0,2.4-0.3,3.8-0.3h43.7V8.2h-11.6
		c-1.2,0.1-2.3-0.2-3.2-1h-71.4c-3.7,0-7.3,0.1-11,0s-7.2,0.1-10.7,0l-2-0.2c-2.7-0.1-5.4-0.2-8.3-0.3c-0.8-0.1-1.8,0.5-3-0.5h-13.6
		c-1.8,1-3.7,0.7-5.7,0.9c-0.9,0-1.8,0.1-2.7,0.1c-2-0.2-3.5-0.4-6-0.6c-3.6,0-7.2,0-10.6,0.1c-0.8,0.1-1.4,0-2.2,0.1
		c-0.9-0.1-1.8,0.5-3-0.5h-8c-1-0.1-2-0.2-3-0.3c-0.9,0.2-1.9,0.3-2.8,0.3h-35.5c-1.1,0.1-2.1,0.2-3.2,0.4c-3,0-5.7,0-8.3-0.1
		c-0.7-0.1-1.4-0.2-2.1-0.3h-5.9c-1.5,0.2-3.1-0.2-4.4-1h-6.3c-0.5,0.1-0.9,0.2-1.3,0.5c-0.2,0.2,0.1,0.4-0.1,0.6
		c-0.5,0.1-0.9,0.2-1.4,0.3l-2.9-0.3h-31.7c-0.4,0-0.8-0.1-1.2-0.1c-2.6-0.5-5.2-0.8-7.8-1h-13.8c-0.4,0-0.9,0-1.3,0.1
		c-0.2,0.1-0.4,0.2-0.7,0.2c-0.8,0.1-1.6,0.1-2.4,0.1c-0.7,0-1.5,0-2.2-0.2c-0.1,0-0.2-0.1-0.2-0.2c-0.7-0.4-1.9-0.5-5.3-0.2
		c-0.4,0.2,0.5,0.3-1.9,0.5c-4.6,0-10,0-15.4,0c-0.6,0-1.2,0-1.8,0c2.5-0.4,2.5-0.4,1.4-0.4h-16.5c-1.6-0.2-3.3-0.4-4.9-0.8
		c-0.3,0-0.5-0.1-0.7-0.2h-5.5c-0.8,1-1.5,0.4-2.1,0.5c-3.9,0.1-8,0.1-11.9,0.2c-0.7,0.1-1.3,0.3-2.1,0.4c-1-0.1-2-0.1-2.9-0.1h-19
		c-1-0.1-2-0.2-2.9-0.5c-1,0.1-2,0.2-2.9,0.3c-1.3,0-2.5,0-3.8-0.2c-1.6-0.3-5.2-0.2-6.6-0.5c-0.4,0-0.8-0.1-1.2-0.1
		c-0.8,0-1.8-0.2-2.5-0.1s-1.3,0.1-2.1,0.1h-11c-0.8,0-1.8-0.2-2.8-0.3c-0.9,0.2-1.9,0.3-2.9,0.3h-10.8c-0.9,0-1.9,0-2.8-0.1
		c-1.2,0.1-2.2,0.4-3.4,0.4c-1.7,0-3.6,0.1-5.3,0l-2-0.2c-0.6,0.1-1.4,0.1-1.9,0.2c-1.3,0.1-2.5,0.2-3.8,0.1c-1-0.2-2-0.3-3-0.4h-19
		c-1,0-1.9-0.1-2.9-0.3l-2.9,0.3c-1.5-0.2-3.1-0.3-4.6-0.3c-1.3,0-2.6,0-3.7,0l-2.5-0.3h-9.1c-0.8,0-1.7,0-2.5,0.1l-1.9,0.2
		c-0.3,0-0.7-0.2-1-0.3c-0.6-0.2-1.2-0.3-1.8-0.5H1371c-1,0.1-2.1,0.2-3.1,0.4l-5.8-0.4H1347c-0.4,0-0.8,0.1-1.2,0.1
		c-0.7-0.1-1.4-0.1-2.1-0.1h-41.3c1,0,1.9,1,3,1h30.1c0.4,0,0.7-0.1,1.1-0.1l1.9-0.1c2.5,0.4,5.1,0.4,7.6,0c0.3,0,0.7,0,1,0
		c0.7,0.1,1.3,0.2,2,0.2h38.2c0.9,0.8,2,1.1,3.2,1h46.3c2.2,0,5.4,0.2,8.5,0.1c0.7-0.1,1.3-0.2,2.4-0.4c2.6,0.1,5.7-0.1,8.7,0
		c0.7,0.1,1.3,0.2,2,0.2h49.3c1,1,2,0.4,3.1,0.6c5.4,0,10.8,0.1,16.3,0.1c0.3,0,0.7,0.1,1,0.2l0.3,0.3c-1.5,0.2-3,0.3-4.5,0.3
		c-0.7-0.1-1.3,0.5-2.1-0.5h-5.2c-1.1-0.1-2.1-0.2-3.2-0.3c-0.9,0.2-1.9,0.3-2.8,0.3h-2.6c-0.9,0-1.9,0-2.8-0.1
		c-1.1,0.1-2.1,0.3-2.1,0.3c-2.3,0.1-4.6,0.1-6.9-0.1c-2.6,0-5.5-0.2-7.2-0.2h-13.2c-0.2,0-0.4,0.1-0.7,0.1h-0.7h-6.8
		c0,0-0.1,0-0.2,0c-0.2,0-0.4,0-0.6,0c0,0-0.2,0-0.3,0h-0.4h-4.1h-0.1c-0.2,0-0.4,0-0.6,0c0,0-0.2,0-0.4,0h-0.3H1445
		c-1,0-2-0.1-3-0.3l-2.1,0.3c-0.4,0-0.8,0.1-1.2,0.1h-20.5c-0.4,0-0.8,0-1.2-0.1l-1.9-0.2c-3.9-0.1-8,0.1-11.7-0.1
		c-0.8-0.1-1.5,0-2.2-0.1c-0.9,0.2-1.9,0.4-2.8,0.5h-5.4c-1-0.1-2-0.3-3-0.5c-31.1,0-31.1-0.1-33.8,0.1c-0.1,0-0.1,0.1-0.2,0.1
		c0,0.2,0.8,0.3,1.9,0.4c2.3,0,4.6,0,6.8,0c0.8,0,1.5,0.1,2.2,0.2c-0.1,0.2,0.6,0.3-1.3,0.5c-3.6,0-7.6,0-11.4,0l-3.7-0.5l1.2-0.1
		c2.1-0.3,2.1-0.5,0.1-0.7c-0.9-0.2-1.8-0.3-2.7-0.4h-5.4c-1,0.1-2,0.2-3,0.3l-2.1-0.2c-3.9-0.1-8,0.1-11.9-0.1l-2.2-0.3
		c-1.5,0-3.3,0-5.1,0c-0.6,0-1.1,0-1.7,0c-0.3,0.2-0.1,0.3,1.3,0.3h2.6c2.2,1,2.2,1,0,1h-5.3c-1,0.1-2.1,0.2-3.1,0.4
		c-6.4,0-12.7,0-19.1,0c-0.3,0-0.6,0-0.9-0.1c0.2-0.1,0.4-0.1,0.6-0.1c0.8,0,1.7,0,2.5-0.1s1.4-0.1,2.2-0.2
		c-0.7-0.1-1.4-0.2-2.2-0.2c-1.9,0-3.8-0.2-5.7-0.6l1.9-0.2c0,0,0.1-0.3,0-0.3c-1.2-0.2-2.5,0.3-3.8-0.7h2.9c1.1,0.1,2.1-0.3,2.9-1
		h0.4c-1.1-0.1-2.1-0.3-3.1-0.5c-0.8,0-1.7,0.1-2.6,0.1c-1,0.2-2,0.3-2.9,0.4h-8.1c-0.9,0-1.7,0-2.6,0.1c-0.2,0-0.4,0-0.5,0
		c0.2,0.1,0.5,0.1,0.6,0.1c0.7,0.2,1.4,0.3,2.1,0.4h-24.5c-1,0-2.1,0-3.1-0.1c-10.8,0-21.3,0.1-31.8,0.1c-0.4,0-0.8,0-1.2,0
		l-2.1-0.2c-3.8,0-7.8,0-11.4,0c-0.6,0.1-1,0.2-1.4,0.3h12.6c0.8,0.8,1.9,1.1,3,1h51.8c1,0,1.9,0.1,2.9,0.2c4.8,0,9.4,0,13.9,0
		c0.3,0,0.6,0,0.9,0.1c-0.2,0.1-0.5,0.1-0.7,0.1c-1.5,0-3.1,0.1-4.6,0.2c-0.1,0.2,0.5,0.3-1.7,0.5h-32.1c-0.4,0-0.7,0-1.1-0.1
		l-1.9-0.2c-0.9,0-1.8-0.1-2.8-0.1c-1,0.2-2,0.3-3,0.3h-19.1c-0.9,0-1.9-0.1-2.8-0.3l-3.2,0.3c-3,0-3.9,0.2-3.8,0.5
		c-0.6,0.2-1.2,0.2-1.7,0.1c-0.3,0-0.6,0-0.9-0.1c-0.1-0.1,0-0.1,0-0.2c-1.3-0.2-2.7-0.3-4-0.4h-49.1c-1-0.1-2-0.3-3-0.5
		c-1.2-0.1-2.4-0.1-3.6,0.1c-0.4,0.2,1.3,0.2,2.3,0.4c-3.2,0.3-6.9,0-10,0.2c-1.6,0.2-3.2,0.3-4.8,0.6c-2.4-0.2-3.8-0.7-5.8-0.7
		h-16.5c-0.4,0-0.8,0.1-1,0.1c-0.1,0-0.2,0-0.2-0.1c-0.7-0.4-1.9-0.4-5.4-0.2c0,0.3,0,0.4-1.2,0.5c-3.8,0-7.7,0-11.4,0
		c-0.8-0.2-1.6-0.3-2.3-0.3h-52.1c-1,0.1-2,0.2-3,0.4c-1.1,0-4.4-0.2-5.8-0.3h-28.8c-0.4,0-0.8,0.1-1.2,0.1c-0.8-0.1-1.6-0.1-2.5,0
		h-19.9c-3.7,0-7.3-0.1-11-0.1s-7.2-0.2-10.6-0.3c-0.8-0.1-1.4,0.5-2.2-0.5h-5.6c-0.8,1-1.8,1-2.9,1h-8c-1-0.1-1.9-0.2-2.9-0.3
		c-1,0.1-2,0.3-2.8,0.3h-5.4c-1-0.1-2-0.2-3-0.4c-2.7,0.4-5.4,0.4-8.1-0.1c-3.3,0-7,0-10.6,0c-0.4,0-0.7-0.1-1.1-0.1
		c-0.6-0.1-1.3-0.4-1.9-0.4c-1,0.1-1.9,0.1-2.9,0.1h-13.4c-1,0-2,0-3-0.1c-1,0-1.9,0.1-2.6,0.1c-1.1,0.1-2.1,0.3-3,0.4
		c-4.4,0-8.5,0-12.6,0c-0.4,0-0.8,0-1.2,0l-2-0.2c-1.7-0.1-3.5,0-5.3,0h-21.9c-0.4,0-0.8-0.2-1.1-0.1c-0.7,0.1-1.3,0.1-2,0.1h-41.2
		c-1.1-0.1-2.1-0.2-3.2-0.4c-2.9,0-5.6-0.1-8.3,0c-0.8,0.1-1.5,0.2-2.3,0.3h-11.8c-0.5,0-0.9,0-1.4,0h-1.1l-1.9-0.2h-2.8
		c-0.9,0.1-1.9,0.3-2.9,0.5c-0.9-0.1-1.9-0.2-2.8-0.2H741c-1.3,0-2.6,0.2-3.9,0.4c-0.7,0.1-1.3,0.1-2,0.1c-1.6-0.2-3.2-0.4-4.8-0.6
		c-0.9,0-1.8-0.1-2.8-0.1c-1,0.2-2,0.3-3,0.3h-8.1c-1,0-1.9-0.2-2.8-0.3c-1.1,0.1-2.1,0.3-2.8,0.3h-38.3c-1.4,0-2.5-0.5-4.6-0.5
		c-1.1,0-2.1,0.5-3.6-0.5h-8.5c-1.2,1-2.8,1-4.2,1h-63.9c-1.9,0.2-3.8,0.2-5.7,0.2c-0.6-0.1-1.3-0.2-1.9-0.3
		c-15.6-0.1-26.5-0.1-28.3,0l-2,0.1c-0.9,0-1.7,0.2-2.8,0.2c-1-0.1-2-0.2-3-0.2h-13.5c-1-0.1-2-0.2-3-0.3c-1,0.2-2,0.3-3,0.3H481
		c-1,0-2,0.1-3.1,0.2c-20.8,0-41.3-0.1-61.8-0.1c-0.4,0-0.8,0-1.2,0l-2.1,0.3c-3.8,0-7.7,0-11.5-0.1c-0.8-0.1-1.6-0.2-2.3-0.3h-5.5
		c-0.7,0-1.7,0.2-2.8,0.3c-0.9-0.2-1.9-0.3-2.8-0.3h-16.3c-1.2,1-2.2,0.4-3.1,0.5c-22.6,0-44.9,0.1-67.3,0.1c-0.4,0-0.8,0.1-1.2,0.2
		c-1.7,0.2-3.3,0.2-5,0.1h-24.7c-1-0.1-1.9-0.2-2.9-0.3c-1,0.2-2,0.3-3,0.3h-4.9c0.8-0.1,1.6-0.3,2.4-0.5c1.1,0,2-0.1,2.9-0.1
		c0.3,0,0.6-0.1,0.9-0.1c0.3-0.1-0.1-0.2-1.1-0.2c-3.5,0-7.1,0-10.6,0c-0.3,0-0.7,0-1,0.1c-0.5,0.1-0.1,0.3,0.8,0.4s1.8,0.4,2.5,0.4
		H251c-1,0.1-2.1,0.2-3.1,0.4h-18c-0.4,0-0.8,0-1.2,0l-1.9-0.2c-0.9,0-1.7,0-2.6,0h-9.6c-1.1-0.1-2.2,0-3.3,0.2
		c-0.3,0.1-0.1,0.2-0.2,0.3c-1.3,0.2-2.6,0.4-3.9,0.4h-93.1c-1,0.1-2,0.2-3,0.4c-4.8,0-9.4,0.1-13.9,0.2c-0.3,0-0.7,0.1-1,0.2
		c0.1,0,0.1,0.1,0,0.1h0.1h16.4c1.4-0.2,2.9-0.3,4.3-0.3c0.3,0,0.6,0.1,0.9,0.1c-0.1,0.1-0.3,0.1-0.4,0.1c-0.3,0.1-0.7,0.1-1,0.1
		h-3.8c-0.7,0.3-1.4,0.4-2.2,0.3H54.3c-0.4,0-0.8,0-1.1-0.1c-0.2,0-0.4,0-0.6-0.1c0.3-0.1,0.6-0.1,0.9-0.1h32.7c1,0,1.9-0.4,1.7-0.6
		s-0.4,0.5-1.3-0.5H62c-0.8,0.8-1.9,1.2-3,1H45.5c0.3,0,0.6,0.1,0.9,0.1c0.4,0.1,0,0.1-0.9,0.2c-0.1,0-0.6-0.1-0.9-0.1
		c-0.3,0,0.1-0.2,0.9-0.2H15.4c-1,0-2-0.1-3-0.3c-0.8,0-1.6,0.1-2.5,0.2H2.3c-0.8,0-1.1,0.1-2.1,0.1v0.9h18c-0.9,0.8-2.2,1.1-3.4,1
		h-5c-0.7,0-1.4,0-2.2,0.1c-0.4,0-0.8-0.1-1.2-0.1H0.3v0.5c1,0,2.5,0,3.7,0l3.3,0.2c0.9,0.1,2.4,0,3.4,0.1c0.2,0,0.5,0.1,0.4,0.1
		c-0.3,0.1-0.5,0.1-0.8,0.1h-10v44.9h9.5c1,0.1,2,0.1,3,0h24.5c1-0.1,2-0.2,3-0.3l2,0.2c0.4,0,0.8,0.1,1.1,0.1H57
		c1.8,0,3.6-0.1,5.3-0.1c1,0,1.3,0.1,1,0.1h15c1.3,0,1.7,0.1,3.2,0.1c1.6-0.2,3.2-0.5,4.8-0.7c2.6,0.1,0.6,0.6,2.9,0.6h6.7
		c-0.1,0.1,0.2,0.2,1.1,0.2c1.7,0,3.5,0,5.3,0h94.5c0.5,0,0.9,0,1.4,0s0.8,0,1.2,0.1c1.6,0.2,3.2,0.2,4.7,0.1
		c0.9-0.2,1.8-0.4,2.8-0.5h-0.1c-0.3,0-0.6-0.1-0.9-0.1c0.6-0.1,1.2-0.2,1.8-0.1c0.3,0,0.9,0.1,0.9,0.1c-0.2,0-0.3,0.1-0.4,0.1h12.4
		c1,0,1.9,1,2.9,1h5.4c1.1-1,2.1-0.4,2.9-0.5c3.9,0,7.5-0.1,11.1-0.2c0.3,0,0.7-0.1,1-0.2c-0.2-0.1-0.5-0.1-0.8-0.2
		c-0.8,0-1.7-0.1-2.5-0.1h-21.9c-0.7,0-1.4-0.1-2.1-0.2l1.3-0.2h-13.3c-6.4,0-12.7,0-19.1,0c-1,0-1.4-0.1-1.1-0.2
		c0.3-0.1,0.7-0.1,1-0.1c12.7,0,25.4,0,38.1,0c0.9,0,1.4,0.1,1.1,0.2c-0.3,0.1-0.6,0.1-0.9,0.1c1.5,0,3.1,0,4.6,0
		c0.6,0,1.2-0.1,1.8-0.2c0.4-0.4,0.4-0.6,4-0.6c1,0.1,2,0.2,3,0.2h30.2c0.7,0,1.4,0,2.1,0.1c0.4,0,0.8,0,1.2,0s0.9-0.1,1.4-0.1
		h187.5c0.5,0,0.9,0,1.4,0h1.2l2,0.2c2.2,0,4.3,0.1,6.4,0c0.7-0.1,1.4-0.2,2-0.2h96.1c1-0.1,1.9,0.3,2.6,1h33.5
		c3.7,0,7.3-0.2,11-0.2s7.2-0.2,10.6-0.1c0.8,0.1,1.4,0.1,2,0.2h1.2h79.4c0.5,0,0.9,0,1.4,0s0.8-0.1,1.1-0.1c0.7,0.1,1.3,0.1,2,0.1
		h2.9c-0.7-0.8-1.8-1.2-2.9-1h-13.6c-1,0-1.9-0.1-2.9-0.2c-0.7,0.1-1.3,0.2-2,0.3c-0.2,0-0.6-0.1-1,0c-3.7-0.4-3.9-0.1-7.7-0.1
		h-57.6c-0.9,0-1.9,0-2.8,0.1c-1-0.1-2-0.3-2.5-0.4c-1.7,0-1.8,0.4-3.5,0.4c-0.7-0.1-1.5-0.1-2.2-0.1h-21.5c-1,0-1.9-0.4-1.8-0.5
		c0.4-0.4,0.9-0.5,1.4-0.4h10.9c1,0.1,1.9,0.2,2.9,0.3c1-0.1,2-0.3,2.8-0.3h27.4c-0.9-1-1.9-0.4-2.8-0.5c-1,0.1-1.9,0.1-2.8,0.2
		c-0.8-0.1-1.4-0.2-2-0.3c-0.4,0-0.7-0.2-1.1-0.2s-0.9-0.2-1.4-0.2H568c-0.5,0-0.9,0.1-1.4,0.1s-0.8,0-1.2,0
		c-0.4-0.1-0.8-0.1-1.2-0.1c18.4,0,45,0,55.7-0.1c-1.4-0.2-2.7-0.3-4.1-0.3c-1.3,0-2.1-0.2-3.5-0.2H607c-0.8,0-1.8,0.2-2.8,0.3
		c-0.9-0.2-1.9-0.3-2.8-0.3h-13.6c-1,0-2,0.1-2.9,0.3h-2.6c-1.1-0.1-2.1-0.3-2.8-0.3h-16.3c-1,0-2.1,0.1-3.1,0.3
		c-3.9,0-7.5-0.1-11,0c-0.3,0-0.6,0-0.9,0.1c0.3,0.1,0.6,0.1,0.9,0.1h-13.6c1,0,1.4-0.5,1.1-0.5c-0.3-0.2-0.6-0.3-0.9-0.5h-5.3
		c-1,0-1.4,0.5-1,0.5c0.3,0.2,0.6,0.4,0.9,0.5h-13.7c1.2,0,1.1,0.4-0.2,0.5c-0.8,0-1.8,0.1-2.5,0.1c-1.1,0.1-2.1,0.4-3,0.4h-10.8
		c-1.9,0-1.9-0.4,0-0.7c0.9,0.1,1.9,0.1,2.8,0.2c1-0.1,2-0.5,2.9-0.5h-22.1c-2-1-3.3-0.7-5.9-0.8c-1.6,0.2-3.2,0.3-5.1,0.5
		c-11.6,0-23.5,0-35.3-0.1c-0.5,0-1.1-0.1-1.6-0.3c-0.3-0.2,0-0.3,1.3-0.5c0.8,0,1.8,0,2.6,0c1.1,0,1.4-0.2,0.9-0.2
		s-1.4-0.2-1.9-0.2s-0.4-0.4,0.4-0.5s1.6-0.1,2.5-0.1c1.6,0,2.2,0.1,2.3,0.3s0,0.2,0.9,0.3c0.6,0,1.3,0,1.9-0.1c0.3,0,0.6-0.1,1-0.1
		l6.2-0.1c0.9-0.1,1.5-0.3,2.2-0.4c1,0.1,1.9,0.2,2.9,0.2h16.3c1,0,2.1,0.1,3.1,0.3l2.7-0.1c1-0.2,2-0.2,3-0.3l2,0.2
		c1.2,0,2.5,0,3.8,0c0.8,0,1.6,0,2.5-0.1l1.9-0.2c0.9,0,1.8-0.1,2.8-0.1c1,0.1,1.9,0.2,2.9,0.2h16.5c1.9,0.2,3.8,0.3,5.7,0.2
		l1.9-0.3c0.4,0,0.8-0.1,1.2-0.1h12.3c0.4,0,0.8,0,1.2,0.1l2.1,0.3l2.9-0.3c0.8,0,1.7-0.1,2.6-0.1c1,0.1,1.9,0.2,2.9,0.2h10.9
		c1,0,2.1,0.1,3.1,0.3H617c0.4,0,0.8,0,1.2,0c2.2,0.4,4.4,0.4,6.6,0.1c1.3-0.1,2.5-0.2,3.8-0.2l2.9,0.3c0.9-0.1,1.9,0,2.8-0.1
		c1,0.1,2-0.5,3,0.5h15.2h0.4c0.4,0,0.9,0,1.3,0h51.4c1.9,0.1,3.8,0.1,5.8,0.1c1.6-0.2,3.2-0.5,4.9-0.7c2.6,0.1,0.6,0.6,3,0.6h16.3
		h19.7v-0.2c1-0.1,1.8-0.1,2.6-0.2c1.3,0,2.9,0,4.2,0c0.8,0,1.3,0.1,2,0.2l-1.6,0.2h16.9c-1.4-1-2.7-0.5-3.9-0.7
		c2.4-0.2,5.5-0.3,23.6-0.2l2.1,0.3c1-0.2,2-0.3,3-0.3h46.4c1,0.1,1.9,0.2,2.8,0.4c1-0.1,2-0.2,2.9-0.2c0.8,0.1,1.5,0.2,2.6,0.3
		c2.5-0.1,5.6,0,8.6-0.2c0.7-0.2,1.4-0.3,2.1-0.4h35.3c1,0,2.1-0.1,3.1-0.2c0.8,0,1.7-0.1,2.6-0.1c1,0.2,2,0.3,3,0.3h2.5
		c1,0.1,1.9,0.2,2.8,0.4c1.1-0.1,2.1-0.2,3-0.3c14.4,0,28.5,0,42.7,0c1.3,0,2.7,0,4,0c0.3,0,0.6,0,0.9-0.1c-0.3-0.1-0.5-0.1-0.8-0.1
		c-5.4-0.1-10.8,0-16.2-0.1c-0.7,0-1.3-0.1-1.9-0.2l4-0.5c3.5,0,7.2,0,10.8,0c1,0,1.4-0.1,1.1-0.2c-0.3-0.1-0.6-0.1-1-0.1
		c-2.1-0.1-4.5,0.1-6.5-0.1c1.4-0.3,2.8-0.5,4.3-0.5c3.6,0,7.3,0,10.7,0c0.7-0.1,1.3-0.2,2-0.3c2.2-0.2,4.3,0.2,4.5,0.5
		c0,0.1,0.2-0.4,1.2,0.4h11.2c0.8-0.8,1.7-0.1,2.7-0.2c0.9,0.1,1.9-0.7,2.8,0.3h1.7l-3,0.4c2.5,0.3,2.5,0.3,0.2,0.6
		c1.4,0.3,2.8,0.5,4.2,0.5l2-0.2c1.5,0.1,3,0.2,4.5,0.5c0.1,0.5,0.1,0.5,1.3,0.8c4.5,0,9,0,13.6,0c1,0,1.4,0.1,1,0.2
		c-0.3,0.1-0.7,0.1-1,0.1h-8.2c-0.3,0-0.7,0.3-1.4,0.4c1.8,0.1,2.7-0.3,4.3,0.7h5.1c1.8-1,3.2-0.6,4.4-0.7c-0.5-0.3,0.9-0.7-1.2-0.9
		c-0.9,0-1.8-0.1-2.6-0.1h-6.8c-1.8,0-3.3-0.1-2.9-0.2c0.8-0.1,1.5-0.2,2.3-0.1h20.3c-0.6-0.2-1.1-0.4-1.7-0.6l-3.1,0.3h-21.9
		c-0.4,0-0.8-0.1-1.1-0.1l2.5-0.4c-1.6-0.2-2.5-0.4-4.9-0.5h-4.5c0.8-0.7,1.9-1,3-0.9h18.8c-1.3-1-2.5-0.5-3.8-0.7
		c0.4-0.1,0.9-0.2,1.3-0.3c3.5,0,7.1-0.1,10.6-0.1c1,0,1.3,0.1,1,0.2c-0.3,0.1-0.6,0.1-0.9,0.1c-0.9,0-1.8,0.2-2.9,0.2
		c-0.8,0.1-1.6-0.4-2.3,0.6h13.3c1.3,0,2.3-0.3,3.5-0.3s2.4,0.1,3.5,0.3h6.8c2.3,0,0.3,0.9,2.8,1c0.9-0.1,1.8-0.1,2.8,0h8.1
		c1.1,0,2.3,0,3.4,0.1c2.7-0.1,5.4-0.1,8-0.2c0.7-0.1,1.3-0.2,2.1-0.3c0.9,0.1,1.8,0.2,3.1,0.3h18.7c0.5,0,0.9-0.1,1.4-0.2
		c-0.6-0.1-2.5-0.2-1.9-0.4c1.3-0.1,2.6-0.2,3.9-0.1l1.6,0.6l4.8,0.6c-2.5,0.2-2.5,0.2-10.1,0.1c-0.7-0.1-1.3,0.1-2.1,0
		c-0.9,0.1-1.9-0.5-2.9,0.5h-2.6c-0.9-1-1.9-0.2-2.8-0.3c-1,0.1-2-0.7-3,0.3h-16.3c-1.1,0-2.2,0.1-3.2,0.2h33l5.7,0.7
		c2.1-0.2,3.6-0.5,6.2-0.7c3.4,0.1,7-0.1,10.6,0.1c3.5,0.4,3.8,0.3,7.7-0.2h-5.1c-0.9,0-1.9,0-2.8,0.1c-1-0.1-2-0.3-2.9-0.4
		c-0.9-0.1-1.9-0.1-2.7-0.1c-0.3,0-0.6-0.1-0.9-0.1c0.1-0.1,0.3-0.1,0.5-0.1c0.8-0.1,1.6-0.1,2.4-0.1h18.8c1.9-0.1,3,0.1,2.6,0.4
		c-0.4,0.2-0.9,0.3-1.4,0.3h-8.5c1,0.1,1.9,0.2,2.9,0.2h0.8h4.5c2.4,0,0.5,0.7,3,0.8c0.9,0,1.8,0,2.7,0c2-0.2,3.5-0.5,6-0.6
		c2.4-0.1,4.8,0,7.2,0.3c3.1,0.1,6.1,0.1,9.2,0l1.3-0.2c-0.5,0-1,0-1.5,0c-1,0-1.4-0.1-1.2-0.2c0.3-0.1,0.6-0.1,0.9-0.1
		c0.9,0,1.8,0,2.7,0c1-0.1,2-0.2,2.9-0.3h21.7c0.7,0,1.4,0.1,2,0.2h1.7c0.7-0.1,1.4-0.2,1.9-0.2h5.5c2.7,0,2.7,0.3,5.4-0.1
		c1.2,0.2,1.8,0.3,2.6,0.3c1-0.1,1.9-0.2,2.9-0.3h5.4c0.1,0,0.2,0,0.3,0c-0.8-0.7-1.8-1-2.9-0.9h30.3c0.7,0,1.4,0.1,2.1,0.2
		c3.1,0.2,7.3-0.2,10.1,0.2c-0.7,0.1-1.4,0.1-2.2,0.2c-2.3,0-4.5,0-7,0c-0.7,0.1-1.6,0.3-2.6,0.4v0.3c1.6,0.2,4.3,0.1,6.4,0.1l1-0.1
		c1.4-0.1,2.9,0,4.4,0c0.4,0,0.8-0.1,1.2-0.1h2.6c0.6-0.1,1.1,0,1.6,0.2c0.1,0,0.1,0,0.1,0s0,0-0.1,0c0.5,0.2,0.9,0.4,1.2,0.8h5.3
		c1.1-1,2.1-0.5,2.9-0.5c2-0.1,4,0,5.9,0.2c13.2,0,26.4,0,39.7,0h1.2c0.7,0.1,1.3,0.3,2.2,0.5c0.9-0.1,1.8-0.1,3-0.1h21.8
		c1-0.1,1.9-0.2,2.9-0.4l2.8,0.3c2,0,3.9-0.1,5.9-0.3h9.8c-0.3-0.1-0.4-0.1-0.1-0.1c0.4,0,0.6-0.1,0.9-0.1c0.9,0,1.2,0.1,0.9,0.2
		h10.4c-0.6,0-1.1-0.1-1.7-0.1c1.6-0.2,3.2-0.2,4.8-0.2c1.3,0,2.7,0.1,4,0.3c-1.2,0.1-2.4,0.1-3.6,0.1l1,0.1c0.4,0,0.8,0,1.2,0h34.2
		c0.4,0,0.8,0,1.2-0.1l2.3-0.3h5.2h9.4c0.8,0,1.7,0,2.5-0.1l1.9-0.2c0.9,0,1.8,0.2,2.8,0.2s1.9-0.5,2.9,0.5h2.6c1-1,2-0.4,2.9-0.5
		s1.8-0.1,2.6-0.1c1.1,0.1,2.1,0.2,3.1,0.3c1.8,0,3.6-0.1,5.4-0.1c0.3,0,0.6-0.1,0.9-0.1c-1.5-0.2-3-0.2-4.5-0.2
		c-1.1-0.1-1.1-0.2,0.5-0.2h6c1.4,0.1,2.8,0.3,4.1,0.6h11.8c0.3,0,0.7,0,1-0.1s-0.1-0.2-1.1-0.2c-1.2,0-2.5,0-3.7-0.2l2.5-0.3
		c0-0.2,0.6-0.3-1-0.5c-3.3-0.1-6.9-0.1-10.5-0.2c-1.8,0-3.6,0-5.3-0.1c-0.1,0-0.2,0-0.3,0c-1.8,0-3.6,0-5.3,0h-5.5
		c0.6-0.4,1.7-0.7-0.7-1c-1.3,0-2.7,0-4,0c0,0,0,0-0.1,0c-0.2,0.1-0.5,0.2-0.8,0.2s-0.6,0-0.8,0c-1-0.1-1.1-0.1-0.5-0.2
		c0.7-0.1,1.3-0.1,2-0.1c-0.1-0.2,0.2-0.3,1.1-0.3c2.1-0.1,4.3,0,6.3,0.1c0.7,0.2,1.4,0.3,2.2,0.3h11c0.8,0,1.8-0.3,2.9-0.4
		c2.6,0,5.3,0,8,0c0.3,0,0.7,0,1-0.1c0.4-0.1,0-0.2-1-0.2c-8.2,0-16.4,0-24.5,0c-2-0.4-2-0.3,0.2-0.6c1,0.1,2,0.3,2.6,0.3h5.6
		c3.8-1,4-1,7.9,0h49.3c0.9-0.1,1.9-0.2,2.8-0.3c1,0.2,2.1,0.3,3.1,0.3h10.5c1.1,0.1,2.1,0.2,3.1,0.4c2.6,0,4.8,0,7.1,0.1
		c0.7,0,1.4,0.1,2.1,0.2c-0.3,0.1-0.7,0.1-1,0.1c-2.3-0.1-4.6,0.1-6.8,0.6c3.3,0.4,3.2,0.4,0.8,0.8c-3.6,0-3.6,0-3.9-0.5
		c-0.8-0.1-1.9-0.2-2.6-0.3c-1.4-0.3-4.4-0.1-5.7-0.3c-0.7-0.1-1.5-0.2-2.2-0.2c-1.5,0-3-0.1-4.5-0.3c-1,0.2-1.9,0.3-2.9,0.4h-2.7
		c-1-0.1-2-0.2-2.9-0.4c-7.8,0-15.6,0-23.4,0c-0.8,0-1.5,0-2.3,0.1c-0.4,0.1,1.1,0.2,3,0.2c0.9,0,1.9,0,2.7,0s1.5,0.1,2.2,0.2
		c0.3,0.2-0.5,0.3,1.1,0.5c3,0.1,6.2,0,9.3,0c0.8,0,1.7,0,2.5,0.1c0.2,0,0.5,0,0.7,0.1c-0.3,0.1-0.6,0.1-0.9,0.1l-13.9,0.1l-2.8,0.3
		h-2.6c-2.2,0.3-2.2,0.4-0.2,0.7c1.5,0.2,1.3,0.3-1.7,0.3c-0.4,0-0.9,0-1.3,0c-0.4-0.1-0.9,0-1.2,0.3c-0.1,0.1,0,0.2,0.8,0.3
		c0.3,0,0.6,0,0.9,0c1-0.2,2.1-0.3,3.2-0.3c1.2,0,2.3,0,3.5-0.2c0-0.2,0-0.4,0-0.6c0.3-0.1,0.6-0.1,0.9-0.1h1.3c0.9,0,1.8,0,2.7,0
		c0.8,0,1.6,0,2.4,0.1c1,0.1,0.7,0.3,0.4,0.5l-4.9,0.6c0.5,0.1,0.9,0.2,1.4,0.2c1.8,0,3.6,0,5,0l3.1,0.3l2.2-0.3
		c2.6-0.1,5.4,0,8-0.1c0.7,0,1.2-0.1,1.8-0.2c-0.7-0.1-1.3-0.3-1.9-0.4c-0.6-0.1-0.4-0.4,0.7-0.4h27.4c1,0,2,0.2,3,0.3
		s2,0.2,2.8,0.3h16.7c1.8,0,3.5,0,5.3,0c0.3,0,0.6,0,0.9,0.1c-0.3,0.1-0.6,0.1-0.9,0.1c-1.7,0.1-3.5,0-5.3,0H1552
		c-0.6,0.1-1.2,0.2-1.7,0.4c1.3,0.2,2.6-0.3,3.9,0.7h40.4c-0.4-0.1,0-0.2,1-0.2h8.1c0.3,0,0.6,0,0.9,0.1c0.1,0,0.1,0.1,0.1,0.1h6
		c1.5-0.2,3-0.3,3.9-0.5h3.1c1.7,0.3,1.2,0.5,0.7,0.8c13.9,0,14,0,16.7-0.2l-4.4-0.5l-2.6,0.3c-0.9-0.1-1.8-0.2-2.8-0.3
		s-1.3-0.2-0.8-0.2c0.8-0.1,1.6-0.1,2.4-0.1c2.3,0,4.5,0,6.5,0c1.2-0.1,2.2-0.3,2.9-0.3h44.1c-0.8-0.8-1.9-1.1-3-1h2.5
		c0.8,0,1.8-0.2,2.9-0.3c0.5,0,1.3,0,1.7,0.1c1.2,0.1,2.4,0.2,3.6,0.2c0.5,0.1,1,0.2,1.6,0.4c-1.4,0-2.6-0.4-3.9,0.6h-2.8
		c0.8,0,1.3,0.2,2.1,0.2c1.9,0,3.8,0.1,5.7,0.3c0.4,0,0.8,0,1.2,0c0.8,0,1.8-0.2,2.4-0.2s1.3-0.4,2-0.4h35.5c1,0,2-0.1,3-0.2
		c0.3,0,0.9,0.1,1.3,0.1s0.1-0.2-1-0.3c-4.4-0.1-8.9,0-13.4,0c-0.7,0-1.4-0.1-2.1-0.2c1.2-0.1,2.3-0.2,3.5-0.2s2.1-0.2,3.3-0.3
		c0.8,0.1,1.7,0.2,2.7,0.3c0.9-0.1,1.9-0.2,2.8-0.3h23.7c0.7-0.1,1.5-0.2,2.2-0.3l0.1-0.1h0.3c0.7-0.1,1.5-0.3,2.3-0.4
		c-0.3-0.1-0.7-0.1-1-0.2l-10.8-0.1c-1,0-1.5-0.1-1.3-0.2c0.3-0.1,0.6-0.1,0.9-0.1h30l2.9-0.3c1.5,0.2,3,0.3,4.4,0.3
		c1.9,0,2.3,0.3,4.2,0.3l2-0.2c2,0,2.9,0.7,5.8,0.5c1-0.1,1.9-0.1,2.9-0.1h27.5c1.7,0.1,3.4,0,5.1-0.2c1.2,0,2.5-0.1,3.8-0.1
		c5.5,0,11,0,16.4-0.1c0.8,0,1.7-0.1,2.5-0.1l1.9-0.3c3.5,0,3.5,0,4.3,0.4h10.9c0.8,0,1.7,0,2.5-0.1l2-0.3l1.3,0.1
		c0.2,0,0.5-0.1,0.7-0.1h21.3c0.5,0,1.1,0,1.6-0.1h16.8V48.2z M1909.9,24.2c0.6,0,1.2,0,1.8,0.1c0.1,0-0.6,0.1-0.9,0.1
		c-0.6,0-1.2,0-1.8-0.1C1909.3,24.2,1909.7,24.2,1909.9,24.2z M1908.8,39.8c1-0.2,2.3-0.2,3.5-0.2c1,0,2.1-0.1,3.1-0.3
		c0.4-0.1,0.9,0,1.3,0.1c-0.1,0.1-0.3,0.1-0.4,0.2v0.5c-2,0.4-4.4,0-6,0.2C1908.1,40.1,1909,40,1908.8,39.8z M1889.8,21.2
		c-1.8,0.2-3.7,0.2-5.5,0C1886.2,21,1887.9,21,1889.8,21.2z M1880.7,32.9c0.3,0,0.6,0.1,0.9,0.1c-0.6,0.1-1.2,0.2-1.8,0.1
		c-0.3,0-0.9-0.1-0.9-0.1C1879.4,32.9,1880.1,32.9,1880.7,32.9z M1873.8,38.6c0.7-0.1,1.5-0.2,2.3-0.1c0.4,0,0.9,0,1.4,0
		c0.9-0.2,1.9-0.3,2.9-0.4h5.4c1.3,0.1,2.7,0.2,4,0.5c-1.3,0.3-2.7,0.4-4,0.5h-5.1c-1.9,0.1-2.9-0.3-5.6-0.3
		C1874.2,38.8,1873.5,38.7,1873.8,38.6z M1871.1,42.1c0.3-0.1,0.6-0.1,0.9-0.1c0.9,0,1.3,0.1,0.9,0.2c-0.3,0-0.8,0.1-0.9,0.1
		C1871,42.2,1870.7,42.1,1871.1,42.1z M1869.3,38.9c-0.1,0-0.6-0.1-0.9-0.1s0-0.2,0.9-0.2c0.3,0,0.6,0.1,0.9,0.1
		C1870.6,38.8,1870.3,38.8,1869.3,38.9z M1868.3,21.2c0.2,0,0.6-0.1,0.9-0.1c0.9,0.1,1.3,0.1,0.9,0.2c-0.3,0.1-0.6,0.1-0.9,0.1
		C1868.3,21.3,1868.1,21.3,1868.3,21.2z M1865.6,42.1c0.3-0.1,0.6-0.1,0.9-0.1c0.9,0,1.3,0.1,0.9,0.2c-0.3,0-0.8,0.1-0.9,0.1
		C1865.5,42.2,1865.2,42.1,1865.6,42.1z M17.8,10.9c-0.3,0-0.6-0.1-0.9-0.1c0.6-0.1,1.2-0.2,1.8-0.1c0.3,0,0.9,0.1,0.9,0.1
		C19,10.9,18.4,10.9,17.8,10.9z M41,9.2L42.8,9c1.9,0,4.1-0.1,6.1,0c0.7,0.1,1.4,0.2,2.1,0.2H41z M70.1,9.3c-2.7,0-5.4-0.2-8-0.2
		C61,9.2,60,9.2,58.9,9.2h-2.4c0.8,0,1.8-0.2,2.9-0.3h10.8c0.3,0,0.7,0,1,0.1C71.4,9.2,71.1,9.2,70.1,9.3z M77.1,9.3
		c-0.4,0-0.9,0-1.3,0c-0.3,0-0.7,0-1-0.1s0-0.2,1-0.2c0.3,0,0.9,0,1.3,0c0.8-0.1,1.5,0,2.3,0.1C79.8,9.2,78.8,9.3,77.1,9.3z
		 M101.1,56c-0.3,0-0.7,0.1-1,0.1h-3.4c1.3-0.3,2.6-0.4,3.9-0.3c0.3,0,0.6,0,0.9,0.1C101.3,56,101.2,56,101.1,56z M111.6,56.1
		c-1.5,0-3.5,0.1-3.9-0.2l3.8-0.5C113.3,55.7,113.1,55.9,111.6,56.1z M148.3,55.5c-0.5,0.1-1,0.2-1.4,0.2c-9,0-18.1,0-27.1,0
		c-1,0-1.4-0.1-1.1-0.2s0.6-0.1,0.9-0.1c5.4,0,10.8,0,16.3,0c1-0.2,1.9-0.3,2.9-0.3h8.1C148.1,55.2,148.6,55.4,148.3,55.5z
		 M161.9,55.3c1.8-0.2,3.7-0.2,5.5,0C165.6,55.5,163.8,55.5,161.9,55.3z M265.5,52.6c-0.3,0-0.8,0.1-0.9,0.1c-1-0.1-1.3-0.2-0.9-0.2
		c0.3-0.1,0.6-0.1,0.9-0.1C265.5,52.5,265.9,52.5,265.5,52.6z M360.4,52.7c-5.4,0-10.8,0-16.2,0c-0.3,0-0.6,0-0.9-0.1
		s0.1-0.2,1.1-0.2c3.1,0,6.3,0,9.5,0h6.8c0.3,0,0.6,0,0.9,0.1C361.8,52.6,361.4,52.7,360.4,52.7z M559.1,52.7
		c-0.4,0-0.9,0.1-1.3,0.2c-0.9,0-1.8,0.1-2.8,0.1c-0.9-0.2-1.8-0.2-2.8-0.3C554.2,52.7,556.5,52.7,559.1,52.7z M540.3,53.9
		c0.3-0.1,0.6-0.1,0.9-0.1c0.9,0,1.8,0,2.6,0l2.9-0.3l2.9,0.3h10.8c0.3,0,0.6,0,0.9,0.1c0.3,0.1-0.1,0.2-1.1,0.2
		c-6.3,0-12.5,0-18.8,0C540.5,54.1,540,54,540.3,53.9z M521.5,53.5c0.6,0,1.2,0,1.8,0.1c0.1,0-0.6,0.1-0.9,0.1c-0.6,0-1.2,0-1.8-0.1
		C521,53.5,521.3,53.5,521.5,53.5z M478.4,53.4h8.1c0.3,0,0.6,0,0.9,0.1s-0.1,0.2-1.1,0.2h-8c-0.3,0-0.6,0-0.9-0.1
		C477,53.5,477.5,53.5,478.4,53.4z M376.5,51.4c0.6,0,1.2,0,1.8,0.1c0.1,0-0.6,0.1-0.9,0.1c-0.6,0-1.2,0-1.8-0.1
		C376,51.5,376.1,51.5,376.5,51.4z M371.5,51.4c0.1,0,0.6,0.1,0.9,0.1s0,0.2-0.9,0.2c-0.3,0-0.6-0.1-0.9-0.1
		C370.1,51.5,370.5,51.5,371.5,51.4z M382.4,53.2h-8c-0.6-0.1-1.3-0.2-1.9-0.4c-0.7-0.1-2.4-0.3-1.8-0.5c0.8-0.1,1.5-0.2,2.3-0.2
		c3.1,0,6.3,0.2,9.4,0.2C384.4,52.6,384.4,52.2,382.4,53.2z M403.1,51.9l2.3,0.3c-1.5,0.4-4.7,0-6.9,0.2l-1.9,0.2
		c-0.3,0-0.8,0-0.9,0c-1.5-0.2-3-0.3-4.5-0.3c-0.6,0-1.2-0.1-1.7-0.2c0.7-0.1,1.4-0.2,2.1-0.2c0.8,0,1.6,0,2.5-0.1
		c0.8-0.1,0.7-0.2-0.8-0.3s-3.3,0-5,0c-1,0-1.5-0.2-1.3-0.3c0.3-0.1,0.7-0.2,1-0.2h16.2C406.5,51.2,406.5,51.5,403.1,51.9z
		 M410.3,51.5v-0.3c1-0.1,1.8-0.2,2.5-0.2c2.2-0.1,4.4,0,6.6,0.2c-1,0.1-2.3,0.2-3.3,0.3C414.2,51.7,412.2,51.7,410.3,51.5z
		 M417.4,52.4c-1.1,0-2.3,0-3.4-0.2c1.6-0.2,3.2-0.2,4.8-0.2c1.1,0,2.3,0,3.4,0.2C420.5,52.4,419,52.5,417.4,52.4z M714.7,50.9
		c-0.3,0-0.8,0.1-0.9,0.1c-1-0.1-1.3-0.2-0.9-0.2c0.3-0.1,0.6-0.1,0.9-0.1C714.7,50.8,715,50.9,714.7,50.9z M745.7,51.1
		c0.3,0,0.6,0,0.9,0h0.1C745.8,51.2,745.3,51.2,745.7,51.1z M947,49.6c-3,0.1-6,0.1-9,0c-0.4,0-0.6-0.1-1.8-0.2
		c5.2,0,8.7-0.2,11.9,0.1C947.7,49.6,947.3,49.6,947,49.6z M1005,47.9c-0.3,0.1-0.6,0.1-0.9,0.1c-1.1,0-1.3-0.1-0.9-0.2
		c0.2,0,0.6-0.1,0.9-0.1C1005,47.8,1005.4,47.9,1005,47.9z M1118.6,48c-0.3,0-0.7-0.1-0.9-0.1c0.6-0.1,1.2-0.2,1.8-0.1
		c0.3,0,0.6,0.1,0.9,0.1C1119.8,48,1119.2,48.1,1118.6,48z M1136.1,49.3c-1.5,0.2-3,0.2-4.5,0c0.1-0.1,0.1-0.1,0.2-0.1
		c0.3-0.1,0.6-0.1,0.9-0.1c0.9,0,1.8,0,2.6,0C1135.6,49.1,1135.9,49.2,1136.1,49.3C1136.2,49.2,1136.3,49.3,1136.1,49.3z
		 M1144.6,48.3c-0.3,0.1-0.6,0.1-0.9,0.1c-1-0.1-1.3-0.2-0.9-0.2s0.6-0.1,0.9-0.1C1144.6,48.1,1144.8,48.2,1144.6,48.3z
		 M1160.9,50.6c-0.3,0.1-0.6,0.1-0.9,0.1h-8.1c-1-0.1-1.4-0.1-1.1-0.2s0.6-0.1,0.9-0.1h8.1C1160.8,50.4,1161.3,50.5,1160.9,50.6z
		 M1150.4,49.2c1.1-0.1,2.2-0.2,3.3-0.2c1.6-0.1,3.2,0,4.7,0.2c-1.4,0.2-2.9,0.4-4.4,0.5L1150.4,49.2z M1172,48.2
		c-0.3,0.1-0.6,0.1-0.9,0.1h-10.9c-3.6,0-7.2,0-10.8,0c-1,0-1.4-0.1-1.1-0.2c0.3-0.1,0.6-0.1,0.9-0.1c7.2,0,14.5,0,21.7,0
		C1171.9,48,1172.3,48.1,1172,48.2z M1174.3,48.1c20.6-0.1,22.5-0.1,25.5,0.1c-0.3,0.1-0.7,0.1-1,0.1c-7.6,0.1-15.1,0.1-22.7,0
		C1175.8,48.3,1175.5,48.2,1174.3,48.1z M1190.1,50.7c-3.6,0-7.2,0-10.8,0c-0.3,0-0.6,0-0.9-0.1s0-0.2,1-0.2c2.2,0,4.5,0,6.7,0
		c1.3,0,2.7,0,4,0c0.3,0,0.6,0,0.9,0.1C1191.4,50.6,1191.1,50.7,1190.1,50.7z M1191.2,49.9c-0.3,0.1-0.6,0.1-0.9,0.1
		c-3.6,0-7.2-0.1-11.3-0.1c-1.5-0.3-1.2-0.8,0.2-0.8h5.5c0.9,0,1.8,0.3,2.9,0.4c0.8,0,1.7,0,2.5,0.1
		C1191.1,49.7,1191.4,49.8,1191.2,49.9z M1196.6,50.6c-0.3,0.1-0.6,0.1-0.9,0.1c-1-0.1-1.3-0.2-0.9-0.2s0.6-0.1,0.9-0.1
		C1196.6,50.5,1196.9,50.5,1196.6,50.6z M1204.8,50.6c-0.3,0.1-0.6,0.1-0.9,0.1c-1-0.1-1.3-0.2-0.9-0.2s0.6-0.1,0.9-0.1
		C1204.8,50.5,1205.2,50.5,1204.8,50.6z M1209.7,50.3c-1.4,0.1-1.8-0.2-3.3-0.3c-3-0.1-6.6,0-10.1,0c-0.7,0-1.3-0.1-2-0.2
		c2.6-0.1,3.5-0.1,14.3-0.1c0.7,0,1.4,0.1,2.1,0.2C1210.5,50.1,1211.3,50.3,1209.7,50.3z M1214.8,50.2c-2,0-2-0.2,0.1-0.5
		c1,0.2,2,0.4,3,0.5H1214.8z M1234.9,48.9c-0.3,0.1-0.6,0.1-0.9,0.1h-8.1c-1,0-1.3-0.1-1.1-0.2c0.3-0.1,0.6-0.1,0.9-0.1h8.1
		C1234.8,48.8,1235.2,48.8,1234.9,48.9z M1265.4,50.5c1.6-0.2,3.2-0.2,4.8-0.2c1.3,0,2.7,0.1,4,0.3
		C1271.3,50.8,1268.4,50.8,1265.4,50.5z M1283.2,8.6c-4.5,0-9,0-13.6,0h-10.9c-0.3,0-0.6,0-0.9-0.1s0.1-0.2,1.1-0.2
		c8.1,0,16.3,0,24.4,0c0.3,0,0.7,0,1,0.1C1284.6,8.4,1284.2,8.6,1283.2,8.6z M1295.2,50.9c-1.5,0.2-3,0.2-4.5,0
		c-0.1,0-0.1-0.1,0.1-0.1c0.3-0.1,0.6-0.1,0.9-0.1c0.9,0,1.8,0,2.6,0C1294.6,50.7,1294.8,50.8,1295.2,50.9
		C1295.2,50.8,1295.3,50.9,1295.2,50.9z M1335.3,6.2c-0.3,0-0.6-0.1-0.9-0.1c-0.4-0.1,0-0.2,0.9-0.2c0.1,0,0.6,0.1,0.9,0.1
		S1336.3,6.2,1335.3,6.2z M1351.8,12.6c0.1,0,0.6,0.1,0.9,0.1s0,0.1-0.9,0.2c-0.3,0-0.6-0.1-0.9-0.1
		C1350.4,12.8,1350.8,12.7,1351.8,12.6z M1352.2,50.3c-0.6,0-1.2,0-1.8-0.1c0.9-0.2,1.8-0.2,2.6,0
		C1353.2,50.2,1352.6,50.3,1352.2,50.3z M1465.8,8.6c0.3-0.2,0.6-0.3,0.9-0.4h5.3c0.2,0.3,0.6,0.5,0.9,0.6c-0.2,0.2-0.5,0.3-0.8,0.4
		h-5.3C1465.9,9.2,1465.6,8.7,1465.8,8.6z M1409.3,49c0.1,0,0.6,0.1,0.9,0.1s0,0.2-0.9,0.2c-0.3,0-0.6-0.1-0.9-0.1
		C1407.9,49.2,1408.3,49.1,1409.3,49z M1387.3,49.4c0.1,0,0.6,0.1,0.9,0.1s0,0.2-0.9,0.2c-0.3,0-0.6-0.1-0.9-0.1
		C1386.1,49.5,1386.4,49.4,1387.3,49.4z M1363.2,50.6c-0.6,0-1.2,0-1.8-0.1c0.9-0.2,1.8-0.2,2.6,0
		C1364.1,50.6,1363.4,50.6,1363.2,50.6z M1365.3,13h-8c-0.3,0-0.6,0-0.9-0.1s0.1-0.1,1.1-0.2h8.1c0.3,0,0.6,0,0.9,0.1
		C1366.7,12.8,1366.3,12.9,1365.3,13z M1372.3,11.2c-1.8,0.2-3.7,0.2-5.5,0C1368.6,10.9,1370.4,10.9,1372.3,11.2z M1422.3,51.3
		c-3.6,0-7.2,0.2-10.7,0.1c-0.8-0.1-1.6-0.2-2.4-0.2h-10.4c-3.2,0-6.4,0-9.6-0.1c-3.6,0-7.2,0-10.6-0.1l-2.3-0.3c-2.4,0-5.1,0-7.8,0
		c-1,0-1.6-0.2-1.4-0.3c0.3-0.1,0.7-0.2,1-0.2h10.8c1-0.1,2-0.2,3-0.3c1,0.2,2,0.3,3,0.3h32.5c1,0.1,2,0.4,2.9,0.7
		c3.8-0.4,4-0.7,7.9,0.3h5C1429.7,51.2,1425.9,51.3,1422.3,51.3z M1442.7,11.5c-0.8,0-1.6,0.1-2.5,0.1h-9.1c-1,0.1-1.5,0.2-2.3,0.3
		c-1.2,0.1-2.4,0.1-3.7,0l-5-0.6c-1.6,0-3.4,0-5.1,0c-0.5,0-1-0.1-1.4-0.2c0.3-0.1,0.7-0.1,1.1-0.1h10.8l3-0.4
		c1.2-0.1,2.4,0,3.6,0.1c0.5,0.2-1.4,0.2-1.9,0.4c0.5,0.1,1,0.2,1.4,0.2c3.6,0,7.2,0,10.8,0c0.3,0,0.6,0,0.9,0.1
		C1443.1,11.5,1442.9,11.5,1442.7,11.5z M1453.9,10.9c-0.3,0.1-0.6,0.1-0.9,0.1h-13.7l-3.8-0.5c1.8-0.4,4.6-0.1,6.9-0.2
		c2.5,0.4,5.1,0.4,7.6,0c1.8,0.1,2.6,0.3,3.8,0.4C1454.1,10.7,1454.2,10.8,1453.9,10.9z M1440.8,9c-6.8,0-13.6,0-20.4,0
		c-1,0-1.4-0.1-1.1-0.2c0.3-0.1,0.6-0.1,0.9-0.1c13.6,0,27.2,0,40.9,0c1,0,1.4,0.1,1.1,0.2c-0.3,0.1-0.6,0.1-0.9,0.1H1440.8z
		 M1472.3,29.7c-1,0.1-1.7,0.5-2.3,0.5h-8.7c-1.9-1-1.9-0.5,0.1-0.8c3.1,0,6.3-0.1,9.4-0.1c0.8,0,1.6,0,2.3,0.1
		C1473.4,29.5,1473.1,29.6,1472.3,29.7z M1511.2,10.9c1.1,0,2.3,0,3.4,0.2c-1.5,0.2-3.2,0.2-4.8,0.2c-1.1,0-2.3,0-3.4-0.2
		C1508,10.9,1509.6,10.9,1511.2,10.9z M1485.1,8.7c0.3-0.1,0.6-0.1,0.9-0.1c1,0.1,1.3,0.1,0.9,0.2c-0.4,0.1-0.8,0.1-0.9,0.1
		C1484.9,8.9,1484.7,8.8,1485.1,8.7z M1496.8,39.9c-0.8,0.2-1.6,0.3-2.5,0.3h-10.9c-1.5-0.1-2.9-0.2-4.4-0.4l4.1-0.5l2.9,0.3
		c3.1,0,6.3,0,9.5,0c0.8,0,1.6,0,2.3,0.1C1498.1,39.8,1497.6,39.8,1496.8,39.9z M1500.6,11.2c-0.3,0.1-0.6,0.1-0.9,0.1h-8.1
		c-1-0.1-1.4-0.1-1-0.2c0.3-0.1,0.6-0.1,0.9-0.1h8.1C1500.4,11,1500.8,11.1,1500.6,11.2z M1513.3,46.1c-3.6,0-7.2,0.1-10.7,0.1
		c-1,0-1.4-0.1-1.2-0.1c0.3-0.1,0.6-0.1,0.9-0.1c0.9,0,1.8-0.2,2.6-0.2s2,0.4,2.9-0.6h5.4C1515.2,46.2,1515.2,45.7,1513.3,46.1z
		 M1517.3,11.1c1.8-0.2,3.7-0.2,5.5,0C1521.1,11.4,1519.3,11.4,1517.3,11.1z M1529.7,51c-0.1,0-0.6-0.1-0.9-0.1s0-0.2,0.9-0.2
		c0.3,0,0.6,0.1,0.9,0.1C1530.9,50.9,1530.7,51,1529.7,51z M1557.2,10.2h5.6c1.2,0.1,2.4,0.2,3.6,0.4c-0.4,0.1-0.9,0.1-1.3,0.1
		c-4.5,0-9.1,0.1-13.5,0.1c-1.9-0.4-3.8-0.5-5.8-0.6h5.8c0.6,0,1.6,0.2,2.8,0.3C1555.3,10.3,1556.3,10.2,1557.2,10.2z M1555.4,8.8
		c-0.3,0.1-0.6,0.1-0.9,0.1h-8.1c-1.1,0-1.5-0.1-1.1-0.2c0.3-0.1,0.6-0.1,0.9-0.1h8.1C1555.3,8.7,1555.7,8.7,1555.4,8.8z
		 M1530.6,11.2c-1.5,0.2-3,0.2-4.5,0c-0.1,0-0.1-0.1,0.1-0.1c0.3-0.1,0.6-0.1,0.9-0.1c0.9,0,1.8,0,2.6,0c0.3,0,0.6,0.1,0.9,0.1
		C1530.7,11.1,1530.8,11.2,1530.6,11.2z M1532.8,6.5c-0.9,0-1.8-0.1-1.7-0.3s0.3-0.2,1.4-0.2h8.1c0.9,0,1.9,0.1,2.8,0.2
		c0.8,0,1.6,0,2.6,0s1.9-0.2,2.9-0.4l2.8,0.3c0.8,0,1.8,0,2.6,0c0.3,0,0.7,0,1,0.1c0.4,0.1,0,0.2-1,0.2
		C1547.2,6.6,1539.9,6.6,1532.8,6.5z M1567.7,11.5c-0.8,0-1.8,0-2.7,0h-20.2c-0.8,0-1.5,0-2.3-0.1c-0.3-0.1,0.2-0.1,1-0.1
		c1-0.1,1.9-0.2,2.7-0.2h5.5c0.7,0,1.3,0.1,2,0.1c2.5,0.1,5.2,0,7.8,0c2.2,0,4.4,0,6.7,0c0.3,0,0.6,0,0.9,0.1
		C1568.6,11.5,1568.2,11.6,1567.7,11.5z M1577.7,51.3c0,0.2-0.9,0.3-1.8,0.3s-1.2-0.2-1-0.3c0.1,0-0.1-0.1,0-0.2
		c0.6-0.1,1.2-0.2,1.8-0.1c0.3,0,0.6,0,0.9,0.1C1577.8,51.3,1577.7,51.3,1577.7,51.3z M1579.9,10.4c-0.3,0.1-0.6,0.1-0.9,0.1
		c-0.4,0-0.9,0-1.3,0c-1.7,0-2.8-0.1-2.3-0.2c0.7-0.1,1.5-0.2,2.3-0.1c0.4,0,0.9,0,1.3,0C1579.8,10.3,1580.3,10.4,1579.9,10.4z
		 M1608.3,17.1L1608.3,17.1c0.7-0.2,1.4-0.2,2.1-0.2l0,0c0,0,0.1-0.1,0.2-0.1c0.5-0.1,1.1-0.1,1.6-0.1l-0.5,0.1
		c0.4,0,0.8-0.1,1.2-0.1c-0.4,0.1-0.8,0.2-1.2,0.2h-0.3L1611,17c-0.3,0-0.5,0-0.6,0l0,0c-0.3,0.1-0.5,0.1-0.8,0.1s-0.6,0-0.8,0
		C1607.8,17.2,1607.7,17.1,1608.3,17.1z M1615.7,50.5c-0.3,0.1-0.6,0.1-0.9,0.1h-8.1c-1.1,0.1-1.5,0-1.1-0.2
		c0.3-0.1,0.6-0.1,0.9-0.1h8.1C1615.6,50.4,1616,50.4,1615.7,50.5z M1616.9,5.7c-0.3,0-0.6-0.1-0.9-0.1c0.7,0,1.3,0,1.8-0.1
		c0.4,0,0.6,0.1,0.9,0.1C1618.1,5.7,1617.5,5.8,1616.9,5.7z M1667.3,8.2c1.1,0,2.2,0,3.4,0.2l-3.7,0.5c-1.5-0.1-2.9-0.2-4.4-0.5
		C1664.3,8.3,1665.8,8.2,1667.3,8.2z M1647.4,10.9c-1.7-0.1-3.6,0-5.3,0c-0.2,0-0.5-0.1-0.7-0.2c0.3-0.1,0.5-0.3,0.7-0.5h5.3
		c0.2,0.2,0.4,0.4,0.7,0.5C1647.9,10.8,1647.6,10.8,1647.4,10.9z M1659.9,10.8c1.6-0.2,3.2-0.2,4.8-0.2c1.1,0,2.3,0,3.4,0.2
		c-1.7,0.2-3.3,0.2-4.8,0.2C1662.2,11,1661,11,1659.9,10.8z M1669.3,51.2c-0.5,0.1-0.9,0-1.4-0.2c-0.1-0.1,0.1-0.2,0.7-0.3
		c1.2-0.1,2.5-0.1,3.7,0c1,0.1,2,0.4,2.8,0.4L1669.3,51.2z M1685.9,11.7c-1.3-0.2-2.6-0.2-3.8-0.4c0.3,0,1,0,1.5-0.1h5
		C1687.8,12.1,1686.8,11.6,1685.9,11.7z M1815.8,9.1c-1.8,0.2-3.7,0.2-5.5,0C1812.3,8.9,1814.1,8.9,1815.8,9.1z M1781.7,8.6
		c0.3,0,0.6,0.1,0.9,0.1c0.4,0.1,0,0.1-0.9,0.2c-0.1,0-0.6-0.1-0.9-0.1S1780.8,8.7,1781.7,8.6z M1773.8,10.7c0.3,0,0.6,0.1,0.9,0.1
		c-0.6,0.1-1.2,0.2-1.8,0.1c-0.3,0-0.6-0.1-0.9-0.1C1772.7,10.7,1773.3,10.6,1773.8,10.7z M1765.3,10.6c0.3,0,0.6,0.1,0.9,0.1
		c0.4,0.1,0,0.1-0.9,0.2c-0.1,0-0.6-0.1-0.9-0.1S1764.3,10.7,1765.3,10.6z M1737.9,8.6c3.6,0,7.2,0,10.8,0c0.3,0,0.6,0,0.9,0.1
		s0,0.2-1,0.2c-2.2,0-4.5,0-6.7,0c-1.3,0-2.7,0-4,0c-0.3,0-0.6,0-0.9-0.1C1736.6,8.7,1736.9,8.6,1737.9,8.6z M1728.8,8.7
		c0.3-0.1,0.6-0.1,0.9-0.1c1,0.1,1.2,0.1,0.9,0.2c-0.3,0.1-0.8,0.1-0.9,0.1C1728.7,8.9,1728.3,8.8,1728.8,8.7z M1717.3,51
		c-0.4,0-0.9,0-1.3,0c-0.3,0-0.6,0-0.9-0.1s0-0.2,1-0.2c0.4,0,0.9,0,1.3,0c0.8-0.1,1.5,0,2.3,0.1C1720.1,50.9,1718.9,51,1717.3,51z
		 M1726.7,13.3c-2.2,0-4.5,0-6.7,0c-1.3,0-2.7,0-4,0c-0.3,0-0.6,0-0.9-0.1s0.1-0.2,1.1-0.2c3.6,0,7.2,0,10.8,0c0.3,0,0.6,0,0.9,0.1
		C1728.2,13.2,1727.8,13.3,1726.7,13.3z M1757.9,13.5c-1.5,0.2-3,0.2-4.5,0c-0.2,0-0.2-0.1-0.1-0.1
		C1754.8,13.2,1756.3,13.2,1757.9,13.5C1758.1,13.4,1757.9,13.5,1757.9,13.5z M1778.7,48.7c-2.7,0-5.3,0-7.9,0c-1,0-1.3-0.1-1-0.2
		s0.6-0.1,0.9-0.1c0.9,0,1.8,0,2.8,0l2.6-0.3c1.3,0.2,2.6,0.3,3.7,0.5C1779.5,48.6,1779.2,48.7,1778.7,48.7z M1790.1,46.6
		c-3,0-6,0.1-8.9,0c-1,0-1.2-0.1-0.9-0.2c-1.2,0-2.7-0.3-4.3-0.3h-8c-1,0-1.9,0.1-2.9,0.2c-1.4-0.2-2.7-0.4-3.9-0.5
		c0.3,0,0.6-0.1,0.9-0.1s0.8-0.1,1.2-0.1h15.6c2.3,0.2,1.1,0.5,1.5,0.7c3,0,6.1,0,9.2,0c0.5,0,1,0.1,1.5,0.2
		C1790.8,46.6,1790.3,46.6,1790.1,46.6z M1788.9,45.9C1788.8,45.9,1788.8,45.8,1788.9,45.9c1.4-0.3,2.9-0.3,4.4-0.1
		c0.2,0,0.1,0.1,0.1,0.1C1792.1,46,1790.6,46,1788.9,45.9z M1788.9,38.7c0.3,0,0.8-0.1,0.9-0.1c1,0.1,1.3,0.2,0.9,0.2
		c-0.3,0.1-0.6,0.1-0.9,0.1C1788.9,38.8,1788.7,38.8,1788.9,38.7z M1792.6,47.3c-0.1,0-0.6-0.1-0.9-0.1s0-0.2,0.9-0.2
		c0.3,0,0.6,0.1,0.9,0.1C1793.8,47.2,1793.6,47.3,1792.6,47.3z M1797.7,47.3c-0.3,0-0.6-0.1-0.9-0.1c0.6-0.1,1.2-0.2,1.8-0.1
		c0.3,0,0.9,0.1,0.9,0.1C1798.8,47.3,1798.3,47.3,1797.7,47.3z M1798.2,12.2c-0.9,0-1.9,0-2.8-0.1c-1,0.1-1.9,0.3-2.9,0.4
		c-0.9-0.2-1.7-0.2-2.6-0.3h-41.7c-3.7,0-7.3,0.1-10.9,0.1s-7.2,0.1-10.6,0l-2.2-0.3h-25.7c-0.8,0-1.7-0.3-2.5-0.3
		c-0.6-0.1-1.3,0.5-2-0.4h16.3c1.7,0.3,3.5,0.3,5.2,0.1c3.9-0.1,8,0.2,11.8,0c0.7-0.1,1.4-0.2,2.2-0.2h5.5c1.9,0.1,3.8,0.3,5.7,0.6
		c1,0,1.9-0.1,2.7-0.1c1.1-0.1,2.1-0.3,2-0.2c4-0.2,4.6,0.2,6.9,0.2c2.6,0,5.3,0,8-0.1c0.7-0.2,1.5-0.3,2.2-0.4h11.9
		c2.4,0,2.4,0.1,3.1-0.3c0.5-0.2,1-0.3,1.5-0.3h32.6c1,0,1.4,0.1,1.1,0.2c-0.3,0.1-0.7,0.1-1,0.1c-0.4,0-0.9,0-1.3,0
		c-0.8-0.1-1.5,0-2.3,0.1c-0.3,0.1,0.3,0.1,1,0.1h5.5c0.3,0,0.7,0,1-0.1c0.2,0,0.3-0.1,0.2-0.1s0-0.2,0.8-0.3c1,0,1.9,0,2.9,0.2
		c1.7,0.1,3.5,0,5.3,0.1s3.7,0,5.5,0c0.7,0,1.2,0.1,1.8,0.2l-1.2,0.1c-1.5,0-3.3,0-5.1,0c-0.5,0.1-0.9,0.1-1.4,0.3
		c1.2,0.3,2.4,0.5,3.6,0.6L1798.2,12.2z M1826.3,17.7c-0.2,0-0.6-0.5-0.9,0.5h-5.3c-0.2-0.3-0.6-0.5-0.9-0.6
		c0.2-0.2,0.5-0.3,0.8-0.4h5.3C1826.3,17.2,1826.7,17.6,1826.3,17.7z M1802.2,47.2c1.8-0.2,3.7-0.2,5.5,0
		C1805.8,47.4,1803.9,47.4,1802.2,47.2z M1806.3,19.7c-0.3,0-0.6,0-0.9-0.1s0.1-0.2,1.1-0.2c4.5,0,9,0,13.5,0c0.3,0,0.6,0,0.9,0.1
		s0,0.2-1.1,0.2c-2.7,0-5.4,0-8.1,0H1806.3z M1822.9,46.6c-0.5,0-1-0.1-1.5-0.2h-0.2c0,0,0,0,0.1,0c0,0-0.1,0-0.2-0.1
		c-0.2,0-0.5,0-0.7,0c-0.8-0.1-1-0.1-1.2-0.1s-0.4,0-0.3-0.1c0.6-0.1,1.1-0.1,1.7-0.1c0.7,0.1,1,0.2,0.7,0.3c0,0-0.1,0-0.2,0
		c0.2,0,0.3,0,0.5,0.1c0.3,0,0.6,0,1,0s0.8,0.1,1.2,0.2L1822.9,46.6C1823.3,46.6,1823,46.6,1822.9,46.6z M1823.8,40.5
		c-0.7,0.1-1.5,0.2-2.3,0.1c-0.4,0-0.9,0-1.5,0l-2.5-0.3c-1.2,0-2.1,0-2.8,0c-1,0-1.4-0.1-1-0.2c0.3-0.1,0.6-0.1,0.9-0.1h6
		c0.5,0.1,1.3,0.2,2.2,0.3C1823.6,40.4,1824.1,40.5,1823.8,40.5z M1822.8,39.2h-2.7c-1,0-1.9-0.1-2.9-0.3c-0.9,0-1.8,0-2.7,0
		c-0.3,0-0.6,0-0.9-0.1s0.1-0.2,1.1-0.2c2.7,0,5.3,0,8,0C1824.7,38.9,1824.7,39.2,1822.8,39.2z M1826.3,47.6c-0.3,0-0.8,0.1-0.9,0.1
		c-1-0.1-1.3-0.2-0.9-0.2c0.3-0.1,0.6-0.1,0.9-0.1C1826.3,47.4,1826.7,47.5,1826.3,47.6z M1853.7,49.5c-0.3,0.1-0.6,0.1-0.9,0.1
		c-0.9,0-1.2-0.1-0.9-0.2c0.2,0,0.6-0.1,0.9-0.1C1853.7,49.4,1854.1,49.5,1853.7,49.5z"/>
	<path d="M1899.3,48.2h1C1900,48.2,1899.6,48.1,1899.3,48.2z"/>
	<path d="M1198.3,4.1c1,0.1,2,0.1,3,0.2c0.3,0,0.6-0.1,0.9-0.2H1198.3z"/>
	<path d="M1758.4,51.8C1758.3,51.8,1758.3,51.9,1758.4,51.8L1758.4,51.8z"/>
	<path d="M1755.8,52.3c0.6,0.1,1.1,0.1,1.8,0.2c1.1,0.1,2.2,0,3.3-0.1c0.7-0.2,0.2-0.4-1.2-0.5c-0.2,0-0.6,0-0.9,0l-0.4-0.1
		c-0.1,0.2-0.1,0.3,0,0.4h-2.2L1755.8,52.3z"/>
	<path d="M1809.9,51.8c-0.3,0-0.8-0.1-0.9-0.1c-1,0.1-1.3,0.2-0.9,0.2c0.3,0.1,0.6,0.1,0.9,0.1C1809.9,52,1810.3,51.9,1809.9,51.8z"
		/>
	<path d="M1858.4,51.4c-0.3,0-0.6,0-0.9,0.1c-0.2,0-0.2,0.1-0.1,0.1c1.5,0.2,3,0.2,4.5-0.1c-0.3-0.1-0.6-0.1-0.9-0.1
		C1860.1,51.4,1859.2,51.4,1858.4,51.4z"/>
	<path d="M1861.9,51.5C1862.1,51.6,1861.9,51.5,1861.9,51.5L1861.9,51.5z"/>
	<path d="M1815.9,51.6c0.3,0.1,0.6,0.1,0.9,0.1c0.6,0,1.2,0,1.8-0.1c-0.3,0-0.6-0.1-0.9-0.1C1817.2,51.4,1816.6,51.4,1815.9,51.6z"
		/>
	<path d="M1753.4,54.9c-0.4,0.1,0,0.2,0.9,0.2c0.1,0,0.6-0.1,0.9-0.1s0-0.2-0.9-0.2C1754,54.8,1753.7,54.9,1753.4,54.9z"/>
	<path d="M1763.4,52.8c-0.3-0.1-0.6-0.1-0.9-0.1c-1.3,0-2.7,0-4,0c-2.2,0-4.5,0-6.7,0c-1,0-1.4,0.1-1.1,0.2c0.3,0.1,0.6,0.1,0.9,0.1
		c3.6,0,7.2,0,10.8,0C1763.3,53.1,1763.8,52.9,1763.4,52.8z"/>
	<path d="M1810.3,52.9c-0.2-0.1-0.4-0.1-0.6-0.1c-3.9-0.1-7.9-0.1-11.8,0c-0.3,0-0.6,0-0.9,0.1c0.2,0.1,0.5,0.1,0.7,0.1
		c0.8,0,1.7,0,2.5,0.1c0.7,0,1.3,0.1,2,0.2c-0.1,0,0,0.1,0,0.1c-0.7,0-1.4,0-2.1,0.1c-0.6,0.1-0.5,0.2,0.5,0.2c0.3,0,0.6,0,0.8,0
		c0.2,0,0.5-0.1,0.7-0.1c0.1-0.1,0.2-0.1,0.2-0.2c0.4,0.1,2.1,0,2.4,0.2c0.2,0.1,1.2,0.1,3,0.3C1807.1,53.4,1807.8,53.2,1810.3,52.9
		z"/>
	<path d="M1917.3,46.4c0.6,0.1,1.3,0.2,1.9,0.1V46c-0.2,0-0.3,0.1-0.5,0.1C1917.8,46.2,1917,46.3,1917.3,46.4z"/>
	<path d="M1919.8,45.9c-0.2,0-0.4-0.1-0.6-0.1V46C1919.4,45.9,1919.6,45.9,1919.8,45.9z"/>
	<path d="M1917.4,45.5c0.6,0.1,1.2,0.2,1.8,0.3v-0.6C1918.6,45.3,1918,45.3,1917.4,45.5z"/>
	<path d="M1870.7,51.4c-0.4,0-1,0-1.3,0c-1,0.1-1.3,0.1-1,0.2c0.3,0.1,0.6,0.1,0.9,0.1c0.4,0,0.9,0,1.3,0c1.7,0,2.8-0.1,2.3-0.2
		C1872.3,51.4,1871.4,51.3,1870.7,51.4z"/>
	<path d="M1902.7,49.5c1.3,0.1,2.1,0.2,2.8,0.2c2.7,0,5.1,0,7.8,0c2.1,0,3.9,0,5.9,0v-0.3h-13.9
		C1904.9,49.4,1904.7,49.4,1902.7,49.5z"/>
	<path d="M1882,51.5c-0.2,0,0,0.2,0.9,0.2c0.3,0,0.6-0.1,0.9-0.1c0.5-0.1,0-0.1-0.9-0.2C1882.6,51.4,1882.2,51.5,1882,51.5z"/>
	<path d="M1889.9,50.9c-0.1,0,0.6,0.1,0.9,0.1c0.6,0,1.2,0,1.8-0.1c-0.3-0.1-0.7-0.1-0.9-0.1C1891.1,50.8,1890.5,50.8,1889.9,50.9z"
		/>
	<path d="M1895.3,50.9c0.3,0.1,0.6,0.1,0.9,0.1c0.6,0,1.2,0,1.8-0.1c-0.3,0-0.6-0.1-0.9-0.1C1896.6,50.7,1895.9,50.8,1895.3,50.9z"
		/>
	<path d="M1882,47.3c0.3,0.1,0.8,0.1,0.9,0.1c1-0.1,1.4-0.2,0.9-0.2c-0.3-0.1-0.6-0.1-0.9-0.1C1881.9,47.2,1881.7,47.2,1882,47.3z"
		/>
	<path d="M745.2,54.7H763c0.3,0,0.7,0,1-0.1c0.4-0.1,0-0.2-1-0.2c-11.8,0-23.6,0-35.4,0c-0.4,0-0.8,0.1-1.1,0.1
		c-0.4,0.1,0,0.2,1,0.2C733.4,54.7,739.3,54.7,745.2,54.7z"/>
	<path d="M747.8,53.2c-0.3-0.1-0.6-0.1-0.9-0.1c-0.6,0-1.2,0-1.8,0.1c-0.1,0,0.6,0.1,0.9,0.1C746.8,53.4,747.3,53.4,747.8,53.2z"/>
	<path d="M820.5,55.1c-0.3,0-0.7,0-1,0.1s0.1,0.2,1,0.2c9.5,0,19.1,0,28.6,0h28.7c0.3,0,0.7,0,1-0.1s-0.1-0.2-1.1-0.2
		C858.8,55.1,839.7,55.1,820.5,55.1z"/>
	<path d="M778.4,54.9c-0.1,0.1,0.3,0.2,1.3,0.2c5.4,0,10.9,0,16.3,0h16.3c0.3,0,0.6,0,0.9-0.1c0.3-0.1-0.2-0.2-1.2-0.2
		c-10.9,0-21.8,0-32.7,0C779,54.8,778.7,54.8,778.4,54.9z"/>
	<path d="M698.2,53.3C698.4,53.3,698.3,53.2,698.2,53.3c-0.4-0.2-0.7-0.2-0.9-0.2c-0.9,0-1.8,0-2.6,0c-0.3,0-0.6,0-0.9,0.1
		c-0.2,0-0.2,0.1-0.1,0.1C695.2,53.5,696.7,53.5,698.2,53.3z"/>
	<path d="M769.8,54.9c1.8,0.2,3.7,0.2,5.5,0C773.5,54.7,771.7,54.7,769.8,54.9z"/>
	<path d="M784.5,55.5c-0.3,0-0.7,0.1-1,0.1c3.2,0.3,6.7,0.2,11.9,0.1c-1.2-0.1-1.4-0.2-1.8-0.2C790.5,55.4,787.5,55.4,784.5,55.5z"
		/>
	<path d="M734.3,53.6l-0.9-0.1c-0.3,0-0.6-0.1-0.9-0.1c-0.9-0.2-1.8-0.2-2.8-0.2c-1.5,0.1-0.7,0.3-0.9,0.5
		C730.5,53.8,732.5,53.8,734.3,53.6z"/>
	<path d="M841.6,2c-0.7,0.2,1.1,0.1,1.8,0.2c0.7,0,1.3,0,2,0h49.1c-0.8,0-1.8-0.2-2.9-0.3H844C843.2,1.9,842.4,1.9,841.6,2z"/>
	<path d="M941.3,2.2L941.3,2.2c0.9,0.1,1.7,0.3,2.5,0.5c10,0,20,0.1,30,0.1c0.3,0,0.6,0,0.9-0.1c0.3-0.1-0.1-0.2-1.2-0.2
		c-1.8,0-3.6,0-5.3,0l-1-0.1c-1.9-0.3-3.8-0.3-5.6,0c-1.9,0.3-3.8,0.3-5.6,0c-0.4-0.1-0.9-0.2-1.3-0.2H941.3z"/>
	<path d="M899.9,2.2h7.8l-1.9-0.3H903C902,2.1,901,2.2,899.9,2.2z"/>
	<path d="M979.5,2.5c-1,0-1.4,0.1-1.1,0.2c0.3,0.1,0.6,0.1,0.9,0.1c4.5,0,9,0,13.5,0c1,0,1.4-0.1,1.1-0.2c-0.2,0-0.6-0.1-0.9-0.1
		h-5.4C984.9,2.5,982.2,2.5,979.5,2.5z"/>
	<path d="M677.3,54.2c-0.4,0.1,0,0.2,1,0.2c5.4,0,10.9,0,16.3,0h16.3c0.3,0,0.7,0,1-0.1c0.4-0.1,0-0.2-1-0.2c-10.9,0-21.8,0-32.7,0
		C678,54.1,677.5,54.1,677.3,54.2z"/>
	<path d="M654,52.3c0.3,0,0.9-0.1,0.9-0.1s-0.4-0.1-0.6-0.1h-1.7c-0.1,0.1-0.3,0.1-0.4,0.1C652.8,52.3,653.4,52.4,654,52.3z"/>
	<path d="M624.7,52.1c-0.8-0.1-1.5,0-2.3,0.1c-0.5,0.1,0.7,0.2,2.3,0.2c0.4,0,0.9,0,1.3,0c0.3,0,0.6,0,0.9-0.1c0.3-0.1,0-0.2-1-0.2
		C625.7,52,625,52.1,624.7,52.1z"/>
	<path d="M1005.8,2.6c-0.4,0.1,0,0.2,0.9,0.2c0.1,0,0.6-0.1,0.9-0.1s0-0.2-0.9-0.2C1006.3,2.5,1006.2,2.6,1005.8,2.6z"/>
	<path d="M1872.1,46.9c-0.3,0-0.7,0-0.9,0C1870.8,47,1871.2,47,1872.1,46.9l5.3,0.1c0.9,0.2,1.4,0.1,0.9,0c-0.3,0-0.6-0.1-0.9-0.1
		C1875.6,46.9,1873.8,46.9,1872.1,46.9z"/>
	<path d="M1846,47c-0.4,0-0.9,0-1.3,0c-1,0.1-1.3,0.1-1,0.2c0.4,0.1,0.6,0.1,1,0.1s0.9,0,1.3,0c1.7,0,2.8-0.1,2.3-0.2
		C1847.6,47,1846.8,46.9,1846,47z"/>
	<path d="M1045.6,49.7c0.2,0,0.5-0.1,0.7-0.1c0.3-0.1,0.3-0.2,0.1-0.2c-0.7,0-1.4,0-2.1,0.1c-0.6,0.1-0.5,0.2,0.5,0.2
		C1045.1,49.7,1045.4,49.7,1045.6,49.7z"/>
	<path d="M917.7,52.6c-0.6-0.1-1.2-0.2-1.8-0.1c-0.3,0-0.6,0.1-0.9,0.1c0.7,0.1,1.3,0.1,1.8,0.1C917.1,52.7,917.7,52.6,917.7,52.6z"
		/>
	<path d="M1051.9,50.5c0.3-0.2-0.1-0.3-0.7-0.3c-0.6-0.1-1.1-0.1-1.7,0.1c-0.1,0,0.2,0.1,0.3,0.1c0.3,0,0.6,0.1,0.9,0.1
		C1051.1,50.5,1051.8,50.5,1051.9,50.5z"/>
	<path d="M913.8,55.4c-1,0.1-1.3,0.1-1,0.2c0.3,0.1,0.6,0.1,0.9,0.1c0.4,0,0.9,0,1.3,0c1.7,0,2.8-0.1,2.3-0.2
		c-0.7-0.1-1.5-0.2-2.3-0.1C914.5,55.4,914,55.4,913.8,55.4z"/>
	<path d="M1016.3,50.2c2.9,0.2,5.8,0.3,8.7,0.1c-1.3-0.2-2.7-0.3-4-0.3C1019.5,49.9,1017.8,50,1016.3,50.2z"/>
	<path d="M1045.5,50.3c0.3,0,0.9-0.1,0.9-0.1c-0.6-0.1-1.2-0.1-1.8-0.1c-0.3,0-0.6,0.1-0.9,0.1C1044.3,50.3,1044.9,50.4,1045.5,50.3
		z"/>
	<path d="M895.3,52c0.3-0.1,0-0.2-0.9-0.2c-0.3,0-0.6,0.1-0.9,0.1c-0.4,0.1,0,0.2,0.9,0.2C894.5,52.1,895,52,895.3,52z"/>
</g>
</svg>
