<?xml version="1.0" encoding="utf-8"?>
<!-- Generator: Adobe Illustrator 19.2.1, SVG Export Plug-In . SVG Version: 6.00 Build 0)  -->
<svg version="1.1" id="katman_2" xmlns="http://www.w3.org/2000/svg" xmlns:xlink="http://www.w3.org/1999/xlink" x="0px" y="0px"
	 viewBox="0 0 20 50" style="enable-background:new 0 0 20 50;" xml:space="preserve">
<style type="text/css">
	.st0{fill:#FFFFFF;}
</style>
<title>tab-arrow</title>
<defs>
<clipPath id="svgPath">
<path class="st0" d="M10.4,43.9V14.7H9.6v29.2H10.4z"/>
<path class="st0" d="M15.1,49.8L15.1,49.8c0.4-0.5-0.2-1.3-0.2-1.3l-4.9-5.9l-4.8,6c-0.2,0.2-0.6,0.8-0.2,1.3l0,0
	c0.5,0.5,1.2-0.3,1.2-0.4l3.8-4.7l4,4.9C14.3,50,14.7,50.1,15.1,49.8z"/>
<path class="st0" d="M15.1,44.1L15.1,44.1c0.4-0.5-0.2-1.3-0.2-1.3l-4.9-5.9l-4.8,6c-0.3,0.3-0.4,0.8-0.2,1.2l0,0l0,0
	c0.5,0.5,1.2-0.3,1.2-0.4l3.8-4.8l4,4.9C14.3,44.3,14.7,44.3,15.1,44.1z"/>
<path class="st0" d="M15.1,38.9L15.1,38.9c0.4-0.5-0.2-1.3-0.2-1.3l-4.9-5.9l-4.8,6C4.9,38,4.8,38.5,5,38.9l0,0l0,0
	c0.5,0.5,1.2-0.3,1.2-0.4l3.8-4.7l4.1,4.8C14.3,39.1,14.7,39.2,15.1,38.9z"/>
<path class="st0" d="M10.6,1.4L10,0L0,21.1l10-6.4l10,6.4L10.6,1.4z M1.8,19l0.6-1.2h1.3L1.8,19z M5,17H2.7l0.4-0.8h3.1L5,17z
	 M7.5,15.3h-4L4,14.4h5L7.5,15.3z M9.9,13.6H4.3l0.4-0.8H10L9.9,13.6L9.9,13.6z M9.9,12H5l0.4-0.8H10L9.9,12L9.9,12z M9.9,10.4H5.8
	l0.4-0.9h3.7V10.4L9.9,10.4z M9.9,8.7H6.6l0.5-1H10L9.9,8.7L9.9,8.7z M9.9,6.8H7.5L8,6h2L9.9,6.8L9.9,6.8z M9.9,5.2H8.2l0.4-0.9h1.3
	V5.2L9.9,5.2z M9.9,3.5H9.1l0.8-1.7V3.5L9.9,3.5z"/>
	</clipPath>
	</defs>
</svg>
