<?xml version="1.0" encoding="utf-8"?>
<!-- Generator: Adobe Illustrator 19.2.1, SVG Export Plug-In . SVG Version: 6.00 Build 0)  -->
<svg version="1.1" id="Layer_1" xmlns="http://www.w3.org/2000/svg" xmlns:xlink="http://www.w3.org/1999/xlink" x="0px" y="0px"
	 viewBox="0 0 25 50" style="enable-background:new 0 0 25 50;" xml:space="preserve">
<style type="text/css">
	.st0{fill:#FFFFFF;}
</style>
<title>tab-arrow</title>
<path class="st0" d="M13,43.9V14.7h-1v29.2H13z"/>
<path class="st0" d="M18.9,49.8L18.9,49.8c0.5-0.5-0.2-1.3-0.2-1.3l-6.1-5.9l-6,6c-0.2,0.2-0.7,0.8-0.2,1.3l0,0
	c0.6,0.5,1.5-0.3,1.5-0.4l4.7-4.7l5,4.9C17.9,50,18.4,50.1,18.9,49.8z"/>
<path class="st0" d="M18.9,44.1L18.9,44.1c0.5-0.5-0.2-1.3-0.2-1.3l-6.1-5.9l-6,6c-0.4,0.3-0.5,0.8-0.2,1.2c0,0,0,0,0,0l0,0
	c0.6,0.5,1.5-0.3,1.5-0.4l4.7-4.8l5,4.9C17.9,44.3,18.4,44.3,18.9,44.1z"/>
<path class="st0" d="M18.9,38.9L18.9,38.9c0.5-0.5-0.2-1.3-0.2-1.3l-6.1-5.9l-6,6C6.1,38,6,38.5,6.3,38.9c0,0,0,0,0,0l0,0
	c0.6,0.5,1.5-0.3,1.5-0.4l4.7-4.7l5.1,4.8C17.9,39.1,18.4,39.2,18.9,38.9z"/>
<path class="st0" d="M13.3,1.4L12.5,0L0,21.1l12.5-6.4L25,21.1L13.3,1.4z M2.3,19L3,17.8h1.6L2.3,19z M6.2,17H3.4l0.5-0.8h3.9
	L6.2,17z M9.4,15.3h-5L5,14.4h6.2L9.4,15.3z M12.4,13.6H5.4l0.5-0.8h6.6L12.4,13.6L12.4,13.6z M12.4,12H6.3l0.5-0.8h5.7L12.4,12
	L12.4,12z M12.4,10.4H7.3l0.5-0.9h4.6L12.4,10.4L12.4,10.4z M12.4,8.7H8.3l0.6-1h3.6L12.4,8.7L12.4,8.7z M12.4,6.8h-3L10,6h2.5
	L12.4,6.8L12.4,6.8z M12.4,5.2h-2.1l0.5-0.9h1.6L12.4,5.2L12.4,5.2z M12.4,3.5h-1l1-1.7V3.5L12.4,3.5z"/>
</svg>
