<svg id="Layer_1" data-name="Layer 1" xmlns="http://www.w3.org/2000/svg" viewBox="0 0 25 50"><defs><style>.cls-1{fill:#fff;}</style></defs><title>tab-arrow</title><path class="cls-1" d="M12,6.1V35.29H13V6.1H12Z"/><path class="cls-1" d="M6.15,0.2h0c-0.55.52,0.2,1.25,0.22,1.27l6.15,5.94,6-6c0.16-.16.7-0.8,0.19-1.26h0c-0.58-.53-1.47.34-1.49,0.36L12.5,5.24,7.45,0.36A1,1,0,0,0,6.15.2Z"/><path class="cls-1" d="M6.15,5.92h0c-0.55.51,0.2,1.25,0.22,1.27l6.15,5.94,6-6a0.89,0.89,0,0,0,.19-1.26h0c-0.58-.53-1.47.34-1.49,0.36L12.5,11,7.45,6.08A1,1,0,0,0,6.15,5.92Z"/><path class="cls-1" d="M6.15,11.08h0c-0.55.52,0.2,1.25,0.22,1.27l6.15,5.94,6-6a0.89,0.89,0,0,0,.19-1.26h0c-0.58-.53-1.47.34-1.49,0.36l-4.7,4.69L7.45,11.25A1,1,0,0,0,6.15,11.08Z"/><path class="cls-1" d="M11.7,48.61L12.5,50,25,28.9,12.5,35.26,0,28.9ZM22.75,31L22,32.16H20.42Zm-3.92,2h2.74l-0.51.85H17.15Zm-3.27,1.66h5l-0.53.9H13.79Zm-3,1.71h7.05l-0.46.77h-6.6V36.34Zm0,1.58h6.12l-0.51.85H12.51V37.92Zm0,1.66h5.13l-0.54.9h-4.6v-0.9Zm0,1.71h4.12l-0.6,1H12.51v-1Zm0,1.81h3L15,44H12.51V43.1Zm0,1.66h2.05l-0.53.9H12.51v-0.9Zm0,1.71h1l-1,1.75V46.47Z"/></svg>